<svg width="159" height="155" viewBox="0 0 159 155" fill="none" xmlns="http://www.w3.org/2000/svg">
<path d="M33.9355 21.9473V101H14.209V58.6172C14.209 52.4974 14.0625 48.819 13.7695 47.582C13.4766 46.3451 12.6628 45.4173 11.3281 44.7988C10.026 44.1478 7.09635 43.8223 2.53906 43.8223H0.585938V34.5938C10.1237 32.543 17.3665 28.3275 22.3145 21.9473H33.9355Z" fill="#E9E9E9"/>
<path d="M94.8988 89.72C95.7921 89.96 96.4721 90.3733 96.9388 90.96C97.4054 91.5333 97.6388 92.2533 97.6388 93.12C97.6388 94.3467 97.1854 95.3 96.2788 95.98C95.3721 96.66 94.0588 97 92.3388 97H85.6988V83H91.9588C93.5321 83 94.7588 83.3133 95.6388 83.94C96.5188 84.5667 96.9588 85.4533 96.9588 86.6C96.9588 87.3333 96.7788 87.9667 96.4188 88.5C96.0721 89.0333 95.5654 89.44 94.8988 89.72ZM88.2588 88.98H91.7388C92.5788 88.98 93.2188 88.8133 93.6588 88.48C94.0988 88.1467 94.3188 87.6533 94.3188 87C94.3188 86.3467 94.0988 85.8533 93.6588 85.52C93.2188 85.1733 92.5788 85 91.7388 85H88.2588V88.98ZM92.2588 95C94.0988 95 95.0187 94.3067 95.0187 92.92C95.0187 91.56 94.0988 90.88 92.2588 90.88H88.2588V95H92.2588ZM105.521 89.84C106.881 89.84 107.921 90.1467 108.641 90.76C109.361 91.3733 109.721 92.24 109.721 93.36C109.721 94.5333 109.321 95.44 108.521 96.08C107.734 96.72 106.614 97.0333 105.161 97.02L100.321 97V86.32H102.821V89.82L105.521 89.84ZM111.101 86.32H113.601V97H111.101V86.32ZM104.941 95.18C105.674 95.1933 106.234 95.04 106.621 94.72C107.007 94.4 107.201 93.9333 107.201 93.32C107.201 92.72 107.014 92.28 106.641 92C106.267 91.72 105.701 91.5733 104.941 91.56L102.821 91.54V95.16L104.941 95.18ZM53.4009 121.14C52.3209 121.14 51.3476 120.907 50.4809 120.44C49.6143 119.973 48.9343 119.327 48.4409 118.5C47.9609 117.66 47.7209 116.713 47.7209 115.66C47.7209 114.607 47.9609 113.667 48.4409 112.84C48.9343 112.013 49.6143 111.367 50.4809 110.9C51.3476 110.433 52.3209 110.2 53.4009 110.2C54.4943 110.2 55.4743 110.433 56.3409 110.9C57.2076 111.367 57.8809 112.013 58.3609 112.84C58.8543 113.667 59.1009 114.607 59.1009 115.66C59.1009 116.713 58.8543 117.66 58.3609 118.5C57.8809 119.327 57.2076 119.973 56.3409 120.44C55.4743 120.907 54.4943 121.14 53.4009 121.14ZM53.4009 119C54.3209 119 55.0809 118.693 55.6809 118.08C56.2809 117.467 56.5809 116.66 56.5809 115.66C56.5809 114.66 56.2809 113.853 55.6809 113.24C55.0809 112.627 54.3209 112.32 53.4009 112.32C52.4809 112.32 51.7209 112.627 51.1209 113.24C50.5343 113.853 50.2409 114.66 50.2409 115.66C50.2409 116.66 50.5343 117.467 51.1209 118.08C51.7209 118.693 52.4809 119 53.4009 119ZM67.3506 110.84C68.364 110.84 69.2573 111.06 70.0306 111.5C70.804 111.927 71.404 112.527 71.8306 113.3C72.2706 114.073 72.4906 114.96 72.4906 115.96C72.4906 116.987 72.2506 117.9 71.7706 118.7C71.2906 119.487 70.6173 120.1 69.7506 120.54C68.884 120.98 67.8973 121.2 66.7906 121.2C64.9373 121.2 63.504 120.587 62.4906 119.36C61.4773 118.133 60.9706 116.367 60.9706 114.06C60.9706 111.913 61.4306 110.213 62.3506 108.96C63.2706 107.707 64.6773 106.88 66.5706 106.48L71.5306 105.42L71.8906 107.66L67.3906 108.58C66.0973 108.847 65.1306 109.3 64.4906 109.94C63.8506 110.58 63.4773 111.48 63.3706 112.64C63.8506 112.067 64.4306 111.627 65.1106 111.32C65.7906 111 66.5373 110.84 67.3506 110.84ZM66.8506 119.18C67.7706 119.18 68.5106 118.887 69.0706 118.3C69.644 117.7 69.9306 116.94 69.9306 116.02C69.9306 115.1 69.644 114.36 69.0706 113.8C68.5106 113.24 67.7706 112.96 66.8506 112.96C65.9173 112.96 65.164 113.24 64.5906 113.8C64.0173 114.36 63.7306 115.1 63.7306 116.02C63.7306 116.953 64.0173 117.713 64.5906 118.3C65.1773 118.887 65.9306 119.18 66.8506 119.18ZM80.8305 110.2C81.8705 110.2 82.7971 110.427 83.6105 110.88C84.4371 111.333 85.0838 111.973 85.5505 112.8C86.0171 113.627 86.2505 114.58 86.2505 115.66C86.2505 116.74 86.0171 117.7 85.5505 118.54C85.0838 119.367 84.4371 120.007 83.6105 120.46C82.7971 120.913 81.8705 121.14 80.8305 121.14C79.3905 121.14 78.2505 120.66 77.4105 119.7V124.88H74.9105V110.32H77.2905V111.72C77.7038 111.213 78.2105 110.833 78.8105 110.58C79.4238 110.327 80.0971 110.2 80.8305 110.2ZM80.5505 119C81.4705 119 82.2238 118.693 82.8105 118.08C83.4105 117.467 83.7105 116.66 83.7105 115.66C83.7105 114.66 83.4105 113.853 82.8105 113.24C82.2238 112.627 81.4705 112.32 80.5505 112.32C79.9505 112.32 79.4105 112.46 78.9305 112.74C78.4505 113.007 78.0705 113.393 77.7905 113.9C77.5105 114.407 77.3705 114.993 77.3705 115.66C77.3705 116.327 77.5105 116.913 77.7905 117.42C78.0705 117.927 78.4505 118.32 78.9305 118.6C79.4105 118.867 79.9505 119 80.5505 119ZM92.5819 110.2C94.1552 110.2 95.3552 110.58 96.1819 111.34C97.0219 112.087 97.4419 113.22 97.4419 114.74V121H95.0819V119.7C94.7752 120.167 94.3352 120.527 93.7619 120.78C93.2019 121.02 92.5219 121.14 91.7219 121.14C90.9219 121.14 90.2219 121.007 89.6219 120.74C89.0219 120.46 88.5552 120.08 88.2219 119.6C87.9019 119.107 87.7419 118.553 87.7419 117.94C87.7419 116.98 88.0952 116.213 88.8019 115.64C89.5219 115.053 90.6485 114.76 92.1819 114.76H94.9419V114.6C94.9419 113.853 94.7152 113.28 94.2619 112.88C93.8219 112.48 93.1619 112.28 92.2819 112.28C91.6819 112.28 91.0885 112.373 90.5019 112.56C89.9285 112.747 89.4419 113.007 89.0419 113.34L88.0619 111.52C88.6219 111.093 89.2952 110.767 90.0819 110.54C90.8685 110.313 91.7019 110.2 92.5819 110.2ZM92.2419 119.32C92.8685 119.32 93.4219 119.18 93.9019 118.9C94.3952 118.607 94.7419 118.193 94.9419 117.66V116.42H92.3619C90.9219 116.42 90.2019 116.893 90.2019 117.84C90.2019 118.293 90.3819 118.653 90.7419 118.92C91.1019 119.187 91.6019 119.32 92.2419 119.32ZM116.275 110.32V121H100.535V110.32H103.035V118.88H107.175V110.32H109.675V118.88H113.775V110.32H116.275ZM117.815 118.88V123.2H115.475V121H113.695V118.88H117.815ZM123.617 110.2C125.19 110.2 126.39 110.58 127.217 111.34C128.057 112.087 128.477 113.22 128.477 114.74V121H126.117V119.7C125.81 120.167 125.37 120.527 124.797 120.78C124.237 121.02 123.557 121.14 122.757 121.14C121.957 121.14 121.257 121.007 120.657 120.74C120.057 120.46 119.59 120.08 119.257 119.6C118.937 119.107 118.777 118.553 118.777 117.94C118.777 116.98 119.13 116.213 119.837 115.64C120.557 115.053 121.684 114.76 123.217 114.76H125.977V114.6C125.977 113.853 125.75 113.28 125.297 112.88C124.857 112.48 124.197 112.28 123.317 112.28C122.717 112.28 122.124 112.373 121.537 112.56C120.964 112.747 120.477 113.007 120.077 113.34L119.097 111.52C119.657 111.093 120.33 110.767 121.117 110.54C121.904 110.313 122.737 110.2 123.617 110.2ZM123.277 119.32C123.904 119.32 124.457 119.18 124.937 118.9C125.43 118.607 125.777 118.193 125.977 117.66V116.42H123.397C121.957 116.42 121.237 116.893 121.237 117.84C121.237 118.293 121.417 118.653 121.777 118.92C122.137 119.187 122.637 119.32 123.277 119.32ZM141.571 115.72C141.571 115.893 141.557 116.14 141.531 116.46H133.151C133.297 117.247 133.677 117.873 134.291 118.34C134.917 118.793 135.691 119.02 136.611 119.02C137.784 119.02 138.751 118.633 139.511 117.86L140.851 119.4C140.371 119.973 139.764 120.407 139.031 120.7C138.297 120.993 137.471 121.14 136.551 121.14C135.377 121.14 134.344 120.907 133.451 120.44C132.557 119.973 131.864 119.327 131.371 118.5C130.891 117.66 130.651 116.713 130.651 115.66C130.651 114.62 130.884 113.687 131.351 112.86C131.831 112.02 132.491 111.367 133.331 110.9C134.171 110.433 135.117 110.2 136.171 110.2C137.211 110.2 138.137 110.433 138.951 110.9C139.777 111.353 140.417 112 140.871 112.84C141.337 113.667 141.571 114.627 141.571 115.72ZM136.171 112.2C135.371 112.2 134.691 112.44 134.131 112.92C133.584 113.387 133.251 114.013 133.131 114.8H139.191C139.084 114.027 138.757 113.4 138.211 112.92C137.664 112.44 136.984 112.2 136.171 112.2ZM152.374 112.44H148.634V121H146.134V112.44H142.374V110.32H152.374V112.44ZM60.5159 139.72C60.5159 139.893 60.5026 140.14 60.4759 140.46H52.0959C52.2426 141.247 52.6226 141.873 53.2359 142.34C53.8626 142.793 54.6359 143.02 55.5559 143.02C56.7293 143.02 57.6959 142.633 58.4559 141.86L59.7959 143.4C59.3159 143.973 58.7093 144.407 57.9759 144.7C57.2426 144.993 56.4159 145.14 55.4959 145.14C54.3226 145.14 53.2893 144.907 52.3959 144.44C51.5026 143.973 50.8093 143.327 50.3159 142.5C49.8359 141.66 49.5959 140.713 49.5959 139.66C49.5959 138.62 49.8293 137.687 50.2959 136.86C50.7759 136.02 51.4359 135.367 52.2759 134.9C53.1159 134.433 54.0626 134.2 55.1159 134.2C56.1559 134.2 57.0826 134.433 57.8959 134.9C58.7226 135.353 59.3626 136 59.8159 136.84C60.2826 137.667 60.5159 138.627 60.5159 139.72ZM55.1159 136.2C54.3159 136.2 53.6359 136.44 53.0759 136.92C52.5293 137.387 52.1959 138.013 52.0759 138.8H58.1359C58.0293 138.027 57.7026 137.4 57.1559 136.92C56.6093 136.44 55.9293 136.2 55.1159 136.2ZM68.1103 145.14C67.0036 145.14 66.0103 144.907 65.1303 144.44C64.2503 143.973 63.5636 143.327 63.0703 142.5C62.577 141.66 62.3303 140.713 62.3303 139.66C62.3303 138.607 62.577 137.667 63.0703 136.84C63.5636 136.013 64.2436 135.367 65.1103 134.9C65.9903 134.433 66.9903 134.2 68.1103 134.2C69.1636 134.2 70.0836 134.413 70.8703 134.84C71.6703 135.267 72.2703 135.88 72.6703 136.68L70.7503 137.8C70.4436 137.307 70.057 136.94 69.5903 136.7C69.137 136.447 68.637 136.32 68.0903 136.32C67.157 136.32 66.3836 136.627 65.7703 137.24C65.157 137.84 64.8503 138.647 64.8503 139.66C64.8503 140.673 65.1503 141.487 65.7503 142.1C66.3636 142.7 67.1436 143 68.0903 143C68.637 143 69.137 142.88 69.5903 142.64C70.057 142.387 70.4436 142.013 70.7503 141.52L72.6703 142.64C72.257 143.44 71.6503 144.06 70.8503 144.5C70.0636 144.927 69.1503 145.14 68.1103 145.14ZM80.2314 137.84C81.5914 137.84 82.6314 138.147 83.3514 138.76C84.0847 139.373 84.4514 140.24 84.4514 141.36C84.4514 142.533 84.0514 143.44 83.2514 144.08C82.4514 144.72 81.3247 145.033 79.8714 145.02L74.8714 145V134.32H77.3714V137.82L80.2314 137.84ZM79.6514 143.18C80.3847 143.193 80.9447 143.04 81.3314 142.72C81.7181 142.4 81.9114 141.933 81.9114 141.32C81.9114 140.72 81.7247 140.28 81.3514 140C80.9781 139.72 80.4114 139.573 79.6514 139.56L77.3714 139.54V143.16L79.6514 143.18ZM96.6161 140.72H94.6761V145H92.1761V134.32H94.6761V138.64H96.6761L99.8361 134.32H102.516L98.6361 139.46L102.776 145H99.8361L96.6161 140.72ZM110.067 134.32H112.567V138.66H117.947V134.32H120.447V145H117.947V140.78H112.567V145H110.067V134.32ZM127.777 134.2C129.351 134.2 130.551 134.58 131.377 135.34C132.217 136.087 132.637 137.22 132.637 138.74V145H130.277V143.7C129.971 144.167 129.531 144.527 128.957 144.78C128.397 145.02 127.717 145.14 126.917 145.14C126.117 145.14 125.417 145.007 124.817 144.74C124.217 144.46 123.751 144.08 123.417 143.6C123.097 143.107 122.937 142.553 122.937 141.94C122.937 140.98 123.291 140.213 123.997 139.64C124.717 139.053 125.844 138.76 127.377 138.76H130.137V138.6C130.137 137.853 129.911 137.28 129.457 136.88C129.017 136.48 128.357 136.28 127.477 136.28C126.877 136.28 126.284 136.373 125.697 136.56C125.124 136.747 124.637 137.007 124.237 137.34L123.257 135.52C123.817 135.093 124.491 134.767 125.277 134.54C126.064 134.313 126.897 134.2 127.777 134.2ZM127.437 143.32C128.064 143.32 128.617 143.18 129.097 142.9C129.591 142.607 129.937 142.193 130.137 141.66V140.42H127.557C126.117 140.42 125.397 140.893 125.397 141.84C125.397 142.293 125.577 142.653 125.937 142.92C126.297 143.187 126.797 143.32 127.437 143.32ZM146.231 145V137.92L142.631 143.88H141.551L138.011 137.9V145H135.731V134.32H138.351L142.151 141L146.131 134.32H148.471L148.491 145H146.231Z" fill="#2D2D2D"/>
<circle cx="102.857" cy="44.8569" r="25" fill="#EC7F00"/>
<path fill-rule="evenodd" clip-rule="evenodd" d="M92.9579 28.141C91.7417 28.8582 88.0232 33.2556 86.9636 35.2298C86.7126 35.6974 86.7029 35.7431 86.7507 36.2249C86.9113 37.8425 87.6131 40.1657 88.582 42.2868C89.65 44.6251 91.456 47.4228 93.5113 49.9229C94.5594 51.1979 97.0159 53.7196 98.2363 54.7735C102.653 58.5873 107.101 60.9729 111.11 61.6776C111.47 61.741 111.866 61.7928 111.989 61.7928C112.413 61.7928 113.58 61.0243 115.341 59.585C117.616 57.7264 119.407 55.9115 119.714 55.1526C119.959 54.5456 119.477 53.9733 117.711 52.7762C115.151 51.0399 112.766 49.6665 111.639 49.279C111.111 49.0977 111.07 49.0941 110.806 49.207C110.45 49.3591 110.215 49.5908 109.198 50.7923C108.74 51.3329 108.218 51.922 108.037 52.1014L107.707 52.4277L107.235 52.3028C105.697 51.8957 103.619 50.7841 101.894 49.4451C101.131 48.8526 99.8454 47.5785 99.135 46.7097C97.796 45.0723 96.5259 42.708 96.0157 40.9034L95.8491 40.3137L96.2491 39.8942C96.4691 39.6635 97.0145 39.1578 97.4611 38.7706C98.4913 37.8774 98.8648 37.4814 99.007 37.1315C99.1117 36.8737 99.109 36.8156 98.9707 36.357C98.557 34.9853 95.5343 29.7723 94.4421 28.5467C93.8347 27.8652 93.5552 27.7888 92.9579 28.141ZM104.437 29.1316V30.3412L104.788 30.3418C106.326 30.3446 108.368 30.8526 109.953 31.627C112.662 32.9495 114.708 34.9996 116.027 37.7127C116.854 39.4128 117.206 40.6928 117.372 42.6081L117.462 43.6477H118.627H119.793V43.3155C119.793 42.7345 119.649 41.4452 119.488 40.5857C119.051 38.2481 117.834 35.5809 116.387 33.7878C113.742 30.511 110.198 28.519 106.149 28.034C105.635 27.9723 105.039 27.9219 104.825 27.9219H104.437V29.1316ZM104.437 35.1582V36.3678L105.02 36.4177C106.743 36.5648 108.238 37.2987 109.494 38.6135C110.689 39.8635 111.354 41.3409 111.497 43.0617L111.546 43.6477H112.716H113.887V43.336C113.887 42.2931 113.434 40.4452 112.922 39.4009C112.021 37.5628 110.423 35.9075 108.682 35.0101C107.585 34.4443 106.355 34.0968 105.11 34.0005L104.437 33.9486V35.1582Z" fill="white"/>
</svg>
