<svg width="248" height="217" viewBox="0 0 248 217" fill="none" xmlns="http://www.w3.org/2000/svg">
<path d="M33.9355 21.9473V101H14.209V58.6172C14.209 52.4974 14.0625 48.819 13.7695 47.582C13.4766 46.3451 12.6628 45.4173 11.3281 44.7988C10.026 44.1478 7.09635 43.8223 2.53906 43.8223H0.585938V34.5938C10.1237 32.543 17.3665 28.3275 22.3145 21.9473H33.9355ZM88.1348 48.7051V75.0723C88.1348 81.0618 87.8092 85.4238 87.1582 88.1582C86.5072 90.8926 85.1562 93.4479 83.1055 95.8242C81.0547 98.2005 78.5807 99.9095 75.6836 100.951C72.7865 101.993 69.5475 102.514 65.9668 102.514C61.2467 102.514 57.3242 101.977 54.1992 100.902C51.0742 99.7956 48.584 98.0866 46.7285 95.7754C44.873 93.4642 43.5547 91.0391 42.7734 88.5C41.9922 85.9284 41.6016 81.8594 41.6016 76.293V48.7051C41.6016 41.446 42.2201 36.0098 43.457 32.3965C44.7266 28.7832 47.2168 25.8861 50.9277 23.7051C54.6712 21.5241 59.196 20.4336 64.502 20.4336C68.8314 20.4336 72.7051 21.1986 76.123 22.7285C79.541 24.2259 82.0964 26.0651 83.7891 28.2461C85.4818 30.4271 86.6211 32.8848 87.207 35.6191C87.8255 38.3535 88.1348 42.7155 88.1348 48.7051ZM68.4082 42.0645C68.4082 37.8652 68.1966 35.2448 67.7734 34.2031C67.3828 33.1289 66.4388 32.5918 64.9414 32.5918C63.4766 32.5918 62.5 33.1615 62.0117 34.3008C61.556 35.4076 61.3281 37.9954 61.3281 42.0645V80.6387C61.3281 85.2285 61.5397 87.9954 61.9629 88.9395C62.4186 89.8835 63.3789 90.3555 64.8438 90.3555C66.3086 90.3555 67.2689 89.8021 67.7246 88.6953C68.1803 87.5885 68.4082 85.0983 68.4082 81.2246V42.0645Z" fill="#E9E9E9"/>
<circle cx="172" cy="47" r="25" fill="#EC7F00"/>
<path fill-rule="evenodd" clip-rule="evenodd" d="M171.842 32.4933C169.101 32.6164 166.527 33.5245 164.276 35.1631C163.772 35.5301 163.037 36.1701 162.884 36.3761C162.779 36.5172 162.704 36.6957 162.674 36.8749C162.629 37.1374 162.646 37.2102 162.963 38.1095C166.175 47.2303 167.671 51.4513 167.721 51.5361C167.951 51.923 168.418 52.1328 168.852 52.0442C169.082 51.9972 169.224 51.9187 169.452 51.7119C169.784 51.41 170.101 51.147 170.47 50.8655C171.742 49.8962 172.939 49.3003 173.973 49.1217C174.328 49.0603 175.122 49.0693 175.751 49.1417C176.384 49.2146 176.808 49.309 177.809 49.5997C179.096 49.9733 179.534 50.0696 180.29 50.1451C180.669 50.183 181.447 50.1833 181.859 50.1459C183.126 50.0309 184.436 49.6675 185.609 49.1055C186.075 48.8823 186.254 48.7325 186.391 48.452C186.526 48.1742 186.516 48.8183 186.516 40.7886C186.516 36.1717 186.51 33.5238 186.499 33.4448C186.433 32.9848 186.122 32.6333 185.679 32.5182C185.504 32.4727 185.338 32.4725 185.164 32.5176C184.986 32.5639 184.914 32.6023 184.666 32.7827C183.387 33.7126 181.96 34.3953 180.853 34.6075C180.193 34.734 179.583 34.7171 178.953 34.5548C178.467 34.4297 178.084 34.2717 176.938 33.7236C176.597 33.5606 176.18 33.3674 176.012 33.2943C175.05 32.8762 174.148 32.6273 173.235 32.5278C172.985 32.5005 172.145 32.4797 171.842 32.4933ZM173.016 34.7338C173.128 34.7479 173.226 34.7666 173.234 34.7754C173.242 34.7843 173.453 35.5847 173.702 36.554L174.156 38.3165L174.329 38.338C174.954 38.4154 176.166 38.87 177.646 39.5819C177.773 39.6433 177.881 39.6903 177.885 39.6863C177.889 39.6823 177.718 38.904 177.506 37.9567C177.294 37.0094 177.122 36.2316 177.126 36.2282C177.129 36.2249 177.272 36.2791 177.444 36.3487C178.403 36.738 179.158 36.9001 180.011 36.8994C180.498 36.899 180.861 36.8603 181.385 36.7528C181.524 36.7245 181.639 36.704 181.642 36.7072C181.645 36.7104 181.709 37.4758 181.783 38.408C181.857 39.3403 181.922 40.107 181.927 40.1119C181.941 40.1263 182.47 39.9382 182.775 39.8104C183.106 39.6715 183.833 39.3095 184.124 39.1379C184.237 39.0718 184.332 39.0177 184.336 39.0177C184.339 39.0177 184.342 40.0517 184.342 41.3154V43.6131L184.203 43.6725C183.722 43.8776 183.05 44.0957 182.538 44.2128C182.391 44.2464 182.269 44.2763 182.266 44.2792C182.263 44.2822 182.321 45.0716 182.396 46.0336C182.47 46.9956 182.526 47.7876 182.52 47.7936C182.504 47.81 182.211 47.8657 181.918 47.9081C181.529 47.9644 181.089 47.985 180.725 47.9638C180.297 47.9389 179.779 47.8654 179.743 47.8243C179.735 47.8153 179.548 47.011 179.328 46.0371C179.108 45.0631 178.921 44.2589 178.913 44.2499C178.896 44.2305 177.541 43.8592 176.74 43.6545C176.231 43.5244 175.591 43.3813 175.516 43.381C175.493 43.3809 175.579 43.7298 175.961 45.1824C176.221 46.1733 176.43 46.9877 176.426 46.9921C176.421 46.9966 176.31 46.987 176.179 46.9708C175.388 46.8735 174.604 46.8426 174.043 46.8868C173.591 46.9224 172.975 47.0377 172.543 47.1674C172.464 47.1911 172.394 47.2053 172.387 47.1989C172.38 47.1925 172.088 46.4208 171.738 45.4841C171.388 44.5473 171.096 43.776 171.09 43.77C171.084 43.7639 170.988 43.7984 170.877 43.8466C170.084 44.1899 169.216 44.7464 168.224 45.5486C168.082 45.6631 167.963 45.7542 167.96 45.7509C167.938 45.7284 166.192 40.7431 166.203 40.7337C166.253 40.6905 166.579 40.4582 166.783 40.3201C167.45 39.8682 168.229 39.4388 168.964 39.1169C169.13 39.044 169.27 38.9809 169.274 38.9765C169.278 38.9722 168.986 38.1997 168.626 37.26C168.265 36.3203 167.969 35.5437 167.969 35.5344C167.969 35.5132 168.233 35.4095 168.607 35.2837C169.598 34.9507 170.671 34.7569 171.824 34.7027C172.099 34.6898 172.814 34.7085 173.016 34.7338ZM160.645 35.4378C160.616 35.4459 160.442 35.4937 160.259 35.544C160.076 35.5943 159.886 35.6452 159.837 35.6571C159.787 35.6691 159.702 35.6994 159.648 35.7246C159.594 35.7497 159.424 35.8067 159.271 35.8513C158.906 35.9573 158.793 36.0162 158.621 36.1894C158.2 36.6144 158.178 37.2845 158.572 37.7123C158.771 37.9278 158.985 38.0366 159.288 38.0754L159.459 38.0973L163.354 49.0591C165.497 55.0882 167.283 60.1192 167.323 60.2393C167.417 60.517 167.461 60.5933 167.62 60.7534C167.763 60.898 167.932 60.9945 168.131 61.0453C168.289 61.0858 168.564 61.0726 168.724 61.0168C169.074 60.8951 169.351 60.5848 169.436 60.2195C169.476 60.0447 169.463 59.7894 169.404 59.6194C169.38 59.5491 167.602 54.542 165.454 48.4925C163.306 42.443 161.545 37.48 161.54 37.4635C161.535 37.4445 161.576 37.3883 161.652 37.3088C161.742 37.2153 161.792 37.1424 161.85 37.0191C161.942 36.8242 161.966 36.7154 161.966 36.5048C161.966 36.1333 161.798 35.8157 161.492 35.6072C161.295 35.4736 161.175 35.4364 160.915 35.4291C160.796 35.4257 160.675 35.4297 160.645 35.4378ZM172.867 38.2696C171.794 38.3191 170.619 38.5388 169.578 38.8841C169.439 38.93 169.319 38.9738 169.311 38.9815C169.298 38.994 171.064 43.7001 171.093 43.7312C171.1 43.7381 171.223 43.7068 171.366 43.6617C172.002 43.4613 172.737 43.2974 173.208 43.2509C173.585 43.2138 174.472 43.2519 175.209 43.3369C175.35 43.3532 175.469 43.3636 175.472 43.36C175.475 43.3564 175.18 42.2243 174.817 40.8441C174.166 38.3691 174.156 38.3345 174.109 38.3217C173.935 38.2745 173.32 38.2487 172.867 38.2696ZM177.914 39.7543C177.919 39.7759 178.148 40.7917 178.422 42.0117C178.696 43.2316 178.922 44.2317 178.923 44.234C178.929 44.2434 179.59 44.3504 179.876 44.3881C180.28 44.4414 180.997 44.4457 181.404 44.3972C181.666 44.366 182.241 44.2797 182.251 44.2701C182.257 44.2633 181.918 40.1457 181.91 40.1376C181.906 40.1338 181.819 40.1512 181.717 40.1762C181.171 40.3091 180.514 40.3624 180.026 40.3134C179.415 40.252 178.717 40.0674 178.127 39.8113C177.924 39.7232 177.906 39.7184 177.914 39.7543Z" fill="white"/>
<path d="M126.918 96.7C127.758 96.9667 128.411 97.4 128.878 98C129.358 98.5867 129.598 99.28 129.598 100.08C129.598 100.92 129.324 101.653 128.778 102.28C128.231 102.893 127.498 103.367 126.578 103.7C125.671 104.033 124.678 104.2 123.598 104.2C122.664 104.2 121.724 104.073 120.778 103.82C119.844 103.553 118.978 103.16 118.178 102.64L119.018 100.74C119.631 101.153 120.311 101.473 121.058 101.7C121.804 101.913 122.544 102.02 123.278 102.02C124.331 102.02 125.204 101.813 125.898 101.4C126.604 100.987 126.958 100.42 126.958 99.7C126.958 99.0867 126.704 98.62 126.198 98.3C125.691 97.98 124.991 97.82 124.098 97.82H120.838V95.78H123.898C124.671 95.78 125.278 95.62 125.718 95.3C126.158 94.98 126.378 94.5467 126.378 94C126.378 93.3467 126.078 92.84 125.478 92.48C124.891 92.12 124.138 91.94 123.218 91.94C122.591 91.94 121.944 92.0333 121.278 92.22C120.611 92.3933 119.984 92.6533 119.398 93L118.578 90.9C119.298 90.5133 120.058 90.2267 120.858 90.04C121.671 89.84 122.478 89.74 123.278 89.74C124.318 89.74 125.271 89.9 126.138 90.22C127.018 90.54 127.718 91 128.238 91.6C128.758 92.1867 129.018 92.88 129.018 93.68C129.018 94.3733 128.831 94.98 128.458 95.5C128.084 96.02 127.571 96.42 126.918 96.7ZM136.246 93.2C137.819 93.2 139.019 93.58 139.846 94.34C140.686 95.0867 141.106 96.22 141.106 97.74V104H138.746V102.7C138.439 103.167 137.999 103.527 137.426 103.78C136.866 104.02 136.186 104.14 135.386 104.14C134.586 104.14 133.886 104.007 133.286 103.74C132.686 103.46 132.219 103.08 131.886 102.6C131.566 102.107 131.406 101.553 131.406 100.94C131.406 99.98 131.759 99.2133 132.466 98.64C133.186 98.0533 134.313 97.76 135.846 97.76H138.606V97.6C138.606 96.8533 138.379 96.28 137.926 95.88C137.486 95.48 136.826 95.28 135.946 95.28C135.346 95.28 134.753 95.3733 134.166 95.56C133.593 95.7467 133.106 96.0067 132.706 96.34L131.726 94.52C132.286 94.0933 132.959 93.7667 133.746 93.54C134.533 93.3133 135.366 93.2 136.246 93.2ZM135.906 102.32C136.533 102.32 137.086 102.18 137.566 101.9C138.059 101.607 138.406 101.193 138.606 100.66V99.42H136.026C134.586 99.42 133.866 99.8933 133.866 100.84C133.866 101.293 134.046 101.653 134.406 101.92C134.766 102.187 135.266 102.32 135.906 102.32ZM148.64 99.72H146.7V104H144.2V93.32H146.7V97.64H148.7L151.86 93.32H154.54L150.66 98.46L154.8 104H151.86L148.64 99.72ZM162.483 93.2C163.523 93.2 164.449 93.4267 165.263 93.88C166.089 94.3333 166.736 94.9733 167.203 95.8C167.669 96.6267 167.903 97.58 167.903 98.66C167.903 99.74 167.669 100.7 167.203 101.54C166.736 102.367 166.089 103.007 165.263 103.46C164.449 103.913 163.523 104.14 162.483 104.14C161.043 104.14 159.903 103.66 159.063 102.7V107.88H156.563V93.32H158.943V94.72C159.356 94.2133 159.863 93.8333 160.463 93.58C161.076 93.3267 161.749 93.2 162.483 93.2ZM162.203 102C163.123 102 163.876 101.693 164.463 101.08C165.063 100.467 165.363 99.66 165.363 98.66C165.363 97.66 165.063 96.8533 164.463 96.24C163.876 95.6267 163.123 95.32 162.203 95.32C161.603 95.32 161.063 95.46 160.583 95.74C160.103 96.0067 159.723 96.3933 159.443 96.9C159.163 97.4067 159.023 97.9933 159.023 98.66C159.023 99.3267 159.163 99.9133 159.443 100.42C159.723 100.927 160.103 101.32 160.583 101.6C161.063 101.867 161.603 102 162.203 102ZM175.591 96.84C176.951 96.84 177.991 97.1467 178.711 97.76C179.431 98.3733 179.791 99.24 179.791 100.36C179.791 101.533 179.391 102.44 178.591 103.08C177.804 103.72 176.684 104.033 175.231 104.02L170.391 104V93.32H172.891V96.82L175.591 96.84ZM181.171 93.32H183.671V104H181.171V93.32ZM175.011 102.18C175.744 102.193 176.304 102.04 176.691 101.72C177.078 101.4 177.271 100.933 177.271 100.32C177.271 99.72 177.084 99.28 176.711 99C176.338 98.72 175.771 98.5733 175.011 98.56L172.891 98.54V102.16L175.011 102.18ZM195.492 95.44H191.752V104H189.252V95.44H185.492V93.32H195.492V95.44ZM197.305 93.32H199.805V100.36L205.705 93.32H207.985V104H205.485V96.96L199.605 104H197.305V93.32ZM221.348 98.72C221.348 98.8933 221.335 99.14 221.308 99.46H212.928C213.075 100.247 213.455 100.873 214.068 101.34C214.695 101.793 215.468 102.02 216.388 102.02C217.561 102.02 218.528 101.633 219.288 100.86L220.628 102.4C220.148 102.973 219.541 103.407 218.808 103.7C218.075 103.993 217.248 104.14 216.328 104.14C215.155 104.14 214.121 103.907 213.228 103.44C212.335 102.973 211.641 102.327 211.148 101.5C210.668 100.66 210.428 99.7133 210.428 98.66C210.428 97.62 210.661 96.6867 211.128 95.86C211.608 95.02 212.268 94.3667 213.108 93.9C213.948 93.4333 214.895 93.2 215.948 93.2C216.988 93.2 217.915 93.4333 218.728 93.9C219.555 94.3533 220.195 95 220.648 95.84C221.115 96.6667 221.348 97.6267 221.348 98.72ZM215.948 95.2C215.148 95.2 214.468 95.44 213.908 95.92C213.361 96.3867 213.028 97.0133 212.908 97.8H218.968C218.861 97.0267 218.535 96.4 217.988 95.92C217.441 95.44 216.761 95.2 215.948 95.2ZM135.241 128.14C134.135 128.14 133.141 127.907 132.261 127.44C131.381 126.973 130.695 126.327 130.201 125.5C129.708 124.66 129.461 123.713 129.461 122.66C129.461 121.607 129.708 120.667 130.201 119.84C130.695 119.013 131.375 118.367 132.241 117.9C133.121 117.433 134.121 117.2 135.241 117.2C136.295 117.2 137.215 117.413 138.001 117.84C138.801 118.267 139.401 118.88 139.801 119.68L137.881 120.8C137.575 120.307 137.188 119.94 136.721 119.7C136.268 119.447 135.768 119.32 135.221 119.32C134.288 119.32 133.515 119.627 132.901 120.24C132.288 120.84 131.981 121.647 131.981 122.66C131.981 123.673 132.281 124.487 132.881 125.1C133.495 125.7 134.275 126 135.221 126C135.768 126 136.268 125.88 136.721 125.64C137.188 125.387 137.575 125.013 137.881 124.52L139.801 125.64C139.388 126.44 138.781 127.06 137.981 127.5C137.195 127.927 136.281 128.14 135.241 128.14ZM153.168 125.88V130.38H150.828V128H142.588V130.38H140.268V125.88H140.768C141.448 125.853 141.908 125.42 142.148 124.58C142.401 123.727 142.568 122.527 142.648 120.98L142.788 117.32H151.588V125.88H153.168ZM144.928 121.16C144.875 122.387 144.775 123.387 144.628 124.16C144.481 124.933 144.215 125.507 143.828 125.88H149.088V119.44H144.988L144.928 121.16ZM165.401 122.72C165.401 122.893 165.387 123.14 165.361 123.46H156.981C157.127 124.247 157.507 124.873 158.121 125.34C158.747 125.793 159.521 126.02 160.441 126.02C161.614 126.02 162.581 125.633 163.341 124.86L164.681 126.4C164.201 126.973 163.594 127.407 162.861 127.7C162.127 127.993 161.301 128.14 160.381 128.14C159.207 128.14 158.174 127.907 157.281 127.44C156.387 126.973 155.694 126.327 155.201 125.5C154.721 124.66 154.481 123.713 154.481 122.66C154.481 121.62 154.714 120.687 155.181 119.86C155.661 119.02 156.321 118.367 157.161 117.9C158.001 117.433 158.947 117.2 160.001 117.2C161.041 117.2 161.967 117.433 162.781 117.9C163.607 118.353 164.247 119 164.701 119.84C165.167 120.667 165.401 121.627 165.401 122.72ZM160.001 119.2C159.201 119.2 158.521 119.44 157.961 119.92C157.414 120.387 157.081 121.013 156.961 121.8H163.021C162.914 121.027 162.587 120.4 162.041 119.92C161.494 119.44 160.814 119.2 160.001 119.2ZM177.678 117.32V128H175.178V119.44H171.178L171.078 121.56C171.012 122.973 170.878 124.16 170.678 125.12C170.492 126.067 170.165 126.82 169.698 127.38C169.245 127.927 168.618 128.2 167.818 128.2C167.445 128.2 166.985 128.127 166.438 127.98L166.558 125.88C166.745 125.92 166.905 125.94 167.038 125.94C167.545 125.94 167.925 125.74 168.178 125.34C168.432 124.927 168.592 124.44 168.658 123.88C168.738 123.307 168.805 122.493 168.858 121.44L169.038 117.32H177.678ZM185.485 123.72H183.545V128H181.045V117.32H183.545V121.64H185.545L188.705 117.32H191.385L187.505 122.46L191.645 128H188.705L185.485 123.72ZM193.409 117.32H195.909V124.36L201.809 117.32H204.089V128H201.589V120.96L195.709 128H193.409V117.32ZM124.516 138V152H121.956V140.2H114.696V152H112.136V138H124.516ZM132.944 152.14C131.864 152.14 130.891 151.907 130.024 151.44C129.157 150.973 128.477 150.327 127.984 149.5C127.504 148.66 127.264 147.713 127.264 146.66C127.264 145.607 127.504 144.667 127.984 143.84C128.477 143.013 129.157 142.367 130.024 141.9C130.891 141.433 131.864 141.2 132.944 141.2C134.037 141.2 135.017 141.433 135.884 141.9C136.751 142.367 137.424 143.013 137.904 143.84C138.397 144.667 138.644 145.607 138.644 146.66C138.644 147.713 138.397 148.66 137.904 149.5C137.424 150.327 136.751 150.973 135.884 151.44C135.017 151.907 134.037 152.14 132.944 152.14ZM132.944 150C133.864 150 134.624 149.693 135.224 149.08C135.824 148.467 136.124 147.66 136.124 146.66C136.124 145.66 135.824 144.853 135.224 144.24C134.624 143.627 133.864 143.32 132.944 143.32C132.024 143.32 131.264 143.627 130.664 144.24C130.077 144.853 129.784 145.66 129.784 146.66C129.784 147.66 130.077 148.467 130.664 149.08C131.264 149.693 132.024 150 132.944 150ZM150.676 141.32V152H148.176V143.44H144.176L144.076 145.56C144.01 146.973 143.876 148.16 143.676 149.12C143.49 150.067 143.163 150.82 142.696 151.38C142.243 151.927 141.616 152.2 140.816 152.2C140.443 152.2 139.983 152.127 139.436 151.98L139.556 149.88C139.743 149.92 139.903 149.94 140.036 149.94C140.543 149.94 140.923 149.74 141.176 149.34C141.43 148.927 141.59 148.44 141.656 147.88C141.736 147.307 141.803 146.493 141.856 145.44L142.036 141.32H150.676ZM164.123 141.32L159.123 152.86C158.657 154.02 158.09 154.833 157.423 155.3C156.757 155.78 155.95 156.02 155.003 156.02C154.47 156.02 153.943 155.933 153.423 155.76C152.903 155.587 152.477 155.347 152.143 155.04L153.143 153.2C153.383 153.427 153.663 153.607 153.983 153.74C154.317 153.873 154.65 153.94 154.983 153.94C155.423 153.94 155.783 153.827 156.063 153.6C156.357 153.373 156.623 152.993 156.863 152.46L157.043 152.04L152.383 141.32H154.983L158.343 149.22L161.723 141.32H164.123ZM174.92 141.32V152H172.42V147.86C171.393 148.353 170.32 148.6 169.2 148.6C167.826 148.6 166.773 148.287 166.04 147.66C165.306 147.02 164.94 146.047 164.94 144.74V141.32H167.44V144.58C167.44 145.26 167.64 145.767 168.04 146.1C168.44 146.433 169.006 146.6 169.74 146.6C170.673 146.6 171.566 146.4 172.42 146V141.32H174.92ZM188.282 146.72C188.282 146.893 188.268 147.14 188.242 147.46H179.862C180.008 148.247 180.388 148.873 181.002 149.34C181.628 149.793 182.402 150.02 183.322 150.02C184.495 150.02 185.462 149.633 186.222 148.86L187.562 150.4C187.082 150.973 186.475 151.407 185.742 151.7C185.008 151.993 184.182 152.14 183.262 152.14C182.088 152.14 181.055 151.907 180.162 151.44C179.268 150.973 178.575 150.327 178.082 149.5C177.602 148.66 177.362 147.713 177.362 146.66C177.362 145.62 177.595 144.687 178.062 143.86C178.542 143.02 179.202 142.367 180.042 141.9C180.882 141.433 181.828 141.2 182.882 141.2C183.922 141.2 184.848 141.433 185.662 141.9C186.488 142.353 187.128 143 187.582 143.84C188.048 144.667 188.282 145.627 188.282 146.72ZM182.882 143.2C182.082 143.2 181.402 143.44 180.842 143.92C180.295 144.387 179.962 145.013 179.842 145.8H185.902C185.795 145.027 185.468 144.4 184.922 143.92C184.375 143.44 183.695 143.2 182.882 143.2ZM191.016 141.32H193.516V145.66H198.896V141.32H201.396V152H198.896V147.78H193.516V152H191.016V141.32ZM204.746 141.32H207.246V148.36L213.146 141.32H215.426V152H212.926V144.96L207.046 152H204.746V141.32ZM228.789 146.72C228.789 146.893 228.776 147.14 228.749 147.46H220.369C220.516 148.247 220.896 148.873 221.509 149.34C222.136 149.793 222.909 150.02 223.829 150.02C225.003 150.02 225.969 149.633 226.729 148.86L228.069 150.4C227.589 150.973 226.983 151.407 226.249 151.7C225.516 151.993 224.689 152.14 223.769 152.14C222.596 152.14 221.563 151.907 220.669 151.44C219.776 150.973 219.083 150.327 218.589 149.5C218.109 148.66 217.869 147.713 217.869 146.66C217.869 145.62 218.103 144.687 218.569 143.86C219.049 143.02 219.709 142.367 220.549 141.9C221.389 141.433 222.336 141.2 223.389 141.2C224.429 141.2 225.356 141.433 226.169 141.9C226.996 142.353 227.636 143 228.089 143.84C228.556 144.667 228.789 145.627 228.789 146.72ZM223.389 143.2C222.589 143.2 221.909 143.44 221.349 143.92C220.803 144.387 220.469 145.013 220.349 145.8H226.409C226.303 145.027 225.976 144.4 225.429 143.92C224.883 143.44 224.203 143.2 223.389 143.2ZM135.922 176.14C134.842 176.14 133.869 175.907 133.002 175.44C132.136 174.973 131.456 174.327 130.962 173.5C130.482 172.66 130.242 171.713 130.242 170.66C130.242 169.607 130.482 168.667 130.962 167.84C131.456 167.013 132.136 166.367 133.002 165.9C133.869 165.433 134.842 165.2 135.922 165.2C137.016 165.2 137.996 165.433 138.862 165.9C139.729 166.367 140.402 167.013 140.882 167.84C141.376 168.667 141.622 169.607 141.622 170.66C141.622 171.713 141.376 172.66 140.882 173.5C140.402 174.327 139.729 174.973 138.862 175.44C137.996 175.907 137.016 176.14 135.922 176.14ZM135.922 174C136.842 174 137.602 173.693 138.202 173.08C138.802 172.467 139.102 171.66 139.102 170.66C139.102 169.66 138.802 168.853 138.202 168.24C137.602 167.627 136.842 167.32 135.922 167.32C135.002 167.32 134.242 167.627 133.642 168.24C133.056 168.853 132.762 169.66 132.762 170.66C132.762 171.66 133.056 172.467 133.642 173.08C134.242 173.693 135.002 174 135.922 174ZM148.952 176.14C147.845 176.14 146.852 175.907 145.972 175.44C145.092 174.973 144.405 174.327 143.912 173.5C143.419 172.66 143.172 171.713 143.172 170.66C143.172 169.607 143.419 168.667 143.912 167.84C144.405 167.013 145.085 166.367 145.952 165.9C146.832 165.433 147.832 165.2 148.952 165.2C150.005 165.2 150.925 165.413 151.712 165.84C152.512 166.267 153.112 166.88 153.512 167.68L151.592 168.8C151.285 168.307 150.899 167.94 150.432 167.7C149.979 167.447 149.479 167.32 148.932 167.32C147.999 167.32 147.225 167.627 146.612 168.24C145.999 168.84 145.692 169.647 145.692 170.66C145.692 171.673 145.992 172.487 146.592 173.1C147.205 173.7 147.985 174 148.932 174C149.479 174 149.979 173.88 150.432 173.64C150.899 173.387 151.285 173.013 151.592 172.52L153.512 173.64C153.099 174.44 152.492 175.06 151.692 175.5C150.905 175.927 149.992 176.14 148.952 176.14ZM164.076 167.44H160.336V176H157.836V167.44H154.076V165.32H164.076V167.44ZM169.869 165.2C171.442 165.2 172.642 165.58 173.469 166.34C174.309 167.087 174.729 168.22 174.729 169.74V176H172.369V174.7C172.062 175.167 171.622 175.527 171.049 175.78C170.489 176.02 169.809 176.14 169.009 176.14C168.209 176.14 167.509 176.007 166.909 175.74C166.309 175.46 165.842 175.08 165.509 174.6C165.189 174.107 165.029 173.553 165.029 172.94C165.029 171.98 165.382 171.213 166.089 170.64C166.809 170.053 167.936 169.76 169.469 169.76H172.229V169.6C172.229 168.853 172.002 168.28 171.549 167.88C171.109 167.48 170.449 167.28 169.569 167.28C168.969 167.28 168.376 167.373 167.789 167.56C167.216 167.747 166.729 168.007 166.329 168.34L165.349 166.52C165.909 166.093 166.582 165.767 167.369 165.54C168.156 165.313 168.989 165.2 169.869 165.2ZM169.529 174.32C170.156 174.32 170.709 174.18 171.189 173.9C171.682 173.607 172.029 173.193 172.229 172.66V171.42H169.649C168.209 171.42 167.489 171.893 167.489 172.84C167.489 173.293 167.669 173.653 168.029 173.92C168.389 174.187 168.889 174.32 169.529 174.32ZM186.283 167.44H182.543V176H180.043V167.44H176.283V165.32H186.283V167.44ZM192.536 171.72H190.596V176H188.096V165.32H190.596V169.64H192.596L195.756 165.32H198.436L194.556 170.46L198.696 176H195.756L192.536 171.72ZM204.244 165.2C205.817 165.2 207.017 165.58 207.844 166.34C208.684 167.087 209.104 168.22 209.104 169.74V176H206.744V174.7C206.437 175.167 205.997 175.527 205.424 175.78C204.864 176.02 204.184 176.14 203.384 176.14C202.584 176.14 201.884 176.007 201.284 175.74C200.684 175.46 200.217 175.08 199.884 174.6C199.564 174.107 199.404 173.553 199.404 172.94C199.404 171.98 199.757 171.213 200.464 170.64C201.184 170.053 202.311 169.76 203.844 169.76H206.604V169.6C206.604 168.853 206.377 168.28 205.924 167.88C205.484 167.48 204.824 167.28 203.944 167.28C203.344 167.28 202.751 167.373 202.164 167.56C201.591 167.747 201.104 168.007 200.704 168.34L199.724 166.52C200.284 166.093 200.957 165.767 201.744 165.54C202.531 165.313 203.364 165.2 204.244 165.2ZM203.904 174.32C204.531 174.32 205.084 174.18 205.564 173.9C206.057 173.607 206.404 173.193 206.604 172.66V171.42H204.024C202.584 171.42 201.864 171.893 201.864 172.84C201.864 173.293 202.044 173.653 202.404 173.92C202.764 174.187 203.264 174.32 203.904 174.32ZM140.456 200.14C139.349 200.14 138.356 199.907 137.476 199.44C136.596 198.973 135.909 198.327 135.416 197.5C134.923 196.66 134.676 195.713 134.676 194.66C134.676 193.607 134.923 192.667 135.416 191.84C135.909 191.013 136.589 190.367 137.456 189.9C138.336 189.433 139.336 189.2 140.456 189.2C141.509 189.2 142.429 189.413 143.216 189.84C144.016 190.267 144.616 190.88 145.016 191.68L143.096 192.8C142.789 192.307 142.403 191.94 141.936 191.7C141.483 191.447 140.983 191.32 140.436 191.32C139.503 191.32 138.729 191.627 138.116 192.24C137.503 192.84 137.196 193.647 137.196 194.66C137.196 195.673 137.496 196.487 138.096 197.1C138.709 197.7 139.489 198 140.436 198C140.983 198 141.483 197.88 141.936 197.64C142.403 197.387 142.789 197.013 143.096 196.52L145.016 197.64C144.603 198.44 143.996 199.06 143.196 199.5C142.409 199.927 141.496 200.14 140.456 200.14ZM157.16 189.32L152.16 200.86C151.694 202.02 151.127 202.833 150.46 203.3C149.794 203.78 148.987 204.02 148.04 204.02C147.507 204.02 146.98 203.933 146.46 203.76C145.94 203.587 145.514 203.347 145.18 203.04L146.18 201.2C146.42 201.427 146.7 201.607 147.02 201.74C147.354 201.873 147.687 201.94 148.02 201.94C148.46 201.94 148.82 201.827 149.1 201.6C149.394 201.373 149.66 200.993 149.9 200.46L150.08 200.04L145.42 189.32H148.02L151.38 197.22L154.76 189.32H157.16ZM169.397 200V192.92L165.797 198.88H164.717L161.177 192.9V200H158.897V189.32H161.517L165.317 196L169.297 189.32H171.637L171.657 200H169.397ZM185.51 200V192.92L181.91 198.88H180.83L177.29 192.9V200H175.01V189.32H177.63L181.43 196L185.41 189.32H187.75L187.77 200H185.51ZM196.323 192.84C197.683 192.84 198.723 193.147 199.443 193.76C200.163 194.373 200.523 195.24 200.523 196.36C200.523 197.533 200.123 198.44 199.323 199.08C198.537 199.72 197.417 200.033 195.963 200.02L191.123 200V189.32H193.623V192.82L196.323 192.84ZM201.903 189.32H204.403V200H201.903V189.32ZM195.743 198.18C196.477 198.193 197.037 198.04 197.423 197.72C197.81 197.4 198.003 196.933 198.003 196.32C198.003 195.72 197.817 195.28 197.443 195C197.07 194.72 196.503 194.573 195.743 194.56L193.623 194.54V198.16L195.743 198.18Z" fill="#2D2D2D"/>
</svg>
