<svg width="203" height="175" viewBox="0 0 203 175" fill="none" xmlns="http://www.w3.org/2000/svg">
<path d="M46.0449 87.5234V101H2.63672V89.7207C15.4948 68.6921 23.1283 55.6875 25.5371 50.707C27.9785 45.694 29.1992 41.7878 29.1992 38.9883C29.1992 36.8398 28.8249 35.2448 28.0762 34.2031C27.36 33.1289 26.2533 32.5918 24.7559 32.5918C23.2585 32.5918 22.1354 33.1777 21.3867 34.3496C20.6706 35.5215 20.3125 37.849 20.3125 41.332V48.8516H2.63672V45.9707C2.63672 41.5436 2.86458 38.0605 3.32031 35.5215C3.77604 32.9499 4.89909 30.4271 6.68945 27.9531C8.47982 25.4792 10.8073 23.6074 13.6719 22.3379C16.5365 21.0684 19.9707 20.4336 23.9746 20.4336C31.8197 20.4336 37.7441 22.3867 41.748 26.293C45.7845 30.1667 47.8027 35.082 47.8027 41.0391C47.8027 45.5638 46.6634 50.349 44.3848 55.3945C42.1387 60.4401 35.4818 71.1497 24.4141 87.5234H46.0449Z" fill="#E9E9E9"/>
<path d="M85.4673 98.3431C84.0407 98.3431 82.754 98.0364 81.6073 97.4231C80.4607 96.7964 79.5607 95.9364 78.9073 94.8431C78.254 93.7364 77.9273 92.5031 77.9273 91.1431C77.9273 89.7831 78.254 88.5564 78.9073 87.4631C79.5607 86.3564 80.4607 85.4964 81.6073 84.8831C82.754 84.2564 84.0407 83.9431 85.4673 83.9431C86.894 83.9431 88.1807 84.2564 89.3273 84.8831C90.474 85.4964 91.374 86.3497 92.0273 87.4431C92.6807 88.5364 93.0073 89.7697 93.0073 91.1431C93.0073 92.5164 92.6807 93.7497 92.0273 94.8431C91.374 95.9364 90.474 96.7964 89.3273 97.4231C88.1807 98.0364 86.894 98.3431 85.4673 98.3431ZM85.4673 96.0631C86.4007 96.0631 87.2407 95.8564 87.9873 95.4431C88.734 95.0164 89.3207 94.4297 89.7473 93.6831C90.174 92.9231 90.3873 92.0764 90.3873 91.1431C90.3873 90.2097 90.174 89.3697 89.7473 88.6231C89.3207 87.8631 88.734 87.2764 87.9873 86.8631C87.2407 86.4364 86.4007 86.2231 85.4673 86.2231C84.534 86.2231 83.694 86.4364 82.9473 86.8631C82.2007 87.2764 81.614 87.8631 81.1873 88.6231C80.7607 89.3697 80.5473 90.2097 80.5473 91.1431C80.5473 92.0764 80.7607 92.9231 81.1873 93.6831C81.614 94.4297 82.2007 95.0164 82.9473 95.4431C83.694 95.8564 84.534 96.0631 85.4673 96.0631ZM105.842 87.4631V98.1431H103.362V89.5831H98.1019V98.1431H95.6019V87.4631H105.842ZM115.135 87.3431C116.175 87.3431 117.102 87.5697 117.915 88.0231C118.742 88.4764 119.388 89.1164 119.855 89.9431C120.322 90.7697 120.555 91.7231 120.555 92.8031C120.555 93.8831 120.322 94.8431 119.855 95.6831C119.388 96.5097 118.742 97.1497 117.915 97.6031C117.102 98.0564 116.175 98.2831 115.135 98.2831C113.695 98.2831 112.555 97.8031 111.715 96.8431V102.023H109.215V87.4631H111.595V88.8631C112.008 88.3564 112.515 87.9764 113.115 87.7231C113.728 87.4697 114.402 87.3431 115.135 87.3431ZM114.855 96.1431C115.775 96.1431 116.528 95.8364 117.115 95.2231C117.715 94.6097 118.015 93.8031 118.015 92.8031C118.015 91.8031 117.715 90.9964 117.115 90.3831C116.528 89.7697 115.775 89.4631 114.855 89.4631C114.255 89.4631 113.715 89.6031 113.235 89.8831C112.755 90.1497 112.375 90.5364 112.095 91.0431C111.815 91.5497 111.675 92.1364 111.675 92.8031C111.675 93.4697 111.815 94.0564 112.095 94.5631C112.375 95.0697 112.755 95.4631 113.235 95.7431C113.715 96.0097 114.255 96.1431 114.855 96.1431ZM133.043 92.8631C133.043 93.0364 133.03 93.2831 133.003 93.6031H124.623C124.77 94.3897 125.15 95.0164 125.763 95.4831C126.39 95.9364 127.163 96.1631 128.083 96.1631C129.257 96.1631 130.223 95.7764 130.983 95.0031L132.323 96.5431C131.843 97.1164 131.237 97.5497 130.503 97.8431C129.77 98.1364 128.943 98.2831 128.023 98.2831C126.85 98.2831 125.817 98.0497 124.923 97.5831C124.03 97.1164 123.337 96.4697 122.843 95.6431C122.363 94.8031 122.123 93.8564 122.123 92.8031C122.123 91.7631 122.357 90.8297 122.823 90.0031C123.303 89.1631 123.963 88.5097 124.803 88.0431C125.643 87.5764 126.59 87.3431 127.643 87.3431C128.683 87.3431 129.61 87.5764 130.423 88.0431C131.25 88.4964 131.89 89.1431 132.343 89.9831C132.81 90.8097 133.043 91.7697 133.043 92.8631ZM127.643 89.3431C126.843 89.3431 126.163 89.5831 125.603 90.0631C125.057 90.5297 124.723 91.1564 124.603 91.9431H130.663C130.557 91.1697 130.23 90.5431 129.683 90.0631C129.137 89.5831 128.457 89.3431 127.643 89.3431ZM147.041 96.0231V100.523H144.701V98.1431H136.461V100.523H134.141V96.0231H134.641C135.321 95.9964 135.781 95.5631 136.021 94.7231C136.274 93.8697 136.441 92.6697 136.521 91.1231L136.661 87.4631H145.461V96.0231H147.041ZM138.801 91.3031C138.748 92.5297 138.648 93.5297 138.501 94.3031C138.354 95.0764 138.088 95.6497 137.701 96.0231H142.961V89.5831H138.861L138.801 91.3031ZM159.274 92.8631C159.274 93.0364 159.26 93.2831 159.234 93.6031H150.854C151 94.3897 151.38 95.0164 151.994 95.4831C152.62 95.9364 153.394 96.1631 154.314 96.1631C155.487 96.1631 156.454 95.7764 157.214 95.0031L158.554 96.5431C158.074 97.1164 157.467 97.5497 156.734 97.8431C156 98.1364 155.174 98.2831 154.254 98.2831C153.08 98.2831 152.047 98.0497 151.154 97.5831C150.26 97.1164 149.567 96.4697 149.074 95.6431C148.594 94.8031 148.354 93.8564 148.354 92.8031C148.354 91.7631 148.587 90.8297 149.054 90.0031C149.534 89.1631 150.194 88.5097 151.034 88.0431C151.874 87.5764 152.82 87.3431 153.874 87.3431C154.914 87.3431 155.84 87.5764 156.654 88.0431C157.48 88.4964 158.12 89.1431 158.574 89.9831C159.04 90.8097 159.274 91.7697 159.274 92.8631ZM153.874 89.3431C153.074 89.3431 152.394 89.5831 151.834 90.0631C151.287 90.5297 150.954 91.1564 150.834 91.9431H156.894C156.787 91.1697 156.46 90.5431 155.914 90.0631C155.367 89.5831 154.687 89.3431 153.874 89.3431ZM171.551 87.4631V98.1431H169.051V89.5831H165.051L164.951 91.7031C164.885 93.1164 164.751 94.3031 164.551 95.2631C164.365 96.2097 164.038 96.9631 163.571 97.5231C163.118 98.0697 162.491 98.3431 161.691 98.3431C161.318 98.3431 160.858 98.2697 160.311 98.1231L160.431 96.0231C160.618 96.0631 160.778 96.0831 160.911 96.0831C161.418 96.0831 161.798 95.8831 162.051 95.4831C162.305 95.0697 162.465 94.5831 162.531 94.0231C162.611 93.4497 162.678 92.6364 162.731 91.5831L162.911 87.4631H171.551ZM184.918 92.8631C184.918 93.0364 184.905 93.2831 184.878 93.6031H176.498C176.645 94.3897 177.025 95.0164 177.638 95.4831C178.265 95.9364 179.038 96.1631 179.958 96.1631C181.132 96.1631 182.098 95.7764 182.858 95.0031L184.198 96.5431C183.718 97.1164 183.112 97.5497 182.378 97.8431C181.645 98.1364 180.818 98.2831 179.898 98.2831C178.725 98.2831 177.692 98.0497 176.798 97.5831C175.905 97.1164 175.212 96.4697 174.718 95.6431C174.238 94.8031 173.998 93.8564 173.998 92.8031C173.998 91.7631 174.232 90.8297 174.698 90.0031C175.178 89.1631 175.838 88.5097 176.678 88.0431C177.518 87.5764 178.465 87.3431 179.518 87.3431C180.558 87.3431 181.485 87.5764 182.298 88.0431C183.125 88.4964 183.765 89.1431 184.218 89.9831C184.685 90.8097 184.918 91.7697 184.918 92.8631ZM179.518 89.3431C178.718 89.3431 178.038 89.5831 177.478 90.0631C176.932 90.5297 176.598 91.1564 176.478 91.9431H182.538C182.432 91.1697 182.105 90.5431 181.558 90.0631C181.012 89.5831 180.332 89.3431 179.518 89.3431ZM76.9007 111.463H79.4007V115.803H84.7807V111.463H87.2807V122.143H84.7807V117.923H79.4007V122.143H76.9007V111.463ZM90.6312 111.463H93.1312V118.503L99.0312 111.463H101.311V122.143H98.8112V115.103L92.9312 122.143H90.6312V111.463ZM114.674 116.863C114.674 117.036 114.661 117.283 114.634 117.603H106.254C106.401 118.39 106.781 119.016 107.394 119.483C108.021 119.936 108.794 120.163 109.714 120.163C110.887 120.163 111.854 119.776 112.614 119.003L113.954 120.543C113.474 121.116 112.867 121.55 112.134 121.843C111.401 122.136 110.574 122.283 109.654 122.283C108.481 122.283 107.447 122.05 106.554 121.583C105.661 121.116 104.967 120.47 104.474 119.643C103.994 118.803 103.754 117.856 103.754 116.803C103.754 115.763 103.987 114.83 104.454 114.003C104.934 113.163 105.594 112.51 106.434 112.043C107.274 111.576 108.221 111.343 109.274 111.343C110.314 111.343 111.241 111.576 112.054 112.043C112.881 112.496 113.521 113.143 113.974 113.983C114.441 114.81 114.674 115.77 114.674 116.863ZM109.274 113.343C108.474 113.343 107.794 113.583 107.234 114.063C106.687 114.53 106.354 115.156 106.234 115.943H112.294C112.187 115.17 111.861 114.543 111.314 114.063C110.767 113.583 110.087 113.343 109.274 113.343ZM129.316 116.583C129.983 116.77 130.496 117.076 130.856 117.503C131.229 117.916 131.416 118.416 131.416 119.003C131.416 119.656 131.196 120.236 130.756 120.743C130.316 121.236 129.709 121.623 128.936 121.903C128.163 122.183 127.283 122.323 126.296 122.323C125.469 122.323 124.663 122.23 123.876 122.043C123.089 121.843 122.376 121.563 121.736 121.203L122.456 119.343C122.976 119.636 123.563 119.863 124.216 120.023C124.869 120.183 125.523 120.263 126.176 120.263C127.016 120.263 127.669 120.136 128.136 119.883C128.616 119.616 128.856 119.256 128.856 118.803C128.856 118.39 128.669 118.07 128.296 117.843C127.936 117.616 127.423 117.503 126.756 117.503H124.676V115.823H126.556C127.183 115.823 127.669 115.716 128.016 115.503C128.376 115.29 128.556 114.99 128.556 114.603C128.556 114.216 128.343 113.91 127.916 113.683C127.489 113.456 126.903 113.343 126.156 113.343C125.089 113.343 123.963 113.603 122.776 114.123L122.136 112.283C123.536 111.63 124.949 111.303 126.376 111.303C127.283 111.303 128.096 111.43 128.816 111.683C129.536 111.923 130.096 112.27 130.496 112.723C130.909 113.163 131.116 113.67 131.116 114.243C131.116 114.763 130.956 115.23 130.636 115.643C130.316 116.043 129.876 116.356 129.316 116.583ZM137.99 111.343C139.563 111.343 140.763 111.723 141.59 112.483C142.43 113.23 142.85 114.363 142.85 115.883V122.143H140.49V120.843C140.183 121.31 139.743 121.67 139.17 121.923C138.61 122.163 137.93 122.283 137.13 122.283C136.33 122.283 135.63 122.15 135.03 121.883C134.43 121.603 133.963 121.223 133.63 120.743C133.31 120.25 133.15 119.696 133.15 119.083C133.15 118.123 133.503 117.356 134.21 116.783C134.93 116.196 136.057 115.903 137.59 115.903H140.35V115.743C140.35 114.996 140.123 114.423 139.67 114.023C139.23 113.623 138.57 113.423 137.69 113.423C137.09 113.423 136.497 113.516 135.91 113.703C135.337 113.89 134.85 114.15 134.45 114.483L133.47 112.663C134.03 112.236 134.703 111.91 135.49 111.683C136.277 111.456 137.11 111.343 137.99 111.343ZM137.65 120.463C138.277 120.463 138.83 120.323 139.31 120.043C139.803 119.75 140.15 119.336 140.35 118.803V117.563H137.77C136.33 117.563 135.61 118.036 135.61 118.983C135.61 119.436 135.79 119.796 136.15 120.063C136.51 120.33 137.01 120.463 137.65 120.463ZM157.344 120.023V124.523H155.004V122.143H146.764V124.523H144.444V120.023H144.944C145.624 119.996 146.084 119.563 146.324 118.723C146.577 117.87 146.744 116.67 146.824 115.123L146.964 111.463H155.764V120.023H157.344ZM149.104 115.303C149.05 116.53 148.95 117.53 148.804 118.303C148.657 119.076 148.39 119.65 148.004 120.023H153.264V113.583H149.164L149.104 115.303ZM163.556 111.343C165.13 111.343 166.33 111.723 167.156 112.483C167.996 113.23 168.416 114.363 168.416 115.883V122.143H166.056V120.843C165.75 121.31 165.31 121.67 164.736 121.923C164.176 122.163 163.496 122.283 162.696 122.283C161.896 122.283 161.196 122.15 160.596 121.883C159.996 121.603 159.53 121.223 159.196 120.743C158.876 120.25 158.716 119.696 158.716 119.083C158.716 118.123 159.07 117.356 159.776 116.783C160.496 116.196 161.623 115.903 163.156 115.903H165.916V115.743C165.916 114.996 165.69 114.423 165.236 114.023C164.796 113.623 164.136 113.423 163.256 113.423C162.656 113.423 162.063 113.516 161.476 113.703C160.903 113.89 160.416 114.15 160.016 114.483L159.036 112.663C159.596 112.236 160.27 111.91 161.056 111.683C161.843 111.456 162.676 111.343 163.556 111.343ZM163.216 120.463C163.843 120.463 164.396 120.323 164.876 120.043C165.37 119.75 165.716 119.336 165.916 118.803V117.563H163.336C161.896 117.563 161.176 118.036 161.176 118.983C161.176 119.436 161.356 119.796 161.716 120.063C162.076 120.33 162.576 120.463 163.216 120.463ZM180.57 111.463V122.143H178.07V118.003C177.043 118.496 175.97 118.743 174.85 118.743C173.477 118.743 172.423 118.43 171.69 117.803C170.957 117.163 170.59 116.19 170.59 114.883V111.463H173.09V114.723C173.09 115.403 173.29 115.91 173.69 116.243C174.09 116.576 174.657 116.743 175.39 116.743C176.323 116.743 177.217 116.543 178.07 116.143V111.463H180.57ZM83.4632 135.463H85.9632V142.503L91.8632 135.463H94.1432V146.143H91.6432V139.103L85.7632 146.143H83.4632V135.463ZM107.794 146.283C106.714 146.283 105.74 146.05 104.874 145.583C104.007 145.116 103.327 144.47 102.834 143.643C102.354 142.803 102.114 141.856 102.114 140.803C102.114 139.75 102.354 138.81 102.834 137.983C103.327 137.156 104.007 136.51 104.874 136.043C105.74 135.576 106.714 135.343 107.794 135.343C108.887 135.343 109.867 135.576 110.734 136.043C111.6 136.51 112.274 137.156 112.754 137.983C113.247 138.81 113.494 139.75 113.494 140.803C113.494 141.856 113.247 142.803 112.754 143.643C112.274 144.47 111.6 145.116 110.734 145.583C109.867 146.05 108.887 146.283 107.794 146.283ZM107.794 144.143C108.714 144.143 109.474 143.836 110.074 143.223C110.674 142.61 110.974 141.803 110.974 140.803C110.974 139.803 110.674 138.996 110.074 138.383C109.474 137.77 108.714 137.463 107.794 137.463C106.874 137.463 106.114 137.77 105.514 138.383C104.927 138.996 104.634 139.803 104.634 140.803C104.634 141.803 104.927 142.61 105.514 143.223C106.114 143.836 106.874 144.143 107.794 144.143ZM121.743 135.983C122.757 135.983 123.65 136.203 124.423 136.643C125.197 137.07 125.797 137.67 126.223 138.443C126.663 139.216 126.883 140.103 126.883 141.103C126.883 142.13 126.643 143.043 126.163 143.843C125.683 144.63 125.01 145.243 124.143 145.683C123.277 146.123 122.29 146.343 121.183 146.343C119.33 146.343 117.897 145.73 116.883 144.503C115.87 143.276 115.363 141.51 115.363 139.203C115.363 137.056 115.823 135.356 116.743 134.103C117.663 132.85 119.07 132.023 120.963 131.623L125.923 130.563L126.283 132.803L121.783 133.723C120.49 133.99 119.523 134.443 118.883 135.083C118.243 135.723 117.87 136.623 117.763 137.783C118.243 137.21 118.823 136.77 119.503 136.463C120.183 136.143 120.93 135.983 121.743 135.983ZM121.243 144.323C122.163 144.323 122.903 144.03 123.463 143.443C124.037 142.843 124.323 142.083 124.323 141.163C124.323 140.243 124.037 139.503 123.463 138.943C122.903 138.383 122.163 138.103 121.243 138.103C120.31 138.103 119.557 138.383 118.983 138.943C118.41 139.503 118.123 140.243 118.123 141.163C118.123 142.096 118.41 142.856 118.983 143.443C119.57 144.03 120.323 144.323 121.243 144.323ZM135.752 138.963C137.086 138.963 138.112 139.276 138.832 139.903C139.552 140.516 139.912 141.376 139.912 142.483C139.912 143.643 139.512 144.543 138.712 145.183C137.912 145.823 136.792 146.143 135.352 146.143H130.532V137.583H127.372V135.463H133.032V138.963H135.752ZM135.232 144.303C135.939 144.303 136.472 144.143 136.832 143.823C137.192 143.503 137.372 143.036 137.372 142.423C137.372 141.276 136.659 140.703 135.232 140.703H133.032V144.303H135.232ZM152.116 140.863C152.116 141.036 152.102 141.283 152.076 141.603H143.696C143.842 142.39 144.222 143.016 144.836 143.483C145.462 143.936 146.236 144.163 147.156 144.163C148.329 144.163 149.296 143.776 150.056 143.003L151.396 144.543C150.916 145.116 150.309 145.55 149.576 145.843C148.842 146.136 148.016 146.283 147.096 146.283C145.922 146.283 144.889 146.05 143.996 145.583C143.102 145.116 142.409 144.47 141.916 143.643C141.436 142.803 141.196 141.856 141.196 140.803C141.196 139.763 141.429 138.83 141.896 138.003C142.376 137.163 143.036 136.51 143.876 136.043C144.716 135.576 145.662 135.343 146.716 135.343C147.756 135.343 148.682 135.576 149.496 136.043C150.322 136.496 150.962 137.143 151.416 137.983C151.882 138.81 152.116 139.77 152.116 140.863ZM146.716 137.343C145.916 137.343 145.236 137.583 144.676 138.063C144.129 138.53 143.796 139.156 143.676 139.943H149.736C149.629 139.17 149.302 138.543 148.756 138.063C148.209 137.583 147.529 137.343 146.716 137.343ZM165.35 146.143V139.063L161.75 145.023H160.67L157.13 139.043V146.143H154.85V135.463H157.47L161.27 142.143L165.25 135.463H167.59L167.61 146.143H165.35ZM174.943 135.343C176.517 135.343 177.717 135.723 178.543 136.483C179.383 137.23 179.803 138.363 179.803 139.883V146.143H177.443V144.843C177.137 145.31 176.697 145.67 176.123 145.923C175.563 146.163 174.883 146.283 174.083 146.283C173.283 146.283 172.583 146.15 171.983 145.883C171.383 145.603 170.917 145.223 170.583 144.743C170.263 144.25 170.103 143.696 170.103 143.083C170.103 142.123 170.457 141.356 171.163 140.783C171.883 140.196 173.01 139.903 174.543 139.903H177.303V139.743C177.303 138.996 177.077 138.423 176.623 138.023C176.183 137.623 175.523 137.423 174.643 137.423C174.043 137.423 173.45 137.516 172.863 137.703C172.29 137.89 171.803 138.15 171.403 138.483L170.423 136.663C170.983 136.236 171.657 135.91 172.443 135.683C173.23 135.456 174.063 135.343 174.943 135.343ZM174.603 144.463C175.23 144.463 175.783 144.323 176.263 144.043C176.757 143.75 177.103 143.336 177.303 142.803V141.563H174.723C173.283 141.563 172.563 142.036 172.563 142.983C172.563 143.436 172.743 143.796 173.103 144.063C173.463 144.33 173.963 144.463 174.603 144.463ZM104.57 164.583C105.236 164.77 105.75 165.076 106.11 165.503C106.483 165.916 106.67 166.416 106.67 167.003C106.67 167.656 106.45 168.236 106.01 168.743C105.57 169.236 104.963 169.623 104.19 169.903C103.416 170.183 102.536 170.323 101.55 170.323C100.723 170.323 99.9164 170.23 99.1298 170.043C98.3431 169.843 97.6298 169.563 96.9898 169.203L97.7098 167.343C98.2298 167.636 98.8164 167.863 99.4698 168.023C100.123 168.183 100.776 168.263 101.43 168.263C102.27 168.263 102.923 168.136 103.39 167.883C103.87 167.616 104.11 167.256 104.11 166.803C104.11 166.39 103.923 166.07 103.55 165.843C103.19 165.616 102.676 165.503 102.01 165.503H99.9298V163.823H101.81C102.436 163.823 102.923 163.716 103.27 163.503C103.63 163.29 103.81 162.99 103.81 162.603C103.81 162.216 103.596 161.91 103.17 161.683C102.743 161.456 102.156 161.343 101.41 161.343C100.343 161.343 99.2164 161.603 98.0298 162.123L97.3898 160.283C98.7898 159.63 100.203 159.303 101.63 159.303C102.536 159.303 103.35 159.43 104.07 159.683C104.79 159.923 105.35 160.27 105.75 160.723C106.163 161.163 106.37 161.67 106.37 162.243C106.37 162.763 106.21 163.23 105.89 163.643C105.57 164.043 105.13 164.356 104.57 164.583ZM113.244 159.343C114.817 159.343 116.017 159.723 116.844 160.483C117.684 161.23 118.104 162.363 118.104 163.883V170.143H115.744V168.843C115.437 169.31 114.997 169.67 114.424 169.923C113.864 170.163 113.184 170.283 112.384 170.283C111.584 170.283 110.884 170.15 110.284 169.883C109.684 169.603 109.217 169.223 108.884 168.743C108.564 168.25 108.404 167.696 108.404 167.083C108.404 166.123 108.757 165.356 109.464 164.783C110.184 164.196 111.311 163.903 112.844 163.903H115.604V163.743C115.604 162.996 115.377 162.423 114.924 162.023C114.484 161.623 113.824 161.423 112.944 161.423C112.344 161.423 111.751 161.516 111.164 161.703C110.591 161.89 110.104 162.15 109.704 162.483L108.724 160.663C109.284 160.236 109.957 159.91 110.744 159.683C111.531 159.456 112.364 159.343 113.244 159.343ZM112.904 168.463C113.531 168.463 114.084 168.323 114.564 168.043C115.057 167.75 115.404 167.336 115.604 166.803V165.563H113.024C111.584 165.563 110.864 166.036 110.864 166.983C110.864 167.436 111.044 167.796 111.404 168.063C111.764 168.33 112.264 168.463 112.904 168.463ZM125.638 165.863H123.698V170.143H121.198V159.463H123.698V163.783H125.698L128.858 159.463H131.538L127.658 164.603L131.798 170.143H128.858L125.638 165.863ZM137.346 159.343C138.919 159.343 140.119 159.723 140.946 160.483C141.786 161.23 142.206 162.363 142.206 163.883V170.143H139.846V168.843C139.539 169.31 139.099 169.67 138.526 169.923C137.966 170.163 137.286 170.283 136.486 170.283C135.686 170.283 134.986 170.15 134.386 169.883C133.786 169.603 133.319 169.223 132.986 168.743C132.666 168.25 132.506 167.696 132.506 167.083C132.506 166.123 132.859 165.356 133.566 164.783C134.286 164.196 135.412 163.903 136.946 163.903H139.706V163.743C139.706 162.996 139.479 162.423 139.026 162.023C138.586 161.623 137.926 161.423 137.046 161.423C136.446 161.423 135.852 161.516 135.266 161.703C134.692 161.89 134.206 162.15 133.806 162.483L132.826 160.663C133.386 160.236 134.059 159.91 134.846 159.683C135.632 159.456 136.466 159.343 137.346 159.343ZM137.006 168.463C137.632 168.463 138.186 168.323 138.666 168.043C139.159 167.75 139.506 167.336 139.706 166.803V165.563H137.126C135.686 165.563 134.966 166.036 134.966 166.983C134.966 167.436 135.146 167.796 135.506 168.063C135.866 168.33 136.366 168.463 137.006 168.463ZM151.542 164.583C152.209 164.77 152.722 165.076 153.082 165.503C153.456 165.916 153.642 166.416 153.642 167.003C153.642 167.656 153.422 168.236 152.982 168.743C152.542 169.236 151.936 169.623 151.162 169.903C150.389 170.183 149.509 170.323 148.522 170.323C147.696 170.323 146.889 170.23 146.102 170.043C145.316 169.843 144.602 169.563 143.962 169.203L144.682 167.343C145.202 167.636 145.789 167.863 146.442 168.023C147.096 168.183 147.749 168.263 148.402 168.263C149.242 168.263 149.896 168.136 150.362 167.883C150.842 167.616 151.082 167.256 151.082 166.803C151.082 166.39 150.896 166.07 150.522 165.843C150.162 165.616 149.649 165.503 148.982 165.503H146.902V163.823H148.782C149.409 163.823 149.896 163.716 150.242 163.503C150.602 163.29 150.782 162.99 150.782 162.603C150.782 162.216 150.569 161.91 150.142 161.683C149.716 161.456 149.129 161.343 148.382 161.343C147.316 161.343 146.189 161.603 145.002 162.123L144.362 160.283C145.762 159.63 147.176 159.303 148.602 159.303C149.509 159.303 150.322 159.43 151.042 159.683C151.762 159.923 152.322 160.27 152.722 160.723C153.136 161.163 153.342 161.67 153.342 162.243C153.342 162.763 153.182 163.23 152.862 163.643C152.542 164.043 152.102 164.356 151.542 164.583ZM160.217 159.343C161.79 159.343 162.99 159.723 163.817 160.483C164.657 161.23 165.077 162.363 165.077 163.883V170.143H162.717V168.843C162.41 169.31 161.97 169.67 161.397 169.923C160.837 170.163 160.157 170.283 159.357 170.283C158.557 170.283 157.857 170.15 157.257 169.883C156.657 169.603 156.19 169.223 155.857 168.743C155.537 168.25 155.377 167.696 155.377 167.083C155.377 166.123 155.73 165.356 156.437 164.783C157.157 164.196 158.283 163.903 159.817 163.903H162.577V163.743C162.577 162.996 162.35 162.423 161.897 162.023C161.457 161.623 160.797 161.423 159.917 161.423C159.317 161.423 158.723 161.516 158.137 161.703C157.563 161.89 157.077 162.15 156.677 162.483L155.697 160.663C156.257 160.236 156.93 159.91 157.717 159.683C158.503 159.456 159.337 159.343 160.217 159.343ZM159.877 168.463C160.503 168.463 161.057 168.323 161.537 168.043C162.03 167.75 162.377 167.336 162.577 166.803V165.563H159.997C158.557 165.563 157.837 166.036 157.837 166.983C157.837 167.436 158.017 167.796 158.377 168.063C158.737 168.33 159.237 168.463 159.877 168.463Z" fill="#2D2D2D"/>
<circle cx="130.857" cy="49" r="25" fill="#EC7F00"/>
<path fill-rule="evenodd" clip-rule="evenodd" d="M120.147 34.5441C119.498 34.7207 118.989 35.2432 118.818 35.9084C118.768 36.1035 118.761 37.7638 118.761 49.4026C118.761 64.0295 118.741 62.8706 118.997 63.3561C119.139 63.626 119.48 63.9654 119.745 64.1013C120.204 64.3369 119.61 64.3224 128.808 64.3224H137.213L140.89 60.6021L144.567 56.8818V46.5063C144.567 35.1806 144.582 35.9444 144.351 35.4846C144.214 35.2107 143.881 34.8668 143.612 34.7217C143.133 34.4636 144.089 34.4824 131.646 34.4853C121.912 34.4875 120.326 34.4956 120.147 34.5441ZM142.723 45.6726V54.9975H139.851C136.733 54.9975 136.77 54.9952 136.34 55.2154C136.07 55.3542 135.73 55.6916 135.586 55.9638C135.346 56.4199 135.35 56.3576 135.35 59.5516V62.4574H127.977H120.604V49.4026V36.3477H131.664H142.723V45.6726ZM123.034 40.1419C122.725 40.2524 122.447 40.6642 122.447 41.0102C122.447 41.3694 122.755 41.7968 123.085 41.8954C123.315 41.9641 140.012 41.9641 140.242 41.8954C140.453 41.8323 140.771 41.5105 140.833 41.2971C140.934 40.9528 140.867 40.6625 140.623 40.388C140.32 40.0479 141.179 40.0773 131.647 40.0807C124.248 40.0834 123.176 40.091 123.034 40.1419ZM123.034 45.7369C122.725 45.8474 122.447 46.2591 122.447 46.6051C122.447 46.9643 122.755 47.3917 123.085 47.4903C123.315 47.5591 140.012 47.5591 140.242 47.4903C140.453 47.4273 140.771 47.1054 140.833 46.892C140.934 46.5478 140.867 46.2574 140.623 45.983C140.32 45.6428 141.179 45.6722 131.647 45.6757C124.248 45.6784 123.176 45.686 123.034 45.7369ZM123.034 51.3318C122.725 51.4423 122.447 51.8541 122.447 52.2C122.447 52.5592 122.755 52.9866 123.085 53.0853C123.315 53.154 140.012 53.154 140.242 53.0853C140.453 53.0222 140.771 52.7004 140.833 52.4869C140.934 52.1427 140.867 51.8524 140.623 51.5779C140.32 51.2378 141.179 51.2672 131.647 51.2706C124.248 51.2733 123.176 51.2809 123.034 51.3318ZM141.955 56.8723C141.955 56.8777 140.884 57.9661 139.574 59.2909L137.193 61.6996V59.281V56.8625H139.574C140.884 56.8625 141.955 56.8669 141.955 56.8723Z" fill="white"/>
</svg>
