<svg width="202" height="174" viewBox="0 0 202 174" fill="none" xmlns="http://www.w3.org/2000/svg">
<path d="M40.5762 56.2246C43.571 57.2337 45.8008 58.8939 47.2656 61.2051C48.7305 63.4837 49.4629 68.8548 49.4629 77.3184C49.4629 83.6009 48.7467 88.4837 47.3145 91.9668C45.8822 95.4173 43.4082 98.054 39.8926 99.877C36.377 101.667 31.8685 102.562 26.3672 102.562C20.1172 102.562 15.2018 101.521 11.6211 99.4375C8.07292 97.3216 5.72917 94.75 4.58984 91.7227C3.48307 88.6628 2.92969 83.373 2.92969 75.8535V69.6035H22.6562V82.4453C22.6562 85.8633 22.8516 88.0443 23.2422 88.9883C23.6654 89.8997 24.5768 90.3555 25.9766 90.3555C27.5065 90.3555 28.5156 89.7695 29.0039 88.5977C29.4922 87.4258 29.7363 84.3659 29.7363 79.418V73.9492C29.7363 70.9219 29.3945 68.7083 28.7109 67.3086C28.0273 65.9089 27.0182 64.9974 25.6836 64.5742C24.349 64.1185 21.7611 63.8581 17.9199 63.793V52.3184C22.6074 52.3184 25.5046 52.1393 26.6113 51.7812C27.7181 51.4232 28.5156 50.6419 29.0039 49.4375C29.4922 48.2331 29.7363 46.3451 29.7363 43.7734V39.3789C29.7363 36.612 29.4434 34.7891 28.8574 33.9102C28.304 33.0312 27.4251 32.5918 26.2207 32.5918C24.8535 32.5918 23.9095 33.0638 23.3887 34.0078C22.9004 34.9193 22.6562 36.8887 22.6562 39.916V46.4102H2.92969V39.6719C2.92969 32.1198 4.65495 27.0254 8.10547 24.3887C11.556 21.7194 17.041 20.3848 24.5605 20.3848C33.9681 20.3848 40.3483 22.224 43.7012 25.9023C47.054 29.5807 48.7305 34.6914 48.7305 41.2344C48.7305 45.6615 48.1283 48.8678 46.9238 50.8535C45.7194 52.8066 43.6035 54.597 40.5762 56.2246Z" fill="#E9E9E9"/>
<path d="M94.6109 97.2C93.1976 97.2 91.9176 96.8933 90.7709 96.28C89.6376 95.6533 88.7443 94.7933 88.0909 93.7C87.4509 92.6067 87.1309 91.3733 87.1309 90C87.1309 88.6267 87.4576 87.3933 88.1109 86.3C88.7643 85.2067 89.6576 84.3533 90.7909 83.74C91.9376 83.1133 93.2176 82.8 94.6309 82.8C95.7776 82.8 96.8243 83 97.7709 83.4C98.7176 83.8 99.5176 84.38 100.171 85.14L98.4909 86.72C97.4776 85.6267 96.2309 85.08 94.7509 85.08C93.7909 85.08 92.9309 85.2933 92.1709 85.72C91.4109 86.1333 90.8176 86.7133 90.3909 87.46C89.9643 88.2067 89.7509 89.0533 89.7509 90C89.7509 90.9467 89.9643 91.7933 90.3909 92.54C90.8176 93.2867 91.4109 93.8733 92.1709 94.3C92.9309 94.7133 93.7909 94.92 94.7509 94.92C96.2309 94.92 97.4776 94.3667 98.4909 93.26L100.171 94.86C99.5176 95.62 98.7109 96.2 97.7509 96.6C96.8043 97 95.7576 97.2 94.6109 97.2ZM102.305 86.32H104.805V90.66H110.185V86.32H112.685V97H110.185V92.78H104.805V97H102.305V86.32ZM125.055 86.32V97H122.815V93.78H119.995L117.815 97H115.135L117.655 93.44C116.882 93.1733 116.289 92.7667 115.875 92.22C115.475 91.66 115.275 90.9733 115.275 90.16C115.275 88.9333 115.709 87.9867 116.575 87.32C117.442 86.6533 118.635 86.32 120.155 86.32H125.055ZM120.235 88.42C118.622 88.42 117.815 89.0267 117.815 90.24C117.815 91.44 118.595 92.04 120.155 92.04H122.815V88.42H120.235ZM136.878 88.44H133.138V97H130.638V88.44H126.878V86.32H136.878V88.44ZM138.692 86.32H141.192V93.36L147.092 86.32H149.372V97H146.872V89.96L140.992 97H138.692V86.32ZM162.735 91.72C162.735 91.8933 162.721 92.14 162.695 92.46H154.315C154.461 93.2467 154.841 93.8733 155.455 94.34C156.081 94.7933 156.855 95.02 157.775 95.02C158.948 95.02 159.915 94.6333 160.675 93.86L162.015 95.4C161.535 95.9733 160.928 96.4067 160.195 96.7C159.461 96.9933 158.635 97.14 157.715 97.14C156.541 97.14 155.508 96.9067 154.615 96.44C153.721 95.9733 153.028 95.3267 152.535 94.5C152.055 93.66 151.815 92.7133 151.815 91.66C151.815 90.62 152.048 89.6867 152.515 88.86C152.995 88.02 153.655 87.3667 154.495 86.9C155.335 86.4333 156.281 86.2 157.335 86.2C158.375 86.2 159.301 86.4333 160.115 86.9C160.941 87.3533 161.581 88 162.035 88.84C162.501 89.6667 162.735 90.6267 162.735 91.72ZM157.335 88.2C156.535 88.2 155.855 88.44 155.295 88.92C154.748 89.3867 154.415 90.0133 154.295 90.8H160.355C160.248 90.0267 159.921 89.4 159.375 88.92C158.828 88.44 158.148 88.2 157.335 88.2ZM84.7983 115.44C85.4649 115.627 85.9783 115.933 86.3383 116.36C86.7116 116.773 86.8983 117.273 86.8983 117.86C86.8983 118.513 86.6783 119.093 86.2383 119.6C85.7983 120.093 85.1916 120.48 84.4183 120.76C83.6449 121.04 82.7649 121.18 81.7783 121.18C80.9516 121.18 80.1449 121.087 79.3583 120.9C78.5716 120.7 77.8583 120.42 77.2183 120.06L77.9383 118.2C78.4583 118.493 79.0449 118.72 79.6983 118.88C80.3516 119.04 81.0049 119.12 81.6583 119.12C82.4983 119.12 83.1516 118.993 83.6183 118.74C84.0983 118.473 84.3383 118.113 84.3383 117.66C84.3383 117.247 84.1516 116.927 83.7783 116.7C83.4183 116.473 82.9049 116.36 82.2383 116.36H80.1583V114.68H82.0383C82.6649 114.68 83.1516 114.573 83.4983 114.36C83.8583 114.147 84.0383 113.847 84.0383 113.46C84.0383 113.073 83.8249 112.767 83.3983 112.54C82.9716 112.313 82.3849 112.2 81.6383 112.2C80.5716 112.2 79.4449 112.46 78.2583 112.98L77.6183 111.14C79.0183 110.487 80.4316 110.16 81.8583 110.16C82.7649 110.16 83.5783 110.287 84.2983 110.54C85.0183 110.78 85.5783 111.127 85.9783 111.58C86.3916 112.02 86.5983 112.527 86.5983 113.1C86.5983 113.62 86.4383 114.087 86.1183 114.5C85.7983 114.9 85.3583 115.213 84.7983 115.44ZM93.4725 110.2C95.0458 110.2 96.2458 110.58 97.0725 111.34C97.9125 112.087 98.3325 113.22 98.3325 114.74V121H95.9725V119.7C95.6658 120.167 95.2258 120.527 94.6525 120.78C94.0925 121.02 93.4125 121.14 92.6125 121.14C91.8125 121.14 91.1125 121.007 90.5125 120.74C89.9125 120.46 89.4458 120.08 89.1125 119.6C88.7925 119.107 88.6325 118.553 88.6325 117.94C88.6325 116.98 88.9858 116.213 89.6925 115.64C90.4125 115.053 91.5392 114.76 93.0725 114.76H95.8325V114.6C95.8325 113.853 95.6058 113.28 95.1525 112.88C94.7125 112.48 94.0525 112.28 93.1725 112.28C92.5725 112.28 91.9792 112.373 91.3925 112.56C90.8192 112.747 90.3325 113.007 89.9325 113.34L88.9525 111.52C89.5125 111.093 90.1858 110.767 90.9725 110.54C91.7592 110.313 92.5925 110.2 93.4725 110.2ZM93.1325 119.32C93.7592 119.32 94.3125 119.18 94.7925 118.9C95.2858 118.607 95.6325 118.193 95.8325 117.66V116.42H93.2525C91.8125 116.42 91.0925 116.893 91.0925 117.84C91.0925 118.293 91.2725 118.653 91.6325 118.92C91.9925 119.187 92.4925 119.32 93.1325 119.32ZM111.926 121V113.92L108.326 119.88H107.246L103.706 113.9V121H101.426V110.32H104.046L107.846 117L111.826 110.32H114.166L114.186 121H111.926ZM127.539 115.72C127.539 115.893 127.526 116.14 127.499 116.46H119.119C119.266 117.247 119.646 117.873 120.259 118.34C120.886 118.793 121.659 119.02 122.579 119.02C123.753 119.02 124.719 118.633 125.479 117.86L126.819 119.4C126.339 119.973 125.733 120.407 124.999 120.7C124.266 120.993 123.439 121.14 122.519 121.14C121.346 121.14 120.313 120.907 119.419 120.44C118.526 119.973 117.833 119.327 117.339 118.5C116.859 117.66 116.619 116.713 116.619 115.66C116.619 114.62 116.853 113.687 117.319 112.86C117.799 112.02 118.459 111.367 119.299 110.9C120.139 110.433 121.086 110.2 122.139 110.2C123.179 110.2 124.106 110.433 124.919 110.9C125.746 111.353 126.386 112 126.839 112.84C127.306 113.667 127.539 114.627 127.539 115.72ZM122.139 112.2C121.339 112.2 120.659 112.44 120.099 112.92C119.553 113.387 119.219 114.013 119.099 114.8H125.159C125.053 114.027 124.726 113.4 124.179 112.92C123.633 112.44 122.953 112.2 122.139 112.2ZM136.194 110.2C137.234 110.2 138.16 110.427 138.974 110.88C139.8 111.333 140.447 111.973 140.914 112.8C141.38 113.627 141.614 114.58 141.614 115.66C141.614 116.74 141.38 117.7 140.914 118.54C140.447 119.367 139.8 120.007 138.974 120.46C138.16 120.913 137.234 121.14 136.194 121.14C134.754 121.14 133.614 120.66 132.774 119.7V124.88H130.274V110.32H132.654V111.72C133.067 111.213 133.574 110.833 134.174 110.58C134.787 110.327 135.46 110.2 136.194 110.2ZM135.914 119C136.834 119 137.587 118.693 138.174 118.08C138.774 117.467 139.074 116.66 139.074 115.66C139.074 114.66 138.774 113.853 138.174 113.24C137.587 112.627 136.834 112.32 135.914 112.32C135.314 112.32 134.774 112.46 134.294 112.74C133.814 113.007 133.434 113.393 133.154 113.9C132.874 114.407 132.734 114.993 132.734 115.66C132.734 116.327 132.874 116.913 133.154 117.42C133.434 117.927 133.814 118.32 134.294 118.6C134.774 118.867 135.314 119 135.914 119ZM148.862 121.14C147.782 121.14 146.809 120.907 145.942 120.44C145.075 119.973 144.395 119.327 143.902 118.5C143.422 117.66 143.182 116.713 143.182 115.66C143.182 114.607 143.422 113.667 143.902 112.84C144.395 112.013 145.075 111.367 145.942 110.9C146.809 110.433 147.782 110.2 148.862 110.2C149.955 110.2 150.935 110.433 151.802 110.9C152.669 111.367 153.342 112.013 153.822 112.84C154.315 113.667 154.562 114.607 154.562 115.66C154.562 116.713 154.315 117.66 153.822 118.5C153.342 119.327 152.669 119.973 151.802 120.44C150.935 120.907 149.955 121.14 148.862 121.14ZM148.862 119C149.782 119 150.542 118.693 151.142 118.08C151.742 117.467 152.042 116.66 152.042 115.66C152.042 114.66 151.742 113.853 151.142 113.24C150.542 112.627 149.782 112.32 148.862 112.32C147.942 112.32 147.182 112.627 146.582 113.24C145.995 113.853 145.702 114.66 145.702 115.66C145.702 116.66 145.995 117.467 146.582 118.08C147.182 118.693 147.942 119 148.862 119ZM164.772 115.44C166.092 115.84 166.752 116.693 166.752 118C166.752 118.96 166.392 119.7 165.672 120.22C164.952 120.74 163.885 121 162.472 121H157.032V110.32H162.252C163.558 110.32 164.578 110.56 165.312 111.04C166.045 111.52 166.412 112.2 166.412 113.08C166.412 113.627 166.265 114.1 165.972 114.5C165.692 114.9 165.292 115.213 164.772 115.44ZM159.412 114.78H162.032C163.325 114.78 163.972 114.333 163.972 113.44C163.972 112.573 163.325 112.14 162.032 112.14H159.412V114.78ZM162.272 119.18C163.645 119.18 164.332 118.733 164.332 117.84C164.332 117.373 164.172 117.027 163.852 116.8C163.532 116.56 163.032 116.44 162.352 116.44H159.412V119.18H162.272ZM77.3092 131V145H74.7492V133.2H67.4892V145H64.9292V131H77.3092ZM85.7369 145.14C84.6569 145.14 83.6835 144.907 82.8169 144.44C81.9502 143.973 81.2702 143.327 80.7769 142.5C80.2969 141.66 80.0569 140.713 80.0569 139.66C80.0569 138.607 80.2969 137.667 80.7769 136.84C81.2702 136.013 81.9502 135.367 82.8169 134.9C83.6835 134.433 84.6569 134.2 85.7369 134.2C86.8302 134.2 87.8102 134.433 88.6769 134.9C89.5435 135.367 90.2169 136.013 90.6969 136.84C91.1902 137.667 91.4369 138.607 91.4369 139.66C91.4369 140.713 91.1902 141.66 90.6969 142.5C90.2169 143.327 89.5435 143.973 88.6769 144.44C87.8102 144.907 86.8302 145.14 85.7369 145.14ZM85.7369 143C86.6569 143 87.4169 142.693 88.0169 142.08C88.6169 141.467 88.9169 140.66 88.9169 139.66C88.9169 138.66 88.6169 137.853 88.0169 137.24C87.4169 136.627 86.6569 136.32 85.7369 136.32C84.8169 136.32 84.0569 136.627 83.4569 137.24C82.8702 137.853 82.5769 138.66 82.5769 139.66C82.5769 140.66 82.8702 141.467 83.4569 142.08C84.0569 142.693 84.8169 143 85.7369 143ZM105.189 142.88V147.38H102.849V145H94.6094V147.38H92.2894V142.88H92.7894C93.4694 142.853 93.9294 142.42 94.1694 141.58C94.4227 140.727 94.5894 139.527 94.6694 137.98L94.8094 134.32H103.609V142.88H105.189ZM96.9494 138.16C96.896 139.387 96.796 140.387 96.6494 141.16C96.5027 141.933 96.236 142.507 95.8494 142.88H101.109V136.44H97.0094L96.9494 138.16ZM115.622 136.44H109.922V145H107.422V134.32H115.622V136.44ZM121.733 145.14C120.653 145.14 119.68 144.907 118.813 144.44C117.946 143.973 117.266 143.327 116.773 142.5C116.293 141.66 116.053 140.713 116.053 139.66C116.053 138.607 116.293 137.667 116.773 136.84C117.266 136.013 117.946 135.367 118.813 134.9C119.68 134.433 120.653 134.2 121.733 134.2C122.826 134.2 123.806 134.433 124.673 134.9C125.54 135.367 126.213 136.013 126.693 136.84C127.186 137.667 127.433 138.607 127.433 139.66C127.433 140.713 127.186 141.66 126.693 142.5C126.213 143.327 125.54 143.973 124.673 144.44C123.806 144.907 122.826 145.14 121.733 145.14ZM121.733 143C122.653 143 123.413 142.693 124.013 142.08C124.613 141.467 124.913 140.66 124.913 139.66C124.913 138.66 124.613 137.853 124.013 137.24C123.413 136.627 122.653 136.32 121.733 136.32C120.813 136.32 120.053 136.627 119.453 137.24C118.866 137.853 118.573 138.66 118.573 139.66C118.573 140.66 118.866 141.467 119.453 142.08C120.053 142.693 120.813 143 121.733 143ZM137.972 136.44H134.232V145H131.732V136.44H127.972V134.32H137.972V136.44ZM144.077 145.14C142.997 145.14 142.023 144.907 141.157 144.44C140.29 143.973 139.61 143.327 139.117 142.5C138.637 141.66 138.397 140.713 138.397 139.66C138.397 138.607 138.637 137.667 139.117 136.84C139.61 136.013 140.29 135.367 141.157 134.9C142.023 134.433 142.997 134.2 144.077 134.2C145.17 134.2 146.15 134.433 147.017 134.9C147.883 135.367 148.557 136.013 149.037 136.84C149.53 137.667 149.777 138.607 149.777 139.66C149.777 140.713 149.53 141.66 149.037 142.5C148.557 143.327 147.883 143.973 147.017 144.44C146.15 144.907 145.17 145.14 144.077 145.14ZM144.077 143C144.997 143 145.757 142.693 146.357 142.08C146.957 141.467 147.257 140.66 147.257 139.66C147.257 138.66 146.957 137.853 146.357 137.24C145.757 136.627 144.997 136.32 144.077 136.32C143.157 136.32 142.397 136.627 141.797 137.24C141.21 137.853 140.917 138.66 140.917 139.66C140.917 140.66 141.21 141.467 141.797 142.08C142.397 142.693 143.157 143 144.077 143ZM159.986 139.44C161.306 139.84 161.966 140.693 161.966 142C161.966 142.96 161.606 143.7 160.886 144.22C160.166 144.74 159.1 145 157.686 145H152.246V134.32H157.466C158.773 134.32 159.793 134.56 160.526 135.04C161.26 135.52 161.626 136.2 161.626 137.08C161.626 137.627 161.48 138.1 161.186 138.5C160.906 138.9 160.506 139.213 159.986 139.44ZM154.626 138.78H157.246C158.54 138.78 159.186 138.333 159.186 137.44C159.186 136.573 158.54 136.14 157.246 136.14H154.626V138.78ZM157.486 143.18C158.86 143.18 159.546 142.733 159.546 141.84C159.546 141.373 159.386 141.027 159.066 140.8C158.746 140.56 158.246 140.44 157.566 140.44H154.626V143.18H157.486ZM169.069 140.72H167.129V145H164.629V134.32H167.129V138.64H169.129L172.289 134.32H174.969L171.089 139.46L175.229 145H172.289L169.069 140.72ZM180.777 134.2C182.351 134.2 183.551 134.58 184.377 135.34C185.217 136.087 185.637 137.22 185.637 138.74V145H183.277V143.7C182.971 144.167 182.531 144.527 181.957 144.78C181.397 145.02 180.717 145.14 179.917 145.14C179.117 145.14 178.417 145.007 177.817 144.74C177.217 144.46 176.751 144.08 176.417 143.6C176.097 143.107 175.937 142.553 175.937 141.94C175.937 140.98 176.291 140.213 176.997 139.64C177.717 139.053 178.844 138.76 180.377 138.76H183.137V138.6C183.137 137.853 182.911 137.28 182.457 136.88C182.017 136.48 181.357 136.28 180.477 136.28C179.877 136.28 179.284 136.373 178.697 136.56C178.124 136.747 177.637 137.007 177.237 137.34L176.257 135.52C176.817 135.093 177.491 134.767 178.277 134.54C179.064 134.313 179.897 134.2 180.777 134.2ZM180.437 143.32C181.064 143.32 181.617 143.18 182.097 142.9C182.591 142.607 182.937 142.193 183.137 141.66V140.42H180.557C179.117 140.42 178.397 140.893 178.397 141.84C178.397 142.293 178.577 142.653 178.937 142.92C179.297 143.187 179.797 143.32 180.437 143.32ZM116.964 163.1H114.364V169H111.804V155H114.364V160.86H117.044L121.064 155H123.824L119.044 161.78L124.004 169H121.064L116.964 163.1ZM138.169 155V169H135.609V157.2H128.349V169H125.789V155H138.169Z" fill="#2D2D2D"/>
<circle cx="121.857" cy="47.8569" r="25" fill="#EC7F00"/>
<path fill-rule="evenodd" clip-rule="evenodd" d="M118.86 34.9711C118.758 34.9855 118.453 35.0265 118.183 35.0624C113.615 35.667 109.628 39.2372 108.497 43.7362C108.031 45.5869 108.031 47.7119 108.497 49.5627C109.418 53.2244 112.272 56.3653 115.844 57.6482C116.559 57.905 117.471 58.1374 118.213 58.2522C118.955 58.3669 138.18 58.3717 138.556 58.2573C138.876 58.1602 139.289 57.808 139.463 57.4833C139.592 57.243 139.599 57.1556 139.599 55.8799C139.599 54.6686 139.587 54.5061 139.48 54.2912C139.328 53.9859 139.038 53.6968 138.732 53.5454C138.391 53.3772 137.717 53.3851 137.384 53.5614C136.876 53.8294 136.557 54.3504 136.554 54.9139L136.553 55.2359H134.091H131.629V50.4785C131.629 45.3223 131.615 45.0355 131.281 43.7668C130.722 41.6408 129.724 39.9008 128.186 38.3673C126.417 36.605 124.203 35.4731 121.752 35.0793C121.214 34.9928 119.231 34.9186 118.86 34.9711ZM121.537 38.8283C124.404 39.4663 126.701 41.5685 127.561 44.3412C127.989 45.7233 127.989 47.5755 127.561 48.9577C126.92 51.0266 125.453 52.7685 123.529 53.7471C122.381 54.3312 121.502 54.556 120.178 54.6044C117.822 54.6905 115.78 53.8693 114.133 52.174C113.034 51.0428 112.358 49.7674 112.018 48.1827C111.861 47.4548 111.861 45.8441 112.018 45.1161C112.358 43.5315 113.034 42.2561 114.133 41.1249C115.341 39.8808 116.878 39.058 118.527 38.7717C119.21 38.6531 120.891 38.6847 121.537 38.8283ZM130.377 39.3663C130.402 39.4085 130.545 39.6223 130.693 39.8416C131.053 40.3733 131.689 41.689 131.953 42.4482C132.141 42.9897 132.308 43.6204 132.474 44.4108C132.523 44.6422 132.54 44.6573 132.77 44.6761C133.422 44.7294 133.952 44.4422 134.095 43.9594C134.137 43.8154 134.153 43.0594 134.141 41.83L134.122 39.9239L133.945 39.6922C133.652 39.3105 133.543 39.2896 131.843 39.2896C130.649 39.2896 130.34 39.3058 130.377 39.3663ZM119.014 40.5535C117.591 40.8097 116.547 41.3325 115.596 42.2642C114.733 43.1094 114.216 43.9898 113.891 45.1667C113.703 45.8489 113.703 47.45 113.891 48.1321C114.216 49.309 114.733 50.1895 115.596 51.0347C116.752 52.1668 118.002 52.6984 119.66 52.7619C120.693 52.8016 121.397 52.6818 122.255 52.3199C125.834 50.8102 127.161 46.4514 125.017 43.2487C124.388 42.3102 123.547 41.5897 122.503 41.0971C121.622 40.6812 121.116 40.5667 120.06 40.5445C119.569 40.5342 119.098 40.5382 119.014 40.5535Z" fill="white"/>
</svg>
