<svg width="216" height="200" viewBox="0 0 216 200" fill="none" xmlns="http://www.w3.org/2000/svg">
<path d="M43.75 21.9473V73.6074H49.3652V87.084H43.75V101H24.0234V87.084H0.585938V73.6074L17.627 21.9473H43.75ZM24.0234 73.6074V39.9648L15.332 73.6074H24.0234Z" fill="#E9E9E9"/>
<path d="M80.304 85C81.5173 85 82.5707 85.2 83.464 85.6C84.3707 86 85.064 86.5733 85.544 87.32C86.024 88.0667 86.264 88.9533 86.264 89.98C86.264 90.9933 86.024 91.88 85.544 92.64C85.064 93.3867 84.3707 93.96 83.464 94.36C82.5707 94.76 81.5173 94.96 80.304 94.96H77.144V99H74.544V85H80.304ZM80.184 92.76C81.3173 92.76 82.1773 92.52 82.764 92.04C83.3507 91.56 83.644 90.8733 83.644 89.98C83.644 89.0867 83.3507 88.4 82.764 87.92C82.1773 87.44 81.3173 87.2 80.184 87.2H77.144V92.76H80.184ZM92.326 88.2C93.8993 88.2 95.0993 88.58 95.926 89.34C96.766 90.0867 97.186 91.22 97.186 92.74V99H94.826V97.7C94.5193 98.1667 94.0793 98.5267 93.506 98.78C92.946 99.02 92.266 99.14 91.466 99.14C90.666 99.14 89.966 99.0067 89.366 98.74C88.766 98.46 88.2993 98.08 87.966 97.6C87.646 97.1067 87.486 96.5533 87.486 95.94C87.486 94.98 87.8393 94.2133 88.546 93.64C89.266 93.0533 90.3927 92.76 91.926 92.76H94.686V92.6C94.686 91.8533 94.4593 91.28 94.006 90.88C93.566 90.48 92.906 90.28 92.026 90.28C91.426 90.28 90.8327 90.3733 90.246 90.56C89.6727 90.7467 89.186 91.0067 88.786 91.34L87.806 89.52C88.366 89.0933 89.0393 88.7667 89.826 88.54C90.6127 88.3133 91.446 88.2 92.326 88.2ZM91.986 97.32C92.6127 97.32 93.166 97.18 93.646 96.9C94.1393 96.6067 94.486 96.1933 94.686 95.66V94.42H92.106C90.666 94.42 89.946 94.8933 89.946 95.84C89.946 96.2933 90.126 96.6533 90.486 96.92C90.846 97.1867 91.346 97.32 91.986 97.32ZM106.523 93.44C107.19 93.6267 107.703 93.9333 108.063 94.36C108.436 94.7733 108.623 95.2733 108.623 95.86C108.623 96.5133 108.403 97.0933 107.963 97.6C107.523 98.0933 106.916 98.48 106.143 98.76C105.37 99.04 104.49 99.18 103.503 99.18C102.676 99.18 101.87 99.0867 101.083 98.9C100.296 98.7 99.5829 98.42 98.9429 98.06L99.6629 96.2C100.183 96.4933 100.77 96.72 101.423 96.88C102.076 97.04 102.73 97.12 103.383 97.12C104.223 97.12 104.876 96.9933 105.343 96.74C105.823 96.4733 106.063 96.1133 106.063 95.66C106.063 95.2467 105.876 94.9267 105.503 94.7C105.143 94.4733 104.63 94.36 103.963 94.36H101.883V92.68H103.763C104.39 92.68 104.876 92.5733 105.223 92.36C105.583 92.1467 105.763 91.8467 105.763 91.46C105.763 91.0733 105.55 90.7667 105.123 90.54C104.696 90.3133 104.11 90.2 103.363 90.2C102.296 90.2 101.17 90.46 99.9829 90.98L99.3429 89.14C100.743 88.4867 102.156 88.16 103.583 88.16C104.49 88.16 105.303 88.2867 106.023 88.54C106.743 88.78 107.303 89.1267 107.703 89.58C108.116 90.02 108.323 90.5267 108.323 91.1C108.323 91.62 108.163 92.0867 107.843 92.5C107.523 92.9 107.083 93.2133 106.523 93.44ZM117.137 88.2C118.177 88.2 119.104 88.4267 119.917 88.88C120.744 89.3333 121.39 89.9733 121.857 90.8C122.324 91.6267 122.557 92.58 122.557 93.66C122.557 94.74 122.324 95.7 121.857 96.54C121.39 97.3667 120.744 98.0067 119.917 98.46C119.104 98.9133 118.177 99.14 117.137 99.14C115.697 99.14 114.557 98.66 113.717 97.7V102.88H111.217V88.32H113.597V89.72C114.01 89.2133 114.517 88.8333 115.117 88.58C115.73 88.3267 116.404 88.2 117.137 88.2ZM116.857 97C117.777 97 118.53 96.6933 119.117 96.08C119.717 95.4667 120.017 94.66 120.017 93.66C120.017 92.66 119.717 91.8533 119.117 91.24C118.53 90.6267 117.777 90.32 116.857 90.32C116.257 90.32 115.717 90.46 115.237 90.74C114.757 91.0067 114.377 91.3933 114.097 91.9C113.817 92.4067 113.677 92.9933 113.677 93.66C113.677 94.3267 113.817 94.9133 114.097 95.42C114.377 95.9267 114.757 96.32 115.237 96.6C115.717 96.8667 116.257 97 116.857 97ZM128.889 88.2C130.462 88.2 131.662 88.58 132.489 89.34C133.329 90.0867 133.749 91.22 133.749 92.74V99H131.389V97.7C131.082 98.1667 130.642 98.5267 130.069 98.78C129.509 99.02 128.829 99.14 128.029 99.14C127.229 99.14 126.529 99.0067 125.929 98.74C125.329 98.46 124.862 98.08 124.529 97.6C124.209 97.1067 124.049 96.5533 124.049 95.94C124.049 94.98 124.402 94.2133 125.109 93.64C125.829 93.0533 126.955 92.76 128.489 92.76H131.249V92.6C131.249 91.8533 131.022 91.28 130.569 90.88C130.129 90.48 129.469 90.28 128.589 90.28C127.989 90.28 127.395 90.3733 126.809 90.56C126.235 90.7467 125.749 91.0067 125.349 91.34L124.369 89.52C124.929 89.0933 125.602 88.7667 126.389 88.54C127.175 88.3133 128.009 88.2 128.889 88.2ZM128.549 97.32C129.175 97.32 129.729 97.18 130.209 96.9C130.702 96.6067 131.049 96.1933 131.249 95.66V94.42H128.669C127.229 94.42 126.509 94.8933 126.509 95.84C126.509 96.2933 126.689 96.6533 127.049 96.92C127.409 97.1867 127.909 97.32 128.549 97.32ZM142.622 88.84C143.635 88.84 144.529 89.06 145.302 89.5C146.075 89.9267 146.675 90.5267 147.102 91.3C147.542 92.0733 147.762 92.96 147.762 93.96C147.762 94.9867 147.522 95.9 147.042 96.7C146.562 97.4867 145.889 98.1 145.022 98.54C144.155 98.98 143.169 99.2 142.062 99.2C140.209 99.2 138.775 98.5867 137.762 97.36C136.749 96.1333 136.242 94.3667 136.242 92.06C136.242 89.9133 136.702 88.2133 137.622 86.96C138.542 85.7067 139.949 84.88 141.842 84.48L146.802 83.42L147.162 85.66L142.662 86.58C141.369 86.8467 140.402 87.3 139.762 87.94C139.122 88.58 138.749 89.48 138.642 90.64C139.122 90.0667 139.702 89.6267 140.382 89.32C141.062 89 141.809 88.84 142.622 88.84ZM142.122 97.18C143.042 97.18 143.782 96.8867 144.342 96.3C144.915 95.7 145.202 94.94 145.202 94.02C145.202 93.1 144.915 92.36 144.342 91.8C143.782 91.24 143.042 90.96 142.122 90.96C141.189 90.96 140.435 91.24 139.862 91.8C139.289 92.36 139.002 93.1 139.002 94.02C139.002 94.9533 139.289 95.7133 139.862 96.3C140.449 96.8867 141.202 97.18 142.122 97.18ZM154.942 99.14C153.862 99.14 152.889 98.9067 152.022 98.44C151.155 97.9733 150.475 97.3267 149.982 96.5C149.502 95.66 149.262 94.7133 149.262 93.66C149.262 92.6067 149.502 91.6667 149.982 90.84C150.475 90.0133 151.155 89.3667 152.022 88.9C152.889 88.4333 153.862 88.2 154.942 88.2C156.035 88.2 157.015 88.4333 157.882 88.9C158.749 89.3667 159.422 90.0133 159.902 90.84C160.395 91.6667 160.642 92.6067 160.642 93.66C160.642 94.7133 160.395 95.66 159.902 96.5C159.422 97.3267 158.749 97.9733 157.882 98.44C157.015 98.9067 156.035 99.14 154.942 99.14ZM154.942 97C155.862 97 156.622 96.6933 157.222 96.08C157.822 95.4667 158.122 94.66 158.122 93.66C158.122 92.66 157.822 91.8533 157.222 91.24C156.622 90.6267 155.862 90.32 154.942 90.32C154.022 90.32 153.262 90.6267 152.662 91.24C152.075 91.8533 151.782 92.66 151.782 93.66C151.782 94.66 152.075 95.4667 152.662 96.08C153.262 96.6933 154.022 97 154.942 97ZM171.181 90.44H167.441V99H164.941V90.44H161.181V88.32H171.181V90.44ZM177.434 94.72H175.494V99H172.994V88.32H175.494V92.64H177.494L180.654 88.32H183.334L179.454 93.46L183.594 99H180.654L177.434 94.72ZM189.142 88.2C190.716 88.2 191.916 88.58 192.742 89.34C193.582 90.0867 194.002 91.22 194.002 92.74V99H191.642V97.7C191.336 98.1667 190.896 98.5267 190.322 98.78C189.762 99.02 189.082 99.14 188.282 99.14C187.482 99.14 186.782 99.0067 186.182 98.74C185.582 98.46 185.116 98.08 184.782 97.6C184.462 97.1067 184.302 96.5533 184.302 95.94C184.302 94.98 184.656 94.2133 185.362 93.64C186.082 93.0533 187.209 92.76 188.742 92.76H191.502V92.6C191.502 91.8533 191.276 91.28 190.822 90.88C190.382 90.48 189.722 90.28 188.842 90.28C188.242 90.28 187.649 90.3733 187.062 90.56C186.489 90.7467 186.002 91.0067 185.602 91.34L184.622 89.52C185.182 89.0933 185.856 88.7667 186.642 88.54C187.429 88.3133 188.262 88.2 189.142 88.2ZM188.802 97.32C189.429 97.32 189.982 97.18 190.462 96.9C190.956 96.6067 191.302 96.1933 191.502 95.66V94.42H188.922C187.482 94.42 186.762 94.8933 186.762 95.84C186.762 96.2933 186.942 96.6533 187.302 96.92C187.662 97.1867 188.162 97.32 188.802 97.32ZM67.2489 118.72H65.3089V123H62.8089V112.32H65.3089V116.64H67.3089L70.4689 112.32H73.1489L69.2689 117.46L73.4089 123H70.4689L67.2489 118.72ZM79.5806 123.14C78.5006 123.14 77.5273 122.907 76.6606 122.44C75.794 121.973 75.114 121.327 74.6206 120.5C74.1406 119.66 73.9006 118.713 73.9006 117.66C73.9006 116.607 74.1406 115.667 74.6206 114.84C75.114 114.013 75.794 113.367 76.6606 112.9C77.5273 112.433 78.5006 112.2 79.5806 112.2C80.674 112.2 81.654 112.433 82.5206 112.9C83.3873 113.367 84.0606 114.013 84.5406 114.84C85.034 115.667 85.2806 116.607 85.2806 117.66C85.2806 118.713 85.034 119.66 84.5406 120.5C84.0606 121.327 83.3873 121.973 82.5206 122.44C81.654 122.907 80.674 123.14 79.5806 123.14ZM79.5806 121C80.5006 121 81.2606 120.693 81.8606 120.08C82.4606 119.467 82.7606 118.66 82.7606 117.66C82.7606 116.66 82.4606 115.853 81.8606 115.24C81.2606 114.627 80.5006 114.32 79.5806 114.32C78.6606 114.32 77.9006 114.627 77.3006 115.24C76.714 115.853 76.4206 116.66 76.4206 117.66C76.4206 118.66 76.714 119.467 77.3006 120.08C77.9006 120.693 78.6606 121 79.5806 121ZM87.7503 112.32H90.2503V116.66H95.6303V112.32H98.1303V123H95.6303V118.78H90.2503V123H87.7503V112.32ZM106.341 123.14C105.234 123.14 104.241 122.907 103.361 122.44C102.481 121.973 101.794 121.327 101.301 120.5C100.807 119.66 100.561 118.713 100.561 117.66C100.561 116.607 100.807 115.667 101.301 114.84C101.794 114.013 102.474 113.367 103.341 112.9C104.221 112.433 105.221 112.2 106.341 112.2C107.394 112.2 108.314 112.413 109.101 112.84C109.901 113.267 110.501 113.88 110.901 114.68L108.981 115.8C108.674 115.307 108.287 114.94 107.821 114.7C107.367 114.447 106.867 114.32 106.321 114.32C105.387 114.32 104.614 114.627 104.001 115.24C103.387 115.84 103.081 116.647 103.081 117.66C103.081 118.673 103.381 119.487 103.981 120.1C104.594 120.7 105.374 121 106.321 121C106.867 121 107.367 120.88 107.821 120.64C108.287 120.387 108.674 120.013 108.981 119.52L110.901 120.64C110.487 121.44 109.881 122.06 109.081 122.5C108.294 122.927 107.381 123.14 106.341 123.14ZM121.464 114.44H117.724V123H115.224V114.44H111.464V112.32H121.464V114.44ZM129.198 112.2C130.238 112.2 131.164 112.427 131.978 112.88C132.804 113.333 133.451 113.973 133.918 114.8C134.384 115.627 134.618 116.58 134.618 117.66C134.618 118.74 134.384 119.7 133.918 120.54C133.451 121.367 132.804 122.007 131.978 122.46C131.164 122.913 130.238 123.14 129.198 123.14C127.758 123.14 126.618 122.66 125.778 121.7V126.88H123.278V112.32H125.658V113.72C126.071 113.213 126.578 112.833 127.178 112.58C127.791 112.327 128.464 112.2 129.198 112.2ZM128.918 121C129.838 121 130.591 120.693 131.178 120.08C131.778 119.467 132.078 118.66 132.078 117.66C132.078 116.66 131.778 115.853 131.178 115.24C130.591 114.627 129.838 114.32 128.918 114.32C128.318 114.32 127.778 114.46 127.298 114.74C126.818 115.007 126.438 115.393 126.158 115.9C125.878 116.407 125.738 116.993 125.738 117.66C125.738 118.327 125.878 118.913 126.158 119.42C126.438 119.927 126.818 120.32 127.298 120.6C127.778 120.867 128.318 121 128.918 121ZM146.893 112.32L141.893 123.86C141.426 125.02 140.859 125.833 140.193 126.3C139.526 126.78 138.719 127.02 137.773 127.02C137.239 127.02 136.713 126.933 136.193 126.76C135.673 126.587 135.246 126.347 134.913 126.04L135.913 124.2C136.153 124.427 136.433 124.607 136.753 124.74C137.086 124.873 137.419 124.94 137.753 124.94C138.193 124.94 138.553 124.827 138.833 124.6C139.126 124.373 139.393 123.993 139.633 123.46L139.813 123.04L135.153 112.32H137.753L141.113 120.22L144.493 112.32H146.893ZM153.069 118.72H151.129V123H148.629V112.32H151.129V116.64H153.129L156.289 112.32H158.969L155.089 117.46L159.229 123H156.289L153.069 118.72ZM172.713 120.88V125.46H170.373V123H160.993V112.32H163.493V120.88H168.593V112.32H171.093V120.88H172.713ZM174.938 112.32H177.438V119.36L183.338 112.32H185.618V123H183.118V115.96L177.238 123H174.938V112.32ZM188.981 112.32H191.481V119.36L197.381 112.32H199.661V123H197.161V115.96L191.281 123H188.981V112.32ZM194.161 111.06C193.081 111.06 192.254 110.813 191.681 110.32C191.121 109.813 190.834 109.08 190.821 108.12H192.481C192.494 108.6 192.641 108.98 192.921 109.26C193.214 109.54 193.621 109.68 194.141 109.68C194.647 109.68 195.047 109.54 195.341 109.26C195.647 108.98 195.807 108.6 195.821 108.12H197.521C197.507 109.08 197.214 109.813 196.641 110.32C196.067 110.813 195.241 111.06 194.161 111.06ZM67.733 147.2C66.3063 147.2 65.0196 146.893 63.873 146.28C62.7263 145.653 61.8263 144.793 61.173 143.7C60.5196 142.593 60.193 141.36 60.193 140C60.193 138.64 60.5196 137.413 61.173 136.32C61.8263 135.213 62.7263 134.353 63.873 133.74C65.0196 133.113 66.3063 132.8 67.733 132.8C69.1596 132.8 70.4463 133.113 71.593 133.74C72.7396 134.353 73.6396 135.207 74.293 136.3C74.9463 137.393 75.273 138.627 75.273 140C75.273 141.373 74.9463 142.607 74.293 143.7C73.6396 144.793 72.7396 145.653 71.593 146.28C70.4463 146.893 69.1596 147.2 67.733 147.2ZM67.733 144.92C68.6663 144.92 69.5063 144.713 70.253 144.3C70.9996 143.873 71.5863 143.287 72.013 142.54C72.4396 141.78 72.653 140.933 72.653 140C72.653 139.067 72.4396 138.227 72.013 137.48C71.5863 136.72 70.9996 136.133 70.253 135.72C69.5063 135.293 68.6663 135.08 67.733 135.08C66.7996 135.08 65.9596 135.293 65.213 135.72C64.4663 136.133 63.8796 136.72 63.453 137.48C63.0263 138.227 62.813 139.067 62.813 140C62.813 140.933 63.0263 141.78 63.453 142.54C63.8796 143.287 64.4663 143.873 65.213 144.3C65.9596 144.713 66.7996 144.92 67.733 144.92ZM86.1322 138.44H82.3922V147H79.8922V138.44H76.1322V136.32H86.1322V138.44ZM93.8656 136.2C94.9056 136.2 95.8323 136.427 96.6456 136.88C97.4723 137.333 98.119 137.973 98.5856 138.8C99.0523 139.627 99.2856 140.58 99.2856 141.66C99.2856 142.74 99.0523 143.7 98.5856 144.54C98.119 145.367 97.4723 146.007 96.6456 146.46C95.8323 146.913 94.9056 147.14 93.8656 147.14C92.4256 147.14 91.2856 146.66 90.4456 145.7V150.88H87.9456V136.32H90.3256V137.72C90.739 137.213 91.2456 136.833 91.8456 136.58C92.459 136.327 93.1323 136.2 93.8656 136.2ZM93.5856 145C94.5056 145 95.259 144.693 95.8456 144.08C96.4456 143.467 96.7456 142.66 96.7456 141.66C96.7456 140.66 96.4456 139.853 95.8456 139.24C95.259 138.627 94.5056 138.32 93.5856 138.32C92.9856 138.32 92.4456 138.46 91.9656 138.74C91.4856 139.007 91.1056 139.393 90.8256 139.9C90.5456 140.407 90.4056 140.993 90.4056 141.66C90.4056 142.327 90.5456 142.913 90.8256 143.42C91.1056 143.927 91.4856 144.32 91.9656 144.6C92.4456 144.867 92.9856 145 93.5856 145ZM101.774 136.32H104.274V143.36L110.174 136.32H112.454V147H109.954V139.96L104.074 147H101.774V136.32ZM120.677 147.14C119.57 147.14 118.577 146.907 117.697 146.44C116.817 145.973 116.13 145.327 115.637 144.5C115.143 143.66 114.897 142.713 114.897 141.66C114.897 140.607 115.143 139.667 115.637 138.84C116.13 138.013 116.81 137.367 117.677 136.9C118.557 136.433 119.557 136.2 120.677 136.2C121.73 136.2 122.65 136.413 123.437 136.84C124.237 137.267 124.837 137.88 125.237 138.68L123.317 139.8C123.01 139.307 122.623 138.94 122.157 138.7C121.703 138.447 121.203 138.32 120.657 138.32C119.723 138.32 118.95 138.627 118.337 139.24C117.723 139.84 117.417 140.647 117.417 141.66C117.417 142.673 117.717 143.487 118.317 144.1C118.93 144.7 119.71 145 120.657 145C121.203 145 121.703 144.88 122.157 144.64C122.623 144.387 123.01 144.013 123.317 143.52L125.237 144.64C124.823 145.44 124.217 146.06 123.417 146.5C122.63 146.927 121.717 147.14 120.677 147.14ZM132.042 147.14C130.962 147.14 129.988 146.907 129.122 146.44C128.255 145.973 127.575 145.327 127.082 144.5C126.602 143.66 126.362 142.713 126.362 141.66C126.362 140.607 126.602 139.667 127.082 138.84C127.575 138.013 128.255 137.367 129.122 136.9C129.988 136.433 130.962 136.2 132.042 136.2C133.135 136.2 134.115 136.433 134.982 136.9C135.848 137.367 136.522 138.013 137.002 138.84C137.495 139.667 137.742 140.607 137.742 141.66C137.742 142.713 137.495 143.66 137.002 144.5C136.522 145.327 135.848 145.973 134.982 146.44C134.115 146.907 133.135 147.14 132.042 147.14ZM132.042 145C132.962 145 133.722 144.693 134.322 144.08C134.922 143.467 135.222 142.66 135.222 141.66C135.222 140.66 134.922 139.853 134.322 139.24C133.722 138.627 132.962 138.32 132.042 138.32C131.122 138.32 130.362 138.627 129.762 139.24C129.175 139.853 128.882 140.66 128.882 141.66C128.882 142.66 129.175 143.467 129.762 144.08C130.362 144.693 131.122 145 132.042 145ZM147.951 141.44C149.271 141.84 149.931 142.693 149.931 144C149.931 144.96 149.571 145.7 148.851 146.22C148.131 146.74 147.065 147 145.651 147H140.211V136.32H145.431C146.738 136.32 147.758 136.56 148.491 137.04C149.225 137.52 149.591 138.2 149.591 139.08C149.591 139.627 149.445 140.1 149.151 140.5C148.871 140.9 148.471 141.213 147.951 141.44ZM142.591 140.78H145.211C146.505 140.78 147.151 140.333 147.151 139.44C147.151 138.573 146.505 138.14 145.211 138.14H142.591V140.78ZM145.451 145.18C146.825 145.18 147.511 144.733 147.511 143.84C147.511 143.373 147.351 143.027 147.031 142.8C146.711 142.56 146.211 142.44 145.531 142.44H142.591V145.18H145.451ZM157.034 142.72H155.094V147H152.594V136.32H155.094V140.64H157.094L160.254 136.32H162.934L159.054 141.46L163.194 147H160.254L157.034 142.72ZM168.742 136.2C170.315 136.2 171.515 136.58 172.342 137.34C173.182 138.087 173.602 139.22 173.602 140.74V147H171.242V145.7C170.935 146.167 170.495 146.527 169.922 146.78C169.362 147.02 168.682 147.14 167.882 147.14C167.082 147.14 166.382 147.007 165.782 146.74C165.182 146.46 164.715 146.08 164.382 145.6C164.062 145.107 163.902 144.553 163.902 143.94C163.902 142.98 164.255 142.213 164.962 141.64C165.682 141.053 166.809 140.76 168.342 140.76H171.102V140.6C171.102 139.853 170.875 139.28 170.422 138.88C169.982 138.48 169.322 138.28 168.442 138.28C167.842 138.28 167.249 138.373 166.662 138.56C166.089 138.747 165.602 139.007 165.202 139.34L164.222 137.52C164.782 137.093 165.455 136.767 166.242 136.54C167.029 136.313 167.862 136.2 168.742 136.2ZM168.402 145.32C169.029 145.32 169.582 145.18 170.062 144.9C170.555 144.607 170.902 144.193 171.102 143.66V142.42H168.522C167.082 142.42 166.362 142.893 166.362 143.84C166.362 144.293 166.542 144.653 166.902 144.92C167.262 145.187 167.762 145.32 168.402 145.32ZM187.383 138.78C188.676 138.94 189.663 139.38 190.343 140.1C191.023 140.82 191.363 141.72 191.363 142.8C191.363 143.613 191.156 144.353 190.743 145.02C190.33 145.687 189.703 146.22 188.863 146.62C188.036 147.007 187.023 147.2 185.823 147.2C184.823 147.2 183.856 147.06 182.923 146.78C182.003 146.487 181.216 146.087 180.563 145.58L181.683 143.56C182.19 143.987 182.803 144.327 183.523 144.58C184.256 144.82 185.01 144.94 185.783 144.94C186.703 144.94 187.423 144.753 187.943 144.38C188.476 143.993 188.743 143.473 188.743 142.82C188.743 142.167 188.49 141.66 187.983 141.3C187.49 140.927 186.73 140.74 185.703 140.74H184.423V138.96L187.603 135.18H181.243V133H190.783V134.74L187.383 138.78ZM194.064 133H200.184C201.677 133 203.004 133.293 204.164 133.88C205.324 134.453 206.224 135.273 206.864 136.34C207.504 137.393 207.824 138.613 207.824 140C207.824 141.387 207.504 142.613 206.864 143.68C206.224 144.733 205.324 145.553 204.164 146.14C203.004 146.713 201.677 147 200.184 147H194.064V133ZM200.064 144.8C201.09 144.8 201.99 144.607 202.764 144.22C203.55 143.82 204.15 143.26 204.564 142.54C204.99 141.807 205.204 140.96 205.204 140C205.204 139.04 204.99 138.2 204.564 137.48C204.15 136.747 203.55 136.187 202.764 135.8C201.99 135.4 201.09 135.2 200.064 135.2H196.664V144.8H200.064ZM102.42 171V163.92L98.8202 169.88H97.7402L94.2002 163.9V171H91.9202V160.32H94.5402L98.3402 167L102.32 160.32H104.66L104.68 171H102.42ZM112.014 160.2C113.587 160.2 114.787 160.58 115.614 161.34C116.454 162.087 116.874 163.22 116.874 164.74V171H114.514V169.7C114.207 170.167 113.767 170.527 113.194 170.78C112.634 171.02 111.954 171.14 111.154 171.14C110.354 171.14 109.654 171.007 109.054 170.74C108.454 170.46 107.987 170.08 107.654 169.6C107.334 169.107 107.174 168.553 107.174 167.94C107.174 166.98 107.527 166.213 108.234 165.64C108.954 165.053 110.08 164.76 111.614 164.76H114.374V164.6C114.374 163.853 114.147 163.28 113.694 162.88C113.254 162.48 112.594 162.28 111.714 162.28C111.114 162.28 110.52 162.373 109.934 162.56C109.36 162.747 108.874 163.007 108.474 163.34L107.494 161.52C108.054 161.093 108.727 160.767 109.514 160.54C110.3 160.313 111.134 160.2 112.014 160.2ZM111.674 169.32C112.3 169.32 112.854 169.18 113.334 168.9C113.827 168.607 114.174 168.193 114.374 167.66V166.42H111.794C110.354 166.42 109.634 166.893 109.634 167.84C109.634 168.293 109.814 168.653 110.174 168.92C110.534 169.187 111.034 169.32 111.674 169.32ZM124.407 166.72H122.467V171H119.967V160.32H122.467V164.64H124.467L127.627 160.32H130.307L126.427 165.46L130.567 171H127.627L124.407 166.72ZM141.979 165.72C141.979 165.893 141.965 166.14 141.939 166.46H133.559C133.705 167.247 134.085 167.873 134.699 168.34C135.325 168.793 136.099 169.02 137.019 169.02C138.192 169.02 139.159 168.633 139.919 167.86L141.259 169.4C140.779 169.973 140.172 170.407 139.439 170.7C138.705 170.993 137.879 171.14 136.959 171.14C135.785 171.14 134.752 170.907 133.859 170.44C132.965 169.973 132.272 169.327 131.779 168.5C131.299 167.66 131.059 166.713 131.059 165.66C131.059 164.62 131.292 163.687 131.759 162.86C132.239 162.02 132.899 161.367 133.739 160.9C134.579 160.433 135.525 160.2 136.579 160.2C137.619 160.2 138.545 160.433 139.359 160.9C140.185 161.353 140.825 162 141.279 162.84C141.745 163.667 141.979 164.627 141.979 165.72ZM136.579 162.2C135.779 162.2 135.099 162.44 134.539 162.92C133.992 163.387 133.659 164.013 133.539 164.8H139.599C139.492 164.027 139.165 163.4 138.619 162.92C138.072 162.44 137.392 162.2 136.579 162.2ZM152.783 162.44H149.043V171H146.543V162.44H142.783V160.32H152.783V162.44ZM158.887 171.14C157.807 171.14 156.834 170.907 155.967 170.44C155.101 169.973 154.421 169.327 153.927 168.5C153.447 167.66 153.207 166.713 153.207 165.66C153.207 164.607 153.447 163.667 153.927 162.84C154.421 162.013 155.101 161.367 155.967 160.9C156.834 160.433 157.807 160.2 158.887 160.2C159.981 160.2 160.961 160.433 161.827 160.9C162.694 161.367 163.367 162.013 163.847 162.84C164.341 163.667 164.587 164.607 164.587 165.66C164.587 166.713 164.341 167.66 163.847 168.5C163.367 169.327 162.694 169.973 161.827 170.44C160.961 170.907 159.981 171.14 158.887 171.14ZM158.887 169C159.807 169 160.567 168.693 161.167 168.08C161.767 167.467 162.067 166.66 162.067 165.66C162.067 164.66 161.767 163.853 161.167 163.24C160.567 162.627 159.807 162.32 158.887 162.32C157.967 162.32 157.207 162.627 156.607 163.24C156.021 163.853 155.727 164.66 155.727 165.66C155.727 166.66 156.021 167.467 156.607 168.08C157.207 168.693 157.967 169 158.887 169ZM174.797 165.44C176.117 165.84 176.777 166.693 176.777 168C176.777 168.96 176.417 169.7 175.697 170.22C174.977 170.74 173.91 171 172.497 171H167.057V160.32H172.277C173.584 160.32 174.604 160.56 175.337 161.04C176.07 161.52 176.437 162.2 176.437 163.08C176.437 163.627 176.29 164.1 175.997 164.5C175.717 164.9 175.317 165.213 174.797 165.44ZM169.437 164.78H172.057C173.35 164.78 173.997 164.333 173.997 163.44C173.997 162.573 173.35 162.14 172.057 162.14H169.437V164.78ZM172.297 169.18C173.67 169.18 174.357 168.733 174.357 167.84C174.357 167.373 174.197 167.027 173.877 166.8C173.557 166.56 173.057 166.44 172.377 166.44H169.437V169.18H172.297Z" fill="#2D2D2D"/>
<circle cx="134" cy="46" r="25" fill="#EC7F00"/>
<path fill-rule="evenodd" clip-rule="evenodd" d="M126.535 34.1498L119.484 37.6212V45.763V53.9047L126.54 57.3773L133.597 60.8499L140.653 57.3773L147.71 53.9047V45.763V37.6212L140.653 34.1486C136.772 32.2387 133.594 30.6766 133.591 30.6772C133.588 30.6779 130.413 32.2406 126.535 34.1498ZM138.645 35.5536C141.421 36.92 143.693 38.0426 143.692 38.0485C143.692 38.0544 141.42 39.2777 138.644 40.7669L133.597 43.4745L128.55 40.7669C125.774 39.2777 123.502 38.0544 123.501 38.0485C123.501 38.0406 133.561 33.0773 133.591 33.0707C133.594 33.07 135.868 34.1873 138.645 35.5536ZM127.253 42.5041L132.51 45.3249L132.511 51.6236L132.511 57.9223L127.083 55.251L121.655 52.5798V46.0405V39.5012L121.825 39.5923C121.918 39.6423 124.361 40.9527 127.253 42.5041ZM145.538 46.0408V52.5798L140.11 55.251L134.682 57.9223L134.683 51.6236L134.683 45.3249L140.105 42.4145C143.088 40.8138 145.53 39.5035 145.533 39.5029C145.536 39.5022 145.538 42.4443 145.538 46.0408Z" fill="white"/>
</svg>
