<svg width="244" height="211" viewBox="0 0 244 211" fill="none" xmlns="http://www.w3.org/2000/svg">
<path d="M46.582 21.9473V34.5938H22.1191V48.0215C25.179 44.4082 29.1178 42.6016 33.9355 42.6016C39.3717 42.6016 43.4733 44.1315 46.2402 47.1914C49.0397 50.2188 50.4395 56.0618 50.4395 64.7207V76C50.4395 81.599 50.1628 85.7168 49.6094 88.3535C49.0885 90.9577 47.9492 93.3828 46.1914 95.6289C44.4336 97.8424 41.9759 99.5514 38.8184 100.756C35.6934 101.928 31.8685 102.514 27.3438 102.514C22.2656 102.514 17.7897 101.635 13.916 99.877C10.0423 98.0866 7.29167 95.4336 5.66406 91.918C4.03646 88.4023 3.22266 82.9661 3.22266 75.6094V71.3125H22.9492V76.2441C22.9492 81.3548 23.1283 84.9844 23.4863 87.1328C23.8444 89.2812 25.0814 90.3555 27.1973 90.3555C28.1738 90.3555 28.9551 90.0462 29.541 89.4277C30.1595 88.8092 30.485 88.1419 30.5176 87.4258C30.5827 86.7096 30.6478 83.6009 30.7129 78.0996V62.4258C30.7129 59.4635 30.4036 57.4453 29.7852 56.3711C29.1667 55.2969 28.1413 54.7598 26.709 54.7598C25.7975 54.7598 25.0326 55.0365 24.4141 55.5898C23.7956 56.1432 23.3887 56.7454 23.1934 57.3965C23.0306 58.015 22.9492 59.4798 22.9492 61.791H3.41797L4.24805 21.9473H46.582Z" fill="#E9E9E9"/>
<path d="M72.1532 96.1H69.5532V102H66.9932V88H69.5532V93.86H72.2332L76.2532 88H79.0132L74.2332 94.78L79.1932 102H76.2532L72.1532 96.1ZM85.3013 102.14C84.2213 102.14 83.248 101.907 82.3813 101.44C81.5147 100.973 80.8347 100.327 80.3413 99.5C79.8613 98.66 79.6213 97.7133 79.6213 96.66C79.6213 95.6067 79.8613 94.6667 80.3413 93.84C80.8347 93.0133 81.5147 92.3667 82.3813 91.9C83.248 91.4333 84.2213 91.2 85.3013 91.2C86.3947 91.2 87.3747 91.4333 88.2413 91.9C89.108 92.3667 89.7813 93.0133 90.2613 93.84C90.7547 94.6667 91.0013 95.6067 91.0013 96.66C91.0013 97.7133 90.7547 98.66 90.2613 99.5C89.7813 100.327 89.108 100.973 88.2413 101.44C87.3747 101.907 86.3947 102.14 85.3013 102.14ZM85.3013 100C86.2213 100 86.9813 99.6933 87.5813 99.08C88.1813 98.4667 88.4813 97.66 88.4813 96.66C88.4813 95.66 88.1813 94.8533 87.5813 94.24C86.9813 93.6267 86.2213 93.32 85.3013 93.32C84.3813 93.32 83.6213 93.6267 83.0213 94.24C82.4347 94.8533 82.1413 95.66 82.1413 96.66C82.1413 97.66 82.4347 98.4667 83.0213 99.08C83.6213 99.6933 84.3813 100 85.3013 100ZM99.391 91.2C100.431 91.2 101.358 91.4267 102.171 91.88C102.998 92.3333 103.644 92.9733 104.111 93.8C104.578 94.6267 104.811 95.58 104.811 96.66C104.811 97.74 104.578 98.7 104.111 99.54C103.644 100.367 102.998 101.007 102.171 101.46C101.358 101.913 100.431 102.14 99.391 102.14C97.951 102.14 96.811 101.66 95.971 100.7V105.88H93.471V91.32H95.851V92.72C96.2643 92.2133 96.771 91.8333 97.371 91.58C97.9843 91.3267 98.6577 91.2 99.391 91.2ZM99.111 100C100.031 100 100.784 99.6933 101.371 99.08C101.971 98.4667 102.271 97.66 102.271 96.66C102.271 95.66 101.971 94.8533 101.371 94.24C100.784 93.6267 100.031 93.32 99.111 93.32C98.511 93.32 97.971 93.46 97.491 93.74C97.011 94.0067 96.631 94.3933 96.351 94.9C96.071 95.4067 95.931 95.9933 95.931 96.66C95.931 97.3267 96.071 97.9133 96.351 98.42C96.631 98.9267 97.011 99.32 97.491 99.6C97.971 99.8667 98.511 100 99.111 100ZM113.219 91.2C114.259 91.2 115.186 91.4267 115.999 91.88C116.826 92.3333 117.472 92.9733 117.939 93.8C118.406 94.6267 118.639 95.58 118.639 96.66C118.639 97.74 118.406 98.7 117.939 99.54C117.472 100.367 116.826 101.007 115.999 101.46C115.186 101.913 114.259 102.14 113.219 102.14C111.779 102.14 110.639 101.66 109.799 100.7V105.88H107.299V91.32H109.679V92.72C110.092 92.2133 110.599 91.8333 111.199 91.58C111.812 91.3267 112.486 91.2 113.219 91.2ZM112.939 100C113.859 100 114.612 99.6933 115.199 99.08C115.799 98.4667 116.099 97.66 116.099 96.66C116.099 95.66 115.799 94.8533 115.199 94.24C114.612 93.6267 113.859 93.32 112.939 93.32C112.339 93.32 111.799 93.46 111.319 93.74C110.839 94.0067 110.459 94.3933 110.179 94.9C109.899 95.4067 109.759 95.9933 109.759 96.66C109.759 97.3267 109.899 97.9133 110.179 98.42C110.459 98.9267 110.839 99.32 111.319 99.6C111.799 99.8667 112.339 100 112.939 100ZM131.127 96.72C131.127 96.8933 131.114 97.14 131.087 97.46H122.707C122.854 98.2467 123.234 98.8733 123.847 99.34C124.474 99.7933 125.247 100.02 126.167 100.02C127.341 100.02 128.307 99.6333 129.067 98.86L130.407 100.4C129.927 100.973 129.321 101.407 128.587 101.7C127.854 101.993 127.027 102.14 126.107 102.14C124.934 102.14 123.901 101.907 123.007 101.44C122.114 100.973 121.421 100.327 120.927 99.5C120.447 98.66 120.207 97.7133 120.207 96.66C120.207 95.62 120.441 94.6867 120.907 93.86C121.387 93.02 122.047 92.3667 122.887 91.9C123.727 91.4333 124.674 91.2 125.727 91.2C126.767 91.2 127.694 91.4333 128.507 91.9C129.334 92.3533 129.974 93 130.427 93.84C130.894 94.6667 131.127 95.6267 131.127 96.72ZM125.727 93.2C124.927 93.2 124.247 93.44 123.687 93.92C123.141 94.3867 122.807 95.0133 122.687 95.8H128.747C128.641 95.0267 128.314 94.4 127.767 93.92C127.221 93.44 126.541 93.2 125.727 93.2ZM138.302 97.72H136.362V102H133.862V91.32H136.362V95.64H138.362L141.522 91.32H144.202L140.322 96.46L144.462 102H141.522L138.302 97.72ZM154.548 93.44H150.808V102H148.308V93.44H144.548V91.32H154.548V93.44ZM156.362 91.32H158.862V98.36L164.762 91.32H167.042V102H164.542V94.96L158.662 102H156.362V91.32ZM176.325 91.2C177.365 91.2 178.291 91.4267 179.105 91.88C179.931 92.3333 180.578 92.9733 181.045 93.8C181.511 94.6267 181.745 95.58 181.745 96.66C181.745 97.74 181.511 98.7 181.045 99.54C180.578 100.367 179.931 101.007 179.105 101.46C178.291 101.913 177.365 102.14 176.325 102.14C174.885 102.14 173.745 101.66 172.905 100.7V105.88H170.405V91.32H172.785V92.72C173.198 92.2133 173.705 91.8333 174.305 91.58C174.918 91.3267 175.591 91.2 176.325 91.2ZM176.045 100C176.965 100 177.718 99.6933 178.305 99.08C178.905 98.4667 179.205 97.66 179.205 96.66C179.205 95.66 178.905 94.8533 178.305 94.24C177.718 93.6267 176.965 93.32 176.045 93.32C175.445 93.32 174.905 93.46 174.425 93.74C173.945 94.0067 173.565 94.3933 173.285 94.9C173.005 95.4067 172.865 95.9933 172.865 96.66C172.865 97.3267 173.005 97.9133 173.285 98.42C173.565 98.9267 173.945 99.32 174.425 99.6C174.905 99.8667 175.445 100 176.045 100ZM188.993 102.14C187.913 102.14 186.939 101.907 186.073 101.44C185.206 100.973 184.526 100.327 184.033 99.5C183.553 98.66 183.313 97.7133 183.313 96.66C183.313 95.6067 183.553 94.6667 184.033 93.84C184.526 93.0133 185.206 92.3667 186.073 91.9C186.939 91.4333 187.913 91.2 188.993 91.2C190.086 91.2 191.066 91.4333 191.933 91.9C192.799 92.3667 193.473 93.0133 193.953 93.84C194.446 94.6667 194.693 95.6067 194.693 96.66C194.693 97.7133 194.446 98.66 193.953 99.5C193.473 100.327 192.799 100.973 191.933 101.44C191.066 101.907 190.086 102.14 188.993 102.14ZM188.993 100C189.913 100 190.673 99.6933 191.273 99.08C191.873 98.4667 192.173 97.66 192.173 96.66C192.173 95.66 191.873 94.8533 191.273 94.24C190.673 93.6267 189.913 93.32 188.993 93.32C188.073 93.32 187.313 93.6267 186.713 94.24C186.126 94.8533 185.833 95.66 185.833 96.66C185.833 97.66 186.126 98.4667 186.713 99.08C187.313 99.6933 188.073 100 188.993 100ZM204.902 96.44C206.222 96.84 206.882 97.6933 206.882 99C206.882 99.96 206.522 100.7 205.802 101.22C205.082 101.74 204.016 102 202.602 102H197.162V91.32H202.382C203.689 91.32 204.709 91.56 205.442 92.04C206.176 92.52 206.542 93.2 206.542 94.08C206.542 94.6267 206.396 95.1 206.102 95.5C205.822 95.9 205.422 96.2133 204.902 96.44ZM199.542 95.78H202.162C203.456 95.78 204.102 95.3333 204.102 94.44C204.102 93.5733 203.456 93.14 202.162 93.14H199.542V95.78ZM202.402 100.18C203.776 100.18 204.462 99.7333 204.462 98.84C204.462 98.3733 204.302 98.0267 203.982 97.8C203.662 97.56 203.162 97.44 202.482 97.44H199.542V100.18H202.402ZM213.985 97.72H212.045V102H209.545V91.32H212.045V95.64H214.045L217.205 91.32H219.885L216.005 96.46L220.145 102H217.205L213.985 97.72ZM225.693 91.2C227.267 91.2 228.467 91.58 229.293 92.34C230.133 93.0867 230.553 94.22 230.553 95.74V102H228.193V100.7C227.887 101.167 227.447 101.527 226.873 101.78C226.313 102.02 225.633 102.14 224.833 102.14C224.033 102.14 223.333 102.007 222.733 101.74C222.133 101.46 221.667 101.08 221.333 100.6C221.013 100.107 220.853 99.5533 220.853 98.94C220.853 97.98 221.207 97.2133 221.913 96.64C222.633 96.0533 223.76 95.76 225.293 95.76H228.053V95.6C228.053 94.8533 227.827 94.28 227.373 93.88C226.933 93.48 226.273 93.28 225.393 93.28C224.793 93.28 224.2 93.3733 223.613 93.56C223.04 93.7467 222.553 94.0067 222.153 94.34L221.173 92.52C221.733 92.0933 222.407 91.7667 223.193 91.54C223.98 91.3133 224.813 91.2 225.693 91.2ZM225.353 100.32C225.98 100.32 226.533 100.18 227.013 99.9C227.507 99.6067 227.853 99.1933 228.053 98.66V97.42H225.473C224.033 97.42 223.313 97.8933 223.313 98.84C223.313 99.2933 223.493 99.6533 223.853 99.92C224.213 100.187 224.713 100.32 225.353 100.32ZM114.157 126V118.92L110.557 124.88H109.477L105.937 118.9V126H103.657V115.32H106.277L110.077 122L114.057 115.32H116.397L116.417 126H114.157ZM123.75 115.2C125.323 115.2 126.523 115.58 127.35 116.34C128.19 117.087 128.61 118.22 128.61 119.74V126H126.25V124.7C125.943 125.167 125.503 125.527 124.93 125.78C124.37 126.02 123.69 126.14 122.89 126.14C122.09 126.14 121.39 126.007 120.79 125.74C120.19 125.46 119.723 125.08 119.39 124.6C119.07 124.107 118.91 123.553 118.91 122.94C118.91 121.98 119.263 121.213 119.97 120.64C120.69 120.053 121.817 119.76 123.35 119.76H126.11V119.6C126.11 118.853 125.883 118.28 125.43 117.88C124.99 117.48 124.33 117.28 123.45 117.28C122.85 117.28 122.257 117.373 121.67 117.56C121.097 117.747 120.61 118.007 120.21 118.34L119.23 116.52C119.79 116.093 120.463 115.767 121.25 115.54C122.037 115.313 122.87 115.2 123.75 115.2ZM123.41 124.32C124.037 124.32 124.59 124.18 125.07 123.9C125.563 123.607 125.91 123.193 126.11 122.66V121.42H123.53C122.09 121.42 121.37 121.893 121.37 122.84C121.37 123.293 121.55 123.653 121.91 123.92C122.27 124.187 122.77 124.32 123.41 124.32ZM136.143 121.72H134.203V126H131.703V115.32H134.203V119.64H136.203L139.363 115.32H142.043L138.163 120.46L142.303 126H139.363L136.143 121.72ZM153.715 120.72C153.715 120.893 153.702 121.14 153.675 121.46H145.295C145.442 122.247 145.822 122.873 146.435 123.34C147.062 123.793 147.835 124.02 148.755 124.02C149.928 124.02 150.895 123.633 151.655 122.86L152.995 124.4C152.515 124.973 151.908 125.407 151.175 125.7C150.442 125.993 149.615 126.14 148.695 126.14C147.522 126.14 146.488 125.907 145.595 125.44C144.702 124.973 144.008 124.327 143.515 123.5C143.035 122.66 142.795 121.713 142.795 120.66C142.795 119.62 143.028 118.687 143.495 117.86C143.975 117.02 144.635 116.367 145.475 115.9C146.315 115.433 147.262 115.2 148.315 115.2C149.355 115.2 150.282 115.433 151.095 115.9C151.922 116.353 152.562 117 153.015 117.84C153.482 118.667 153.715 119.627 153.715 120.72ZM148.315 117.2C147.515 117.2 146.835 117.44 146.275 117.92C145.728 118.387 145.395 119.013 145.275 119.8H151.335C151.228 119.027 150.902 118.4 150.355 117.92C149.808 117.44 149.128 117.2 148.315 117.2ZM164.519 117.44H160.779V126H158.279V117.44H154.519V115.32H164.519V117.44ZM170.624 126.14C169.544 126.14 168.57 125.907 167.704 125.44C166.837 124.973 166.157 124.327 165.664 123.5C165.184 122.66 164.944 121.713 164.944 120.66C164.944 119.607 165.184 118.667 165.664 117.84C166.157 117.013 166.837 116.367 167.704 115.9C168.57 115.433 169.544 115.2 170.624 115.2C171.717 115.2 172.697 115.433 173.564 115.9C174.43 116.367 175.104 117.013 175.584 117.84C176.077 118.667 176.324 119.607 176.324 120.66C176.324 121.713 176.077 122.66 175.584 123.5C175.104 124.327 174.43 124.973 173.564 125.44C172.697 125.907 171.717 126.14 170.624 126.14ZM170.624 124C171.544 124 172.304 123.693 172.904 123.08C173.504 122.467 173.804 121.66 173.804 120.66C173.804 119.66 173.504 118.853 172.904 118.24C172.304 117.627 171.544 117.32 170.624 117.32C169.704 117.32 168.944 117.627 168.344 118.24C167.757 118.853 167.464 119.66 167.464 120.66C167.464 121.66 167.757 122.467 168.344 123.08C168.944 123.693 169.704 124 170.624 124ZM186.533 120.44C187.853 120.84 188.513 121.693 188.513 123C188.513 123.96 188.153 124.7 187.433 125.22C186.713 125.74 185.647 126 184.233 126H178.793V115.32H184.013C185.32 115.32 186.34 115.56 187.073 116.04C187.807 116.52 188.173 117.2 188.173 118.08C188.173 118.627 188.027 119.1 187.733 119.5C187.453 119.9 187.053 120.213 186.533 120.44ZM181.173 119.78H183.793C185.087 119.78 185.733 119.333 185.733 118.44C185.733 117.573 185.087 117.14 183.793 117.14H181.173V119.78ZM184.033 124.18C185.407 124.18 186.093 123.733 186.093 122.84C186.093 122.373 185.933 122.027 185.613 121.8C185.293 121.56 184.793 121.44 184.113 121.44H181.173V124.18H184.033ZM71.1588 150.2C69.7321 150.2 68.4454 149.893 67.2988 149.28C66.1521 148.653 65.2521 147.793 64.5988 146.7C63.9454 145.593 63.6188 144.36 63.6188 143C63.6188 141.64 63.9454 140.413 64.5988 139.32C65.2521 138.213 66.1521 137.353 67.2988 136.74C68.4454 136.113 69.7321 135.8 71.1588 135.8C72.5854 135.8 73.8721 136.113 75.0188 136.74C76.1654 137.353 77.0654 138.207 77.7188 139.3C78.3721 140.393 78.6988 141.627 78.6988 143C78.6988 144.373 78.3721 145.607 77.7188 146.7C77.0654 147.793 76.1654 148.653 75.0188 149.28C73.8721 149.893 72.5854 150.2 71.1588 150.2ZM71.1588 147.92C72.0921 147.92 72.9321 147.713 73.6788 147.3C74.4254 146.873 75.0121 146.287 75.4388 145.54C75.8654 144.78 76.0788 143.933 76.0788 143C76.0788 142.067 75.8654 141.227 75.4388 140.48C75.0121 139.72 74.4254 139.133 73.6788 138.72C72.9321 138.293 72.0921 138.08 71.1588 138.08C70.2254 138.08 69.3854 138.293 68.6388 138.72C67.8921 139.133 67.3054 139.72 66.8788 140.48C66.4521 141.227 66.2388 142.067 66.2388 143C66.2388 143.933 66.4521 144.78 66.8788 145.54C67.3054 146.287 67.8921 146.873 68.6388 147.3C69.3854 147.713 70.2254 147.92 71.1588 147.92ZM85.7333 145.72H83.7933V150H81.2933V139.32H83.7933V143.64H85.7933L88.9533 139.32H91.6333L87.7533 144.46L91.8933 150H88.9533L85.7333 145.72ZM98.065 150.14C96.985 150.14 96.0117 149.907 95.145 149.44C94.2783 148.973 93.5983 148.327 93.105 147.5C92.625 146.66 92.385 145.713 92.385 144.66C92.385 143.607 92.625 142.667 93.105 141.84C93.5983 141.013 94.2783 140.367 95.145 139.9C96.0117 139.433 96.985 139.2 98.065 139.2C99.1583 139.2 100.138 139.433 101.005 139.9C101.872 140.367 102.545 141.013 103.025 141.84C103.518 142.667 103.765 143.607 103.765 144.66C103.765 145.713 103.518 146.66 103.025 147.5C102.545 148.327 101.872 148.973 101.005 149.44C100.138 149.907 99.1583 150.14 98.065 150.14ZM98.065 148C98.985 148 99.745 147.693 100.345 147.08C100.945 146.467 101.245 145.66 101.245 144.66C101.245 143.66 100.945 142.853 100.345 142.24C99.745 141.627 98.985 141.32 98.065 141.32C97.145 141.32 96.385 141.627 95.785 142.24C95.1983 142.853 94.905 143.66 94.905 144.66C94.905 145.66 95.1983 146.467 95.785 147.08C96.385 147.693 97.145 148 98.065 148ZM106.235 139.32H108.735V143.66H114.115V139.32H116.615V150H114.115V145.78H108.735V150H106.235V139.32ZM129.025 139.32V150H126.525V145.86C125.498 146.353 124.425 146.6 123.305 146.6C121.932 146.6 120.878 146.287 120.145 145.66C119.412 145.02 119.045 144.047 119.045 142.74V139.32H121.545V142.58C121.545 143.26 121.745 143.767 122.145 144.1C122.545 144.433 123.112 144.6 123.845 144.6C124.778 144.6 125.672 144.4 126.525 144V139.32H129.025ZM136.367 139.2C137.94 139.2 139.14 139.58 139.967 140.34C140.807 141.087 141.227 142.22 141.227 143.74V150H138.867V148.7C138.56 149.167 138.12 149.527 137.547 149.78C136.987 150.02 136.307 150.14 135.507 150.14C134.707 150.14 134.007 150.007 133.407 149.74C132.807 149.46 132.34 149.08 132.007 148.6C131.687 148.107 131.527 147.553 131.527 146.94C131.527 145.98 131.88 145.213 132.587 144.64C133.307 144.053 134.434 143.76 135.967 143.76H138.727V143.6C138.727 142.853 138.5 142.28 138.047 141.88C137.607 141.48 136.947 141.28 136.067 141.28C135.467 141.28 134.874 141.373 134.287 141.56C133.714 141.747 133.227 142.007 132.827 142.34L131.847 140.52C132.407 140.093 133.08 139.767 133.867 139.54C134.654 139.313 135.487 139.2 136.367 139.2ZM136.027 148.32C136.654 148.32 137.207 148.18 137.687 147.9C138.18 147.607 138.527 147.193 138.727 146.66V145.42H136.147C134.707 145.42 133.987 145.893 133.987 146.84C133.987 147.293 134.167 147.653 134.527 147.92C134.887 148.187 135.387 148.32 136.027 148.32ZM152.781 141.44H149.041V150H146.541V141.44H142.781V139.32H152.781V141.44ZM164.125 144.72C164.125 144.893 164.112 145.14 164.085 145.46H155.705C155.852 146.247 156.232 146.873 156.845 147.34C157.472 147.793 158.245 148.02 159.165 148.02C160.339 148.02 161.305 147.633 162.065 146.86L163.405 148.4C162.925 148.973 162.319 149.407 161.585 149.7C160.852 149.993 160.025 150.14 159.105 150.14C157.932 150.14 156.899 149.907 156.005 149.44C155.112 148.973 154.419 148.327 153.925 147.5C153.445 146.66 153.205 145.713 153.205 144.66C153.205 143.62 153.439 142.687 153.905 141.86C154.385 141.02 155.045 140.367 155.885 139.9C156.725 139.433 157.672 139.2 158.725 139.2C159.765 139.2 160.692 139.433 161.505 139.9C162.332 140.353 162.972 141 163.425 141.84C163.892 142.667 164.125 143.627 164.125 144.72ZM158.725 141.2C157.925 141.2 157.245 141.44 156.685 141.92C156.139 142.387 155.805 143.013 155.685 143.8H161.745C161.639 143.027 161.312 142.4 160.765 141.92C160.219 141.44 159.539 141.2 158.725 141.2ZM176.403 139.32V150H173.903V141.44H169.903L169.803 143.56C169.736 144.973 169.603 146.16 169.403 147.12C169.216 148.067 168.89 148.82 168.423 149.38C167.97 149.927 167.343 150.2 166.543 150.2C166.17 150.2 165.71 150.127 165.163 149.98L165.283 147.88C165.47 147.92 165.63 147.94 165.763 147.94C166.27 147.94 166.65 147.74 166.903 147.34C167.156 146.927 167.316 146.44 167.383 145.88C167.463 145.307 167.53 144.493 167.583 143.44L167.763 139.32H176.403ZM185.13 142.84C186.49 142.84 187.53 143.147 188.25 143.76C188.983 144.373 189.35 145.24 189.35 146.36C189.35 147.533 188.95 148.44 188.15 149.08C187.35 149.72 186.223 150.033 184.77 150.02L179.77 150V139.32H182.27V142.82L185.13 142.84ZM184.55 148.18C185.283 148.193 185.843 148.04 186.23 147.72C186.617 147.4 186.81 146.933 186.81 146.32C186.81 145.72 186.623 145.28 186.25 145C185.877 144.72 185.31 144.573 184.55 144.56L182.27 144.54V148.16L184.55 148.18ZM191.547 139.32H194.047V143.66H199.427V139.32H201.927V150H199.427V145.78H194.047V150H191.547V139.32ZM210.478 142.84C211.838 142.84 212.878 143.147 213.598 143.76C214.318 144.373 214.678 145.24 214.678 146.36C214.678 147.533 214.278 148.44 213.478 149.08C212.691 149.72 211.571 150.033 210.118 150.02L205.278 150V139.32H207.778V142.82L210.478 142.84ZM216.058 139.32H218.558V150H216.058V139.32ZM209.898 148.18C210.631 148.193 211.191 148.04 211.578 147.72C211.964 147.4 212.158 146.933 212.158 146.32C212.158 145.72 211.971 145.28 211.598 145C211.224 144.72 210.658 144.573 209.898 144.56L207.778 144.54V148.16L209.898 148.18ZM221.918 139.32H224.418V146.36L230.318 139.32H232.598V150H230.098V142.96L224.218 150H221.918V139.32ZM227.098 138.06C226.018 138.06 225.192 137.813 224.618 137.32C224.058 136.813 223.772 136.08 223.758 135.12H225.418C225.432 135.6 225.578 135.98 225.858 136.26C226.152 136.54 226.558 136.68 227.078 136.68C227.585 136.68 227.985 136.54 228.278 136.26C228.585 135.98 228.745 135.6 228.758 135.12H230.458C230.445 136.08 230.152 136.813 229.578 137.32C229.005 137.813 228.178 138.06 227.098 138.06ZM60.602 163.2C61.642 163.2 62.5686 163.427 63.382 163.88C64.2086 164.333 64.8553 164.973 65.322 165.8C65.7886 166.627 66.022 167.58 66.022 168.66C66.022 169.74 65.7886 170.7 65.322 171.54C64.8553 172.367 64.2086 173.007 63.382 173.46C62.5686 173.913 61.642 174.14 60.602 174.14C59.162 174.14 58.022 173.66 57.182 172.7V177.88H54.682V163.32H57.062V164.72C57.4753 164.213 57.982 163.833 58.582 163.58C59.1953 163.327 59.8686 163.2 60.602 163.2ZM60.322 172C61.242 172 61.9953 171.693 62.582 171.08C63.182 170.467 63.482 169.66 63.482 168.66C63.482 167.66 63.182 166.853 62.582 166.24C61.9953 165.627 61.242 165.32 60.322 165.32C59.722 165.32 59.182 165.46 58.702 165.74C58.222 166.007 57.842 166.393 57.562 166.9C57.282 167.407 57.142 167.993 57.142 168.66C57.142 169.327 57.282 169.913 57.562 170.42C57.842 170.927 58.222 171.32 58.702 171.6C59.182 171.867 59.722 172 60.322 172ZM72.3534 163.2C73.9267 163.2 75.1267 163.58 75.9534 164.34C76.7934 165.087 77.2134 166.22 77.2134 167.74V174H74.8534V172.7C74.5467 173.167 74.1067 173.527 73.5334 173.78C72.9734 174.02 72.2934 174.14 71.4934 174.14C70.6934 174.14 69.9934 174.007 69.3934 173.74C68.7934 173.46 68.3267 173.08 67.9934 172.6C67.6734 172.107 67.5134 171.553 67.5134 170.94C67.5134 169.98 67.8667 169.213 68.5734 168.64C69.2934 168.053 70.42 167.76 71.9534 167.76H74.7134V167.6C74.7134 166.853 74.4867 166.28 74.0334 165.88C73.5934 165.48 72.9334 165.28 72.0534 165.28C71.4534 165.28 70.86 165.373 70.2734 165.56C69.7 165.747 69.2134 166.007 68.8134 166.34L67.8334 164.52C68.3934 164.093 69.0667 163.767 69.8534 163.54C70.64 163.313 71.4734 163.2 72.3534 163.2ZM72.0134 172.32C72.64 172.32 73.1934 172.18 73.6734 171.9C74.1667 171.607 74.5134 171.193 74.7134 170.66V169.42H72.1334C70.6934 169.42 69.9734 169.893 69.9734 170.84C69.9734 171.293 70.1534 171.653 70.5134 171.92C70.8734 172.187 71.3734 172.32 72.0134 172.32ZM85.167 174.14C84.0603 174.14 83.067 173.907 82.187 173.44C81.307 172.973 80.6203 172.327 80.127 171.5C79.6336 170.66 79.387 169.713 79.387 168.66C79.387 167.607 79.6336 166.667 80.127 165.84C80.6203 165.013 81.3003 164.367 82.167 163.9C83.047 163.433 84.047 163.2 85.167 163.2C86.2203 163.2 87.1403 163.413 87.927 163.84C88.727 164.267 89.327 164.88 89.727 165.68L87.807 166.8C87.5003 166.307 87.1136 165.94 86.647 165.7C86.1936 165.447 85.6936 165.32 85.147 165.32C84.2136 165.32 83.4403 165.627 82.827 166.24C82.2136 166.84 81.907 167.647 81.907 168.66C81.907 169.673 82.207 170.487 82.807 171.1C83.4203 171.7 84.2003 172 85.147 172C85.6936 172 86.1936 171.88 86.647 171.64C87.1136 171.387 87.5003 171.013 87.807 170.52L89.727 171.64C89.3136 172.44 88.707 173.06 87.907 173.5C87.1203 173.927 86.207 174.14 85.167 174.14ZM100.988 163.32V174H98.488V169.86C97.4614 170.353 96.388 170.6 95.268 170.6C93.8947 170.6 92.8414 170.287 92.108 169.66C91.3747 169.02 91.008 168.047 91.008 166.74V163.32H93.508V166.58C93.508 167.26 93.708 167.767 94.108 168.1C94.508 168.433 95.0747 168.6 95.808 168.6C96.7414 168.6 97.6347 168.4 98.488 168V163.32H100.988ZM114.35 168.72C114.35 168.893 114.337 169.14 114.31 169.46H105.93C106.077 170.247 106.457 170.873 107.07 171.34C107.697 171.793 108.47 172.02 109.39 172.02C110.563 172.02 111.53 171.633 112.29 170.86L113.63 172.4C113.15 172.973 112.543 173.407 111.81 173.7C111.077 173.993 110.25 174.14 109.33 174.14C108.157 174.14 107.123 173.907 106.23 173.44C105.337 172.973 104.643 172.327 104.15 171.5C103.67 170.66 103.43 169.713 103.43 168.66C103.43 167.62 103.663 166.687 104.13 165.86C104.61 165.02 105.27 164.367 106.11 163.9C106.95 163.433 107.897 163.2 108.95 163.2C109.99 163.2 110.917 163.433 111.73 163.9C112.557 164.353 113.197 165 113.65 165.84C114.117 166.667 114.35 167.627 114.35 168.72ZM108.95 165.2C108.15 165.2 107.47 165.44 106.91 165.92C106.363 166.387 106.03 167.013 105.91 167.8H111.97C111.863 167.027 111.537 166.4 110.99 165.92C110.443 165.44 109.763 165.2 108.95 165.2ZM125.154 165.44H121.414V174H118.914V165.44H115.154V163.32H125.154V165.44ZM137.354 174.14C136.248 174.14 135.254 173.907 134.374 173.44C133.494 172.973 132.808 172.327 132.314 171.5C131.821 170.66 131.574 169.713 131.574 168.66C131.574 167.607 131.821 166.667 132.314 165.84C132.808 165.013 133.488 164.367 134.354 163.9C135.234 163.433 136.234 163.2 137.354 163.2C138.408 163.2 139.328 163.413 140.114 163.84C140.914 164.267 141.514 164.88 141.914 165.68L139.994 166.8C139.688 166.307 139.301 165.94 138.834 165.7C138.381 165.447 137.881 165.32 137.334 165.32C136.401 165.32 135.628 165.627 135.014 166.24C134.401 166.84 134.094 167.647 134.094 168.66C134.094 169.673 134.394 170.487 134.994 171.1C135.608 171.7 136.388 172 137.334 172C137.881 172 138.381 171.88 138.834 171.64C139.301 171.387 139.688 171.013 139.994 170.52L141.914 171.64C141.501 172.44 140.894 173.06 140.094 173.5C139.308 173.927 138.394 174.14 137.354 174.14ZM152.478 165.44H148.738V174H146.238V165.44H142.478V163.32H152.478V165.44ZM158.583 174.14C157.503 174.14 156.529 173.907 155.663 173.44C154.796 172.973 154.116 172.327 153.623 171.5C153.143 170.66 152.903 169.713 152.903 168.66C152.903 167.607 153.143 166.667 153.623 165.84C154.116 165.013 154.796 164.367 155.663 163.9C156.529 163.433 157.503 163.2 158.583 163.2C159.676 163.2 160.656 163.433 161.523 163.9C162.389 164.367 163.063 165.013 163.543 165.84C164.036 166.667 164.283 167.607 164.283 168.66C164.283 169.713 164.036 170.66 163.543 171.5C163.063 172.327 162.389 172.973 161.523 173.44C160.656 173.907 159.676 174.14 158.583 174.14ZM158.583 172C159.503 172 160.263 171.693 160.863 171.08C161.463 170.467 161.763 169.66 161.763 168.66C161.763 167.66 161.463 166.853 160.863 166.24C160.263 165.627 159.503 165.32 158.583 165.32C157.663 165.32 156.903 165.627 156.303 166.24C155.716 166.853 155.423 167.66 155.423 168.66C155.423 169.66 155.716 170.467 156.303 171.08C156.903 171.693 157.663 172 158.583 172ZM166.752 163.32H169.252V170.36L175.152 163.32H177.432V174H174.932V166.96L169.052 174H166.752V163.32ZM191.295 174V166.92L187.695 172.88H186.615L183.075 166.9V174H180.795V163.32H183.415L187.215 170L191.195 163.32H193.535L193.555 174H191.295ZM201.669 174.14C200.589 174.14 199.615 173.907 198.749 173.44C197.882 172.973 197.202 172.327 196.709 171.5C196.229 170.66 195.989 169.713 195.989 168.66C195.989 167.607 196.229 166.667 196.709 165.84C197.202 165.013 197.882 164.367 198.749 163.9C199.615 163.433 200.589 163.2 201.669 163.2C202.762 163.2 203.742 163.433 204.609 163.9C205.475 164.367 206.149 165.013 206.629 165.84C207.122 166.667 207.369 167.607 207.369 168.66C207.369 169.713 207.122 170.66 206.629 171.5C206.149 172.327 205.475 172.973 204.609 173.44C203.742 173.907 202.762 174.14 201.669 174.14ZM201.669 172C202.589 172 203.349 171.693 203.949 171.08C204.549 170.467 204.849 169.66 204.849 168.66C204.849 167.66 204.549 166.853 203.949 166.24C203.349 165.627 202.589 165.32 201.669 165.32C200.749 165.32 199.989 165.627 199.389 166.24C198.802 166.853 198.509 167.66 198.509 168.66C198.509 169.66 198.802 170.467 199.389 171.08C199.989 171.693 200.749 172 201.669 172ZM214.698 174.14C213.592 174.14 212.598 173.907 211.718 173.44C210.838 172.973 210.152 172.327 209.658 171.5C209.165 170.66 208.918 169.713 208.918 168.66C208.918 167.607 209.165 166.667 209.658 165.84C210.152 165.013 210.832 164.367 211.698 163.9C212.578 163.433 213.578 163.2 214.698 163.2C215.752 163.2 216.672 163.413 217.458 163.84C218.258 164.267 218.858 164.88 219.258 165.68L217.338 166.8C217.032 166.307 216.645 165.94 216.178 165.7C215.725 165.447 215.225 165.32 214.678 165.32C213.745 165.32 212.972 165.627 212.358 166.24C211.745 166.84 211.438 167.647 211.438 168.66C211.438 169.673 211.738 170.487 212.338 171.1C212.952 171.7 213.732 172 214.678 172C215.225 172 215.725 171.88 216.178 171.64C216.645 171.387 217.032 171.013 217.338 170.52L219.258 171.64C218.845 172.44 218.238 173.06 217.438 173.5C216.652 173.927 215.738 174.14 214.698 174.14ZM229.822 165.44H226.082V174H223.582V165.44H219.822V163.32H229.822V165.44ZM231.635 163.32H234.135V170.36L240.035 163.32H242.315V174H239.815V166.96L233.935 174H231.635V163.32Z" fill="#2D2D2D"/>
<circle cx="154" cy="44" r="25" fill="#EC7F00"/>
<path fill-rule="evenodd" clip-rule="evenodd" d="M155.075 27.9057C154.981 27.9423 154.824 28.0809 154.767 28.1773C154.745 28.2158 154.722 28.4577 154.713 28.7721L154.696 29.3021L154.318 29.4142C154.11 29.4758 153.765 29.5999 153.551 29.6899C153.337 29.7798 153.158 29.8483 153.153 29.842C152.912 29.5387 152.536 29.1318 152.446 29.077C152.307 28.992 152.048 28.9788 151.91 29.0497C151.862 29.0746 151.431 29.4172 150.954 29.811C150.03 30.5736 149.975 30.6346 149.975 30.9031C149.975 31.0948 150.032 31.1979 150.334 31.5488C150.472 31.7092 150.604 31.8647 150.627 31.8942C150.663 31.94 150.639 31.992 150.466 32.2508C150.355 32.4174 150.177 32.7251 150.07 32.9346C149.963 33.1442 149.857 33.3154 149.835 33.3152C149.812 33.3151 149.594 33.2781 149.35 33.2332C149.079 33.1832 148.858 33.1591 148.784 33.1713C148.6 33.2012 148.412 33.3507 148.351 33.5158C148.295 33.6679 147.935 35.6473 147.936 35.7996C147.937 35.9549 148.051 36.1574 148.188 36.2456C148.282 36.3069 148.44 36.3497 148.823 36.4179L149.332 36.5087L149.374 36.8643C149.398 37.0599 149.455 37.3808 149.502 37.5775C149.549 37.7742 149.589 37.9627 149.592 37.9963C149.595 38.0424 149.485 38.1221 149.142 38.3208C148.611 38.628 148.528 38.7224 148.528 39.0181C148.527 39.1859 148.551 39.2341 149.079 40.1362C149.382 40.6547 149.671 41.1255 149.722 41.1826C149.843 41.3195 150.065 41.4026 150.229 41.3728C150.297 41.3603 150.559 41.2342 150.811 41.0926L151.268 40.8351L151.485 41.0311C151.604 41.1388 151.836 41.3293 151.998 41.4542C152.161 41.5792 152.335 41.7138 152.386 41.7534L152.477 41.8253L152.295 42.3093C152.195 42.5755 152.114 42.8454 152.114 42.909C152.115 43.0674 152.218 43.2766 152.334 43.3583C152.387 43.3956 152.901 43.5948 153.477 43.8009C154.581 44.1962 154.738 44.2314 154.941 44.1282C155.106 44.0437 155.193 43.8996 155.372 43.4091L155.548 42.9275L156.336 42.9306L157.123 42.9336L157.297 43.4064C157.393 43.6664 157.495 43.914 157.523 43.9565C157.605 44.0804 157.831 44.1882 158.002 44.1849C158.165 44.1818 160.178 43.4782 160.321 43.3742C160.364 43.3425 160.429 43.2655 160.464 43.2031C160.588 42.986 160.585 42.9121 160.435 42.4827C160.358 42.2638 160.271 42.0266 160.24 41.9555L160.185 41.8264L160.5 41.597C160.674 41.4708 160.944 41.2471 161.102 41.0999L161.388 40.8323L161.854 41.0981C162.385 41.4015 162.51 41.4339 162.747 41.3304C162.829 41.2948 162.933 41.2166 162.978 41.1565C163.024 41.0964 163.301 40.6352 163.595 40.1315C164.172 39.1416 164.204 39.0591 164.109 38.8151C164.031 38.6136 164.016 38.602 163.281 38.1848L163.049 38.0529L163.138 37.7022C163.187 37.5094 163.251 37.1697 163.28 36.9475C163.31 36.7252 163.344 36.5342 163.358 36.523C163.371 36.5118 163.602 36.4649 163.87 36.4188C164.422 36.3241 164.565 36.2577 164.666 36.0497C164.699 35.9804 164.724 35.8606 164.723 35.7793C164.718 35.5624 164.355 33.5764 164.302 33.4753C164.24 33.3575 164.083 33.2321 163.939 33.1854C163.839 33.1528 163.742 33.1606 163.307 33.2356C162.922 33.302 162.789 33.3144 162.779 33.285C162.737 33.1612 162.384 32.5239 162.215 32.266C162.106 32.1001 162.016 31.9541 162.016 31.9416C162.016 31.9291 162.144 31.7699 162.3 31.5879C162.456 31.4059 162.611 31.1987 162.645 31.1273C162.746 30.9126 162.717 30.6945 162.565 30.5315C162.453 30.4104 160.921 29.1466 160.796 29.0715C160.66 28.99 160.381 28.9807 160.239 29.0529C160.186 29.0799 160 29.2695 159.826 29.4744C159.652 29.6792 159.505 29.8468 159.5 29.8468C159.495 29.8468 159.318 29.7736 159.106 29.684C158.895 29.5945 158.556 29.472 158.354 29.4117L157.986 29.3021L157.97 28.7883C157.953 28.2545 157.928 28.1541 157.783 28.0245C157.617 27.8771 157.542 27.8692 156.318 27.8714C155.631 27.8726 155.123 27.8866 155.075 27.9057ZM157.102 31.6144C157.985 31.7639 158.833 32.1788 159.471 32.7737C160.189 33.4442 160.639 34.2321 160.853 35.1975C160.939 35.5874 160.939 36.5876 160.853 36.9779C160.652 37.8831 160.236 38.6389 159.583 39.2818C158.931 39.9246 158.164 40.335 157.245 40.5327C156.848 40.6181 155.834 40.6181 155.437 40.5327C155.113 40.463 154.575 40.2836 154.336 40.1656C152.986 39.4994 152.052 38.2733 151.802 36.8368C151.736 36.4576 151.737 35.7161 151.804 35.3231C151.913 34.6824 152.201 34.0042 152.6 33.4492C152.845 33.1078 153.38 32.5876 153.726 32.3549C154.242 32.0069 154.948 31.7198 155.535 31.619C155.914 31.5541 156.731 31.5517 157.102 31.6144ZM158.068 45.9945C157.604 46.0347 156.956 46.1357 155.782 46.3513C152.776 46.9034 151.663 47.0398 148.675 47.2226C145.27 47.4309 144.581 47.5772 143.609 48.2974C142.91 48.8152 141.886 49.8912 140.901 51.1407C140.129 52.1208 138.687 54.1569 138.677 54.2816C138.675 54.3059 139.924 55.5198 141.453 56.979L144.231 59.6322L144.43 59.4544C145.536 58.4651 146.179 57.9377 146.899 57.4304C147.645 56.9043 148.291 56.5517 148.824 56.3794L149.103 56.2889L151.176 56.265C153.038 56.2434 153.703 56.2203 155.749 56.1053C158.553 55.9477 158.68 55.9307 159.746 55.5691C161.863 54.851 164.517 53.3897 166.869 51.6474C167.991 50.8167 169.067 49.8865 169.25 49.5895C169.346 49.4339 169.347 49.0787 169.252 48.829C168.998 48.1586 167.931 47.7599 166.903 47.9509C166.022 48.1147 165.205 48.4774 163.036 49.6687C161.154 50.7024 160.413 51.0323 159.544 51.2226C158.242 51.5077 156.55 51.5251 154.749 51.272C154.255 51.2026 153.627 51.0913 153.604 51.0692C153.582 51.0471 154.567 50.7371 155.321 50.5292C157.428 49.948 157.538 49.9115 158.068 49.6166C159.088 49.0498 159.715 48.2599 159.849 47.3709C159.943 46.7483 159.664 46.1669 159.196 46.0097C159.029 45.9536 158.608 45.9479 158.068 45.9945Z" fill="white"/>
</svg>
