<svg width="236" height="162" viewBox="0 0 236 162" fill="none" xmlns="http://www.w3.org/2000/svg">
<path d="M38.2812 21.9473V39.1836L25.6836 101H6.05469L20.0684 36.1562H0.585938V21.9473H38.2812Z" fill="#E9E9E9"/>
<circle cx="120" cy="49" r="25" fill="#EC7F00"/>
<path fill-rule="evenodd" clip-rule="evenodd" d="M121.458 35.3129C121.327 35.3586 121.33 35.353 120.615 36.666C120.233 37.3676 119.916 37.9324 119.885 37.9683C119.795 38.0717 119.76 38.086 119.6 38.0858C119.523 38.0856 119.285 38.0931 119.07 38.1023C118.681 38.119 118.68 38.119 118.594 38.0863C118.54 38.0657 118.482 38.029 118.439 37.9866C118.401 37.9496 118.017 37.4173 117.585 36.8037C117.154 36.19 116.781 35.6659 116.756 35.639C116.695 35.5733 116.58 35.5216 116.495 35.5214C116.445 35.5213 116.098 35.631 115.148 35.9473C114.444 36.1817 113.855 36.3803 113.839 36.3887C113.79 36.4147 113.723 36.5002 113.695 36.5726C113.668 36.6415 113.669 36.6467 113.779 38.0413C113.883 39.3414 113.889 39.4466 113.87 39.5207C113.827 39.6839 113.792 39.718 113.328 40.0351C113.096 40.1945 112.871 40.3411 112.83 40.361C112.768 40.3908 112.733 40.3971 112.63 40.3972L112.505 40.3974L111.169 39.8503C109.991 39.3683 109.824 39.3033 109.756 39.3033C109.664 39.3033 109.596 39.3239 109.531 39.3713C109.483 39.4067 107.877 41.359 107.837 41.4307C107.804 41.4907 107.808 41.66 107.844 41.7269C107.86 41.7568 108.243 42.2611 108.695 42.8476C109.147 43.434 109.533 43.9442 109.555 43.9814C109.587 44.0393 109.593 44.0667 109.593 44.1722L109.594 44.2953L109.347 44.8741C109.081 45.498 109.059 45.5369 108.923 45.617C108.847 45.6614 108.782 45.6744 107.447 45.911C106.679 46.0472 106.021 46.1689 105.986 46.1815C105.905 46.2105 105.829 46.276 105.791 46.3492C105.756 46.4157 105.741 46.5053 105.662 47.0993C105.554 47.906 105.484 48.6747 105.484 49.0504L105.484 49.125L105.62 49.1767C105.695 49.2051 106.326 49.4337 107.024 49.6847C107.721 49.9357 108.31 50.1506 108.333 50.1623C108.383 50.188 108.487 50.2964 108.518 50.3561C108.54 50.3983 108.58 50.5943 108.734 51.4241C108.787 51.7148 108.806 51.8457 108.799 51.8878C108.78 51.9973 108.734 52.0932 108.668 52.1592C108.632 52.1949 108.154 52.6367 107.604 53.141C106.967 53.7261 106.592 54.0797 106.57 54.118C106.543 54.1652 106.536 54.1997 106.535 54.2794L106.535 54.3809L107.016 55.301C107.762 56.7262 107.685 56.5906 107.775 56.6434C107.916 56.727 107.84 56.7387 109.36 56.4017C110.866 56.0678 110.823 56.0748 110.981 56.142C111.048 56.1704 111.131 56.2493 111.603 56.7327C112.187 57.3301 112.207 57.3559 112.227 57.5182C112.235 57.5903 112.203 57.7266 111.88 58.9729C111.602 60.0487 111.527 60.3593 111.534 60.4002C111.548 60.4798 111.612 60.6006 111.657 60.6313C111.764 60.7054 113.795 61.8215 113.849 61.8358C113.93 61.8575 114.022 61.8427 114.104 61.7951C114.142 61.7727 114.586 61.3398 115.164 60.7622C116.027 59.8994 116.169 59.7635 116.235 59.7354C116.387 59.671 116.406 59.6731 117.218 59.8507C117.752 59.9676 117.977 60.0227 118.021 60.0476C118.054 60.0666 118.111 60.1141 118.146 60.153C118.209 60.2226 118.217 60.2445 118.635 61.4829C118.868 62.1754 119.073 62.7771 119.089 62.82C119.123 62.9122 119.199 63 119.282 63.0434C119.334 63.0702 119.372 63.0754 119.555 63.0801C119.921 63.0894 120.618 63.0422 121.46 62.9511C121.737 62.9211 121.891 62.8981 121.93 62.8809C122.013 62.8447 122.074 62.7897 122.112 62.7174C122.134 62.6748 122.238 62.2194 122.438 61.2802C122.758 59.7772 122.741 59.8379 122.877 59.7178C122.943 59.6588 123.002 59.6337 123.601 59.4094C124.314 59.1426 124.359 59.1309 124.512 59.1752C124.582 59.1952 124.729 59.307 125.687 60.069C126.29 60.548 126.802 60.9499 126.825 60.9622C126.887 60.9945 127.021 61.0027 127.091 60.9785C127.158 60.9556 129.084 59.524 129.182 59.4244C129.253 59.3519 129.298 59.2286 129.284 59.1419C129.279 59.1125 129.046 58.4955 128.766 57.7708C128.397 56.8151 128.255 56.4311 128.25 56.3733C128.241 56.2808 128.272 56.1623 128.325 56.083C128.392 55.9831 128.984 55.192 129.023 55.1509C129.081 55.0889 129.162 55.0423 129.253 55.019C129.331 54.999 129.395 55.0046 130.698 55.1423C131.448 55.2216 132.096 55.2865 132.139 55.2865C132.23 55.2865 132.339 55.2382 132.395 55.173C132.442 55.1177 132.427 55.1573 132.921 53.8239C133.372 52.6066 133.372 52.6084 133.331 52.4742C133.322 52.4438 133.296 52.3974 133.274 52.3711C133.252 52.3447 132.71 51.942 132.07 51.476C130.807 50.5569 130.85 50.593 130.797 50.4131C130.775 50.3404 130.776 50.2976 130.803 49.858C130.839 49.292 130.839 49.2894 130.884 49.2023C130.957 49.0609 130.968 49.0544 132.3 48.3979C132.987 48.0597 133.569 47.7653 133.596 47.7436C133.654 47.6951 133.698 47.612 133.709 47.5304C133.722 47.4386 133.155 44.8722 133.103 44.7838C133.055 44.7028 132.967 44.6413 132.872 44.6223C132.831 44.6139 132.168 44.5676 131.399 44.5194C130.631 44.4712 129.979 44.4256 129.95 44.4181C129.888 44.4019 129.783 44.3354 129.729 44.2782C129.691 44.2387 129.372 43.6748 129.287 43.4984C129.235 43.3894 129.229 43.2309 129.274 43.1335C129.289 43.1002 129.625 42.5361 130.02 41.88L130.738 40.6872L130.738 40.5712C130.737 40.4917 130.73 40.4416 130.713 40.4118C130.672 40.3363 128.768 38.4303 128.698 38.3937C128.614 38.3501 128.505 38.3384 128.428 38.3648C128.395 38.3761 127.811 38.6903 127.13 39.063C125.765 39.8106 125.807 39.7914 125.625 39.7537C125.512 39.7302 124.82 39.3434 124.748 39.2638C124.675 39.1825 124.626 39.077 124.618 38.9854C124.615 38.9411 124.59 38.2912 124.562 37.5412C124.523 36.4557 124.508 36.1671 124.491 36.1263C124.461 36.0546 124.375 35.9653 124.309 35.9366C124.234 35.9041 121.621 35.2891 121.564 35.2905C121.539 35.2912 121.491 35.3012 121.458 35.3129ZM120.092 41.0424C121.138 41.1077 122.071 41.3321 123.007 41.7435C124.444 42.3752 125.707 43.4515 126.578 44.788C127.231 45.7886 127.665 46.9773 127.81 48.1571C127.89 48.8061 127.89 49.522 127.81 50.1713C127.659 51.4012 127.214 52.593 126.518 53.6346C125.504 55.1498 124.017 56.2872 122.29 56.868C120.841 57.3555 119.254 57.4355 117.757 57.0966C116.587 56.8315 115.45 56.2945 114.513 55.5642C112.92 54.3224 111.854 52.5752 111.492 50.6133C111.297 49.5528 111.325 48.3911 111.573 47.3311C112.006 45.4699 113.099 43.8184 114.666 42.6547C115.586 41.9719 116.648 41.486 117.776 41.2322C118.238 41.1284 118.667 41.0706 119.225 41.0373C119.409 41.0263 119.879 41.029 120.092 41.0424Z" fill="white"/>
<path d="M60.1539 90V104H57.5539V98H50.3139V104H47.7139V90H50.3139V95.78H57.5539V90H60.1539ZM67.7811 93.2C69.3544 93.2 70.5544 93.58 71.3811 94.34C72.2211 95.0867 72.6411 96.22 72.6411 97.74V104H70.2811V102.7C69.9744 103.167 69.5344 103.527 68.9611 103.78C68.4011 104.02 67.7211 104.14 66.9211 104.14C66.1211 104.14 65.4211 104.007 64.8211 103.74C64.2211 103.46 63.7544 103.08 63.4211 102.6C63.1011 102.107 62.9411 101.553 62.9411 100.94C62.9411 99.98 63.2944 99.2133 64.0011 98.64C64.7211 98.0533 65.8478 97.76 67.3811 97.76H70.1411V97.6C70.1411 96.8533 69.9144 96.28 69.4611 95.88C69.0211 95.48 68.3611 95.28 67.4811 95.28C66.8811 95.28 66.2878 95.3733 65.7011 95.56C65.1278 95.7467 64.6411 96.0067 64.2411 96.34L63.2611 94.52C63.8211 94.0933 64.4944 93.7667 65.2811 93.54C66.0678 93.3133 66.9011 93.2 67.7811 93.2ZM67.4411 102.32C68.0678 102.32 68.6211 102.18 69.1011 101.9C69.5944 101.607 69.9411 101.193 70.1411 100.66V99.42H67.5611C66.1211 99.42 65.4011 99.8933 65.4011 100.84C65.4011 101.293 65.5811 101.653 65.9411 101.92C66.3011 102.187 66.8011 102.32 67.4411 102.32ZM84.7947 93.32V104H82.2947V99.86C81.268 100.353 80.1947 100.6 79.0747 100.6C77.7014 100.6 76.648 100.287 75.9147 99.66C75.1814 99.02 74.8147 98.0467 74.8147 96.74V93.32H77.3147V96.58C77.3147 97.26 77.5147 97.7667 77.9147 98.1C78.3147 98.4333 78.8814 98.6 79.6147 98.6C80.548 98.6 81.4414 98.4 82.2947 98V93.32H84.7947ZM92.1366 93.2C93.7099 93.2 94.9099 93.58 95.7366 94.34C96.5766 95.0867 96.9966 96.22 96.9966 97.74V104H94.6366V102.7C94.3299 103.167 93.8899 103.527 93.3166 103.78C92.7566 104.02 92.0766 104.14 91.2766 104.14C90.4766 104.14 89.7766 104.007 89.1766 103.74C88.5766 103.46 88.1099 103.08 87.7766 102.6C87.4566 102.107 87.2966 101.553 87.2966 100.94C87.2966 99.98 87.6499 99.2133 88.3566 98.64C89.0766 98.0533 90.2032 97.76 91.7366 97.76H94.4966V97.6C94.4966 96.8533 94.2699 96.28 93.8166 95.88C93.3766 95.48 92.7166 95.28 91.8366 95.28C91.2366 95.28 90.6432 95.3733 90.0566 95.56C89.4832 95.7467 88.9966 96.0067 88.5966 96.34L87.6166 94.52C88.1766 94.0933 88.8499 93.7667 89.6366 93.54C90.4232 93.3133 91.2566 93.2 92.1366 93.2ZM91.7966 102.32C92.4232 102.32 92.9766 102.18 93.4566 101.9C93.9499 101.607 94.2966 101.193 94.4966 100.66V99.42H91.9166C90.4766 99.42 89.7566 99.8933 89.7566 100.84C89.7566 101.293 89.9366 101.653 90.2966 101.92C90.6566 102.187 91.1566 102.32 91.7966 102.32ZM109.77 93.32V104H107.27V95.44H103.27L103.17 97.56C103.103 98.9733 102.97 100.16 102.77 101.12C102.583 102.067 102.257 102.82 101.79 103.38C101.337 103.927 100.71 104.2 99.9102 104.2C99.5368 104.2 99.0768 104.127 98.5302 103.98L98.6502 101.88C98.8368 101.92 98.9968 101.94 99.1302 101.94C99.6368 101.94 100.017 101.74 100.27 101.34C100.523 100.927 100.683 100.44 100.75 99.88C100.83 99.3067 100.897 98.4933 100.95 97.44L101.13 93.32H109.77ZM117.897 104.14C116.817 104.14 115.844 103.907 114.977 103.44C114.11 102.973 113.43 102.327 112.937 101.5C112.457 100.66 112.217 99.7133 112.217 98.66C112.217 97.6067 112.457 96.6667 112.937 95.84C113.43 95.0133 114.11 94.3667 114.977 93.9C115.844 93.4333 116.817 93.2 117.897 93.2C118.99 93.2 119.97 93.4333 120.837 93.9C121.704 94.3667 122.377 95.0133 122.857 95.84C123.35 96.6667 123.597 97.6067 123.597 98.66C123.597 99.7133 123.35 100.66 122.857 101.5C122.377 102.327 121.704 102.973 120.837 103.44C119.97 103.907 118.99 104.14 117.897 104.14ZM117.897 102C118.817 102 119.577 101.693 120.177 101.08C120.777 100.467 121.077 99.66 121.077 98.66C121.077 97.66 120.777 96.8533 120.177 96.24C119.577 95.6267 118.817 95.32 117.897 95.32C116.977 95.32 116.217 95.6267 115.617 96.24C115.03 96.8533 114.737 97.66 114.737 98.66C114.737 99.66 115.03 100.467 115.617 101.08C116.217 101.693 116.977 102 117.897 102ZM143.314 101.88V106.46H140.974V104H131.594V93.32H134.094V101.88H139.194V93.32H141.694V101.88H143.314ZM145.539 93.32H148.039V100.36L153.939 93.32H156.219V104H153.719V96.96L147.839 104H145.539V93.32ZM164.022 99.72H162.082V104H159.582V93.32H162.082V97.64H164.082L167.242 93.32H169.922L166.042 98.46L170.182 104H167.242L164.022 99.72ZM181.626 93.32V104H179.126V95.44H175.126L175.026 97.56C174.959 98.9733 174.826 100.16 174.626 101.12C174.439 102.067 174.112 102.82 173.646 103.38C173.192 103.927 172.566 104.2 171.766 104.2C171.392 104.2 170.932 104.127 170.386 103.98L170.506 101.88C170.692 101.92 170.852 101.94 170.986 101.94C171.492 101.94 171.872 101.74 172.126 101.34C172.379 100.927 172.539 100.44 172.606 99.88C172.686 99.3067 172.752 98.4933 172.806 97.44L172.986 93.32H181.626ZM188.973 93.2C190.546 93.2 191.746 93.58 192.573 94.34C193.413 95.0867 193.833 96.22 193.833 97.74V104H191.473V102.7C191.166 103.167 190.726 103.527 190.153 103.78C189.593 104.02 188.913 104.14 188.113 104.14C187.313 104.14 186.613 104.007 186.013 103.74C185.413 103.46 184.946 103.08 184.613 102.6C184.293 102.107 184.133 101.553 184.133 100.94C184.133 99.98 184.486 99.2133 185.193 98.64C185.913 98.0533 187.039 97.76 188.573 97.76H191.333V97.6C191.333 96.8533 191.106 96.28 190.653 95.88C190.213 95.48 189.553 95.28 188.673 95.28C188.073 95.28 187.479 95.3733 186.893 95.56C186.319 95.7467 185.833 96.0067 185.433 96.34L184.453 94.52C185.013 94.0933 185.686 93.7667 186.473 93.54C187.259 93.3133 188.093 93.2 188.973 93.2ZM188.633 102.32C189.259 102.32 189.813 102.18 190.293 101.9C190.786 101.607 191.133 101.193 191.333 100.66V99.42H188.753C187.313 99.42 186.593 99.8933 186.593 100.84C186.593 101.293 186.773 101.653 187.133 101.92C187.493 102.187 187.993 102.32 188.633 102.32ZM48.1175 117.32H50.6175V124.36L56.5175 117.32H58.7975V128H56.2975V120.96L50.4175 128H48.1175V117.32ZM68.4038 122.44C69.0704 122.627 69.5838 122.933 69.9438 123.36C70.3171 123.773 70.5038 124.273 70.5038 124.86C70.5038 125.513 70.2838 126.093 69.8438 126.6C69.4038 127.093 68.7971 127.48 68.0238 127.76C67.2504 128.04 66.3704 128.18 65.3838 128.18C64.5571 128.18 63.7504 128.087 62.9638 127.9C62.1771 127.7 61.4638 127.42 60.8238 127.06L61.5438 125.2C62.0638 125.493 62.6504 125.72 63.3038 125.88C63.9571 126.04 64.6104 126.12 65.2638 126.12C66.1038 126.12 66.7571 125.993 67.2238 125.74C67.7038 125.473 67.9438 125.113 67.9438 124.66C67.9438 124.247 67.7571 123.927 67.3838 123.7C67.0238 123.473 66.5104 123.36 65.8438 123.36H63.7638V121.68H65.6438C66.2704 121.68 66.7571 121.573 67.1038 121.36C67.4638 121.147 67.6438 120.847 67.6438 120.46C67.6438 120.073 67.4304 119.767 67.0038 119.54C66.5771 119.313 65.9904 119.2 65.2438 119.2C64.1771 119.2 63.0504 119.46 61.8638 119.98L61.2238 118.14C62.6238 117.487 64.0371 117.16 65.4638 117.16C66.3704 117.16 67.1838 117.287 67.9038 117.54C68.6238 117.78 69.1838 118.127 69.5838 118.58C69.9971 119.02 70.2038 119.527 70.2038 120.1C70.2038 120.62 70.0438 121.087 69.7238 121.5C69.4038 121.9 68.9638 122.213 68.4038 122.44ZM81.298 119.44H75.598V128H73.098V117.32H81.298V119.44ZM87.4088 128.14C86.3288 128.14 85.3554 127.907 84.4888 127.44C83.6221 126.973 82.9421 126.327 82.4488 125.5C81.9688 124.66 81.7288 123.713 81.7288 122.66C81.7288 121.607 81.9688 120.667 82.4488 119.84C82.9421 119.013 83.6221 118.367 84.4888 117.9C85.3554 117.433 86.3288 117.2 87.4088 117.2C88.5021 117.2 89.4821 117.433 90.3488 117.9C91.2154 118.367 91.8888 119.013 92.3688 119.84C92.8621 120.667 93.1088 121.607 93.1088 122.66C93.1088 123.713 92.8621 124.66 92.3688 125.5C91.8888 126.327 91.2154 126.973 90.3488 127.44C89.4821 127.907 88.5021 128.14 87.4088 128.14ZM87.4088 126C88.3288 126 89.0888 125.693 89.6888 125.08C90.2888 124.467 90.5888 123.66 90.5888 122.66C90.5888 121.66 90.2888 120.853 89.6888 120.24C89.0888 119.627 88.3288 119.32 87.4088 119.32C86.4888 119.32 85.7288 119.627 85.1288 120.24C84.5421 120.853 84.2488 121.66 84.2488 122.66C84.2488 123.66 84.5421 124.467 85.1288 125.08C85.7288 125.693 86.4888 126 87.4088 126ZM103.648 119.44H99.9078V128H97.4078V119.44H93.6478V117.32H103.648V119.44ZM109.753 128.14C108.673 128.14 107.699 127.907 106.833 127.44C105.966 126.973 105.286 126.327 104.793 125.5C104.313 124.66 104.073 123.713 104.073 122.66C104.073 121.607 104.313 120.667 104.793 119.84C105.286 119.013 105.966 118.367 106.833 117.9C107.699 117.433 108.673 117.2 109.753 117.2C110.846 117.2 111.826 117.433 112.693 117.9C113.559 118.367 114.233 119.013 114.713 119.84C115.206 120.667 115.453 121.607 115.453 122.66C115.453 123.713 115.206 124.66 114.713 125.5C114.233 126.327 113.559 126.973 112.693 127.44C111.826 127.907 110.846 128.14 109.753 128.14ZM109.753 126C110.673 126 111.433 125.693 112.033 125.08C112.633 124.467 112.933 123.66 112.933 122.66C112.933 121.66 112.633 120.853 112.033 120.24C111.433 119.627 110.673 119.32 109.753 119.32C108.833 119.32 108.073 119.627 107.473 120.24C106.886 120.853 106.593 121.66 106.593 122.66C106.593 123.66 106.886 124.467 107.473 125.08C108.073 125.693 108.833 126 109.753 126ZM125.662 122.44C126.982 122.84 127.642 123.693 127.642 125C127.642 125.96 127.282 126.7 126.562 127.22C125.842 127.74 124.776 128 123.362 128H117.922V117.32H123.142C124.449 117.32 125.469 117.56 126.202 118.04C126.936 118.52 127.302 119.2 127.302 120.08C127.302 120.627 127.156 121.1 126.862 121.5C126.582 121.9 126.182 122.213 125.662 122.44ZM120.302 121.78H122.922C124.216 121.78 124.862 121.333 124.862 120.44C124.862 119.573 124.216 119.14 122.922 119.14H120.302V121.78ZM123.162 126.18C124.536 126.18 125.222 125.733 125.222 124.84C125.222 124.373 125.062 124.027 124.742 123.8C124.422 123.56 123.922 123.44 123.242 123.44H120.302V126.18H123.162ZM139.985 117.32V128H137.485V119.44H133.485L133.385 121.56C133.318 122.973 133.185 124.16 132.985 125.12C132.798 126.067 132.472 126.82 132.005 127.38C131.552 127.927 130.925 128.2 130.125 128.2C129.752 128.2 129.292 128.127 128.745 127.98L128.865 125.88C129.052 125.92 129.212 125.94 129.345 125.94C129.852 125.94 130.232 125.74 130.485 125.34C130.738 124.927 130.898 124.44 130.965 123.88C131.045 123.307 131.112 122.493 131.165 121.44L131.345 117.32H139.985ZM153.352 122.72C153.352 122.893 153.339 123.14 153.312 123.46H144.932C145.079 124.247 145.459 124.873 146.072 125.34C146.699 125.793 147.472 126.02 148.392 126.02C149.565 126.02 150.532 125.633 151.292 124.86L152.632 126.4C152.152 126.973 151.545 127.407 150.812 127.7C150.079 127.993 149.252 128.14 148.332 128.14C147.159 128.14 146.125 127.907 145.232 127.44C144.339 126.973 143.645 126.327 143.152 125.5C142.672 124.66 142.432 123.713 142.432 122.66C142.432 121.62 142.665 120.687 143.132 119.86C143.612 119.02 144.272 118.367 145.112 117.9C145.952 117.433 146.899 117.2 147.952 117.2C148.992 117.2 149.919 117.433 150.732 117.9C151.559 118.353 152.199 119 152.652 119.84C153.119 120.667 153.352 121.627 153.352 122.72ZM147.952 119.2C147.152 119.2 146.472 119.44 145.912 119.92C145.365 120.387 145.032 121.013 144.912 121.8H150.972C150.865 121.027 150.539 120.4 149.992 119.92C149.445 119.44 148.765 119.2 147.952 119.2ZM156.086 117.32H158.586V121.66H163.966V117.32H166.466V128H163.966V123.78H158.586V128H156.086V117.32ZM169.817 117.32H172.317V124.36L178.217 117.32H180.497V128H177.997V120.96L172.117 128H169.817V117.32ZM192.88 117.32V128H190.64V124.78H187.82L185.64 128H182.96L185.48 124.44C184.706 124.173 184.113 123.767 183.7 123.22C183.3 122.66 183.1 121.973 183.1 121.16C183.1 119.933 183.533 118.987 184.4 118.32C185.266 117.653 186.46 117.32 187.98 117.32H192.88ZM188.06 119.42C186.446 119.42 185.64 120.027 185.64 121.24C185.64 122.44 186.42 123.04 187.98 123.04H190.64V119.42H188.06ZM91.7425 152V144.92L88.1425 150.88H87.0625L83.5225 144.9V152H81.2425V141.32H83.8625L87.6625 148L91.6425 141.32H93.9825L94.0025 152H91.7425ZM107.356 146.72C107.356 146.893 107.342 147.14 107.316 147.46H98.9358C99.0824 148.247 99.4624 148.873 100.076 149.34C100.702 149.793 101.476 150.02 102.396 150.02C103.569 150.02 104.536 149.633 105.296 148.86L106.636 150.4C106.156 150.973 105.549 151.407 104.816 151.7C104.082 151.993 103.256 152.14 102.336 152.14C101.162 152.14 100.129 151.907 99.2358 151.44C98.3424 150.973 97.6491 150.327 97.1558 149.5C96.6758 148.66 96.4358 147.713 96.4358 146.66C96.4358 145.62 96.6691 144.687 97.1358 143.86C97.6158 143.02 98.2758 142.367 99.1158 141.9C99.9558 141.433 100.902 141.2 101.956 141.2C102.996 141.2 103.922 141.433 104.736 141.9C105.562 142.353 106.202 143 106.656 143.84C107.122 144.667 107.356 145.627 107.356 146.72ZM101.956 143.2C101.156 143.2 100.476 143.44 99.9158 143.92C99.3691 144.387 99.0358 145.013 98.9158 145.8H104.976C104.869 145.027 104.542 144.4 103.996 143.92C103.449 143.44 102.769 143.2 101.956 143.2ZM115.87 141.84C116.883 141.84 117.777 142.06 118.55 142.5C119.323 142.927 119.923 143.527 120.35 144.3C120.79 145.073 121.01 145.96 121.01 146.96C121.01 147.987 120.77 148.9 120.29 149.7C119.81 150.487 119.137 151.1 118.27 151.54C117.403 151.98 116.417 152.2 115.31 152.2C113.457 152.2 112.023 151.587 111.01 150.36C109.997 149.133 109.49 147.367 109.49 145.06C109.49 142.913 109.95 141.213 110.87 139.96C111.79 138.707 113.197 137.88 115.09 137.48L120.05 136.42L120.41 138.66L115.91 139.58C114.617 139.847 113.65 140.3 113.01 140.94C112.37 141.58 111.997 142.48 111.89 143.64C112.37 143.067 112.95 142.627 113.63 142.32C114.31 142 115.057 141.84 115.87 141.84ZM115.37 150.18C116.29 150.18 117.03 149.887 117.59 149.3C118.163 148.7 118.45 147.94 118.45 147.02C118.45 146.1 118.163 145.36 117.59 144.8C117.03 144.24 116.29 143.96 115.37 143.96C114.437 143.96 113.683 144.24 113.11 144.8C112.537 145.36 112.25 146.1 112.25 147.02C112.25 147.953 112.537 148.713 113.11 149.3C113.697 149.887 114.45 150.18 115.37 150.18ZM133.43 146.72C133.43 146.893 133.417 147.14 133.39 147.46H125.01C125.157 148.247 125.537 148.873 126.15 149.34C126.777 149.793 127.55 150.02 128.47 150.02C129.643 150.02 130.61 149.633 131.37 148.86L132.71 150.4C132.23 150.973 131.623 151.407 130.89 151.7C130.157 151.993 129.33 152.14 128.41 152.14C127.237 152.14 126.203 151.907 125.31 151.44C124.417 150.973 123.723 150.327 123.23 149.5C122.75 148.66 122.51 147.713 122.51 146.66C122.51 145.62 122.743 144.687 123.21 143.86C123.69 143.02 124.35 142.367 125.19 141.9C126.03 141.433 126.977 141.2 128.03 141.2C129.07 141.2 129.997 141.433 130.81 141.9C131.637 142.353 132.277 143 132.73 143.84C133.197 144.667 133.43 145.627 133.43 146.72ZM128.03 143.2C127.23 143.2 126.55 143.44 125.99 143.92C125.443 144.387 125.11 145.013 124.99 145.8H131.05C130.943 145.027 130.617 144.4 130.07 143.92C129.523 143.44 128.843 143.2 128.03 143.2ZM145.708 141.32V152H143.208V143.44H139.208L139.108 145.56C139.041 146.973 138.908 148.16 138.708 149.12C138.521 150.067 138.194 150.82 137.728 151.38C137.274 151.927 136.648 152.2 135.848 152.2C135.474 152.2 135.014 152.127 134.468 151.98L134.588 149.88C134.774 149.92 134.934 149.94 135.068 149.94C135.574 149.94 135.954 149.74 136.208 149.34C136.461 148.927 136.621 148.44 136.688 147.88C136.768 147.307 136.834 146.493 136.888 145.44L137.068 141.32H145.708ZM149.075 141.32H151.575V148.36L157.475 141.32H159.755V152H157.255V144.96L151.375 152H149.075V141.32Z" fill="#2D2D2D"/>
</svg>
