<svg width="291" height="162" viewBox="0 0 291 162" fill="none" xmlns="http://www.w3.org/2000/svg">
<path d="M41.1621 56.1758C44.0592 57.3477 46.2891 59.1055 47.8516 61.4492C49.4141 63.7604 50.1953 69.2943 50.1953 78.0508C50.1953 84.431 49.5768 89.1348 48.3398 92.1621C47.1029 95.1895 44.694 97.6797 41.1133 99.6328C37.5326 101.553 32.7311 102.514 26.709 102.514C20.8496 102.514 16.2109 101.586 12.793 99.7305C9.375 97.875 6.91732 95.4173 5.41992 92.3574C3.95508 89.2975 3.22266 84.2031 3.22266 77.0742C3.22266 72.2891 3.58073 68.1387 4.29688 64.623C5.04557 61.1074 7.35677 58.2917 11.2305 56.1758C8.78906 55.0039 6.94987 53.1484 5.71289 50.6094C4.50846 48.0378 3.90625 44.7826 3.90625 40.8438C3.90625 34.0404 5.79427 28.946 9.57031 25.5605C13.3464 22.1426 18.9941 20.4336 26.5137 20.4336C35.2051 20.4336 41.2109 22.2402 44.5312 25.8535C47.8516 29.4668 49.5117 34.6263 49.5117 41.332C49.5117 45.5964 48.9583 48.6725 47.8516 50.5605C46.7773 52.4486 44.5475 54.3203 41.1621 56.1758ZM30.0781 39.1836C30.0781 36.5143 29.834 34.7565 29.3457 33.9102C28.89 33.0312 27.9948 32.5918 26.6602 32.5918C25.3581 32.5918 24.4792 33.0638 24.0234 34.0078C23.5677 34.9193 23.3398 36.6445 23.3398 39.1836V45.1895C23.3398 47.5658 23.6003 49.2096 24.1211 50.1211C24.6419 51.0326 25.5208 51.4883 26.7578 51.4883C28.0599 51.4883 28.9388 51.0488 29.3945 50.1699C29.8503 49.2585 30.0781 47.403 30.0781 44.6035V39.1836ZM30.4688 72.0449C30.4688 69.0176 30.1595 67.0156 29.541 66.0391C28.9225 65.0299 27.946 64.5254 26.6113 64.5254C25.3092 64.5254 24.3652 65.0137 23.7793 65.9902C23.2259 66.9342 22.9492 68.9525 22.9492 72.0449V82.2988C22.9492 85.7168 23.2585 87.9141 23.877 88.8906C24.528 89.8672 25.5371 90.3555 26.9043 90.3555C28.304 90.3555 29.248 89.8672 29.7363 88.8906C30.2246 87.8815 30.4688 85.6354 30.4688 82.1523V72.0449Z" fill="#E9E9E9"/>
<circle cx="170" cy="47" r="25" fill="#EC7F00"/>
<path fill-rule="evenodd" clip-rule="evenodd" d="M161.859 33.3741C161.362 33.5079 160.933 33.825 160.647 34.2709C160.303 34.8056 160.324 34.154 160.323 44.3771L160.323 53.6996H164.018H167.714V43.4951V33.2905L164.929 33.2941C162.713 33.2969 162.085 33.3133 161.859 33.3741ZM168.652 43.4815L168.665 53.6725L170.991 53.6866L173.317 53.7008L173.301 54.148L173.285 54.5952L166.804 54.609L160.323 54.6228L160.324 57.7029C160.326 60.9539 160.321 60.882 160.577 61.0185C160.666 61.0656 162.663 61.0816 168.466 61.0816C175.785 61.0816 176.242 61.0761 176.35 60.9866C176.417 60.9314 176.643 60.4483 176.89 59.8332L177.314 58.7747H178.856H180.399L180.823 59.8332C181.069 60.4483 181.295 60.9314 181.362 60.9866C181.46 61.0677 181.596 61.0816 182.284 61.0816C183.131 61.0816 183.313 61.0436 183.416 60.8449C183.452 60.7755 183.482 60.3356 183.49 59.7518L183.503 58.7747L183.848 58.7474C184.448 58.6997 184.4 59.0334 184.4 54.9149V51.3656H184.675C184.962 51.3656 185.142 51.2997 185.254 51.1532C185.301 51.0921 185.321 50.7425 185.322 49.9502C185.324 48.8519 185.322 48.8314 185.198 48.7153L185.072 48.5973H180.578H176.084V41.9555C176.084 37.721 176.065 35.2091 176.03 35.0253C175.867 34.171 175.246 33.5286 174.41 33.3515C174.219 33.311 173.204 33.2905 171.38 33.2905H168.638L168.652 43.4815ZM165.733 41.7828C165.863 41.9131 165.866 41.9351 165.866 42.7796C165.866 43.6402 165.866 43.6436 165.723 43.7862C165.532 43.9771 165.279 43.9783 165.101 43.7894C164.984 43.6645 164.968 43.5921 164.951 43.117L164.933 42.5845L164.396 42.563C163.922 42.544 163.844 42.5266 163.722 42.4118C163.543 42.2442 163.534 41.9534 163.702 41.7752C163.816 41.6538 163.85 41.6496 164.71 41.6496C165.582 41.6496 165.602 41.6522 165.733 41.7828ZM172.69 41.7828C172.863 41.9553 172.864 42.1938 172.692 42.3929C172.567 42.5379 172.535 42.546 172.019 42.5636L171.477 42.5821L171.455 43.1266C171.434 43.6414 171.425 43.6781 171.283 43.8002C171.098 43.9592 170.873 43.9654 170.684 43.8168L170.541 43.7043V42.7894V41.8746L170.684 41.7621C170.815 41.659 170.899 41.6496 171.692 41.6496C172.537 41.6496 172.559 41.6525 172.69 41.7828ZM184.443 49.9679L184.427 50.4157L178.87 50.4295L173.312 50.4433V49.9817V49.5201H178.886H184.459L184.443 49.9679ZM183.476 52.7497V54.1338H178.856H174.236V52.7497V51.3656H178.856H183.476V52.7497ZM176.723 52.3956C176.557 52.5265 176.514 52.715 176.603 52.9258C176.72 53.2058 176.812 53.2165 178.952 53.1995C180.903 53.1841 180.92 53.183 181.04 53.063C181.218 52.8848 181.205 52.5833 181.011 52.417L180.861 52.2883H178.861C176.95 52.2883 176.854 52.2932 176.723 52.3956ZM183.476 56.4407V57.8248H178.856H174.236V56.4407V55.0566H178.856H183.476V56.4407ZM176.778 56.0643C176.52 56.2043 176.487 56.5749 176.715 56.78C176.851 56.9019 176.854 56.9021 178.847 56.9021C180.589 56.9021 180.859 56.891 180.967 56.8152C181.25 56.6173 181.223 56.2166 180.917 56.0582C180.689 55.9405 176.996 55.946 176.778 56.0643ZM170.343 56.5804C170.452 56.6661 170.486 56.7403 170.484 56.8925C170.481 57.3076 170.29 57.3906 169.341 57.3906H168.638V57.7068C168.638 57.966 168.616 58.0429 168.516 58.133C168.334 58.2961 168.217 58.3206 168.018 58.2373C167.815 58.1529 167.714 57.9402 167.714 57.5996V57.3906H167.043C166.243 57.3906 166.047 57.3364 165.943 57.0878C165.859 56.8881 165.884 56.7713 166.047 56.59L166.157 56.4679H168.178C170.141 56.4679 170.204 56.4711 170.343 56.5804ZM176.279 58.8426C176.262 58.8948 176.143 59.2063 176.014 59.5346L175.781 60.1317L175.471 60.148L175.16 60.1643V59.4559V58.7476H175.735C176.257 58.7476 176.306 58.7562 176.279 58.8426ZM182.552 59.4559V60.1643L182.246 60.148L181.94 60.1317L181.676 59.4532C181.53 59.0801 181.411 58.7686 181.411 58.7612C181.411 58.7537 181.668 58.7476 181.981 58.7476H182.552V59.4559Z" fill="white"/>
<path d="M78.5212 96.7C79.3612 96.9667 80.0145 97.4 80.4812 98C80.9612 98.5867 81.2012 99.28 81.2012 100.08C81.2012 100.92 80.9278 101.653 80.3812 102.28C79.8345 102.893 79.1012 103.367 78.1812 103.7C77.2745 104.033 76.2812 104.2 75.2012 104.2C74.2678 104.2 73.3278 104.073 72.3812 103.82C71.4478 103.553 70.5812 103.16 69.7812 102.64L70.6212 100.74C71.2345 101.153 71.9145 101.473 72.6612 101.7C73.4078 101.913 74.1478 102.02 74.8812 102.02C75.9345 102.02 76.8078 101.813 77.5012 101.4C78.2078 100.987 78.5612 100.42 78.5612 99.7C78.5612 99.0867 78.3078 98.62 77.8012 98.3C77.2945 97.98 76.5945 97.82 75.7012 97.82H72.4412V95.78H75.5012C76.2745 95.78 76.8812 95.62 77.3212 95.3C77.7612 94.98 77.9812 94.5467 77.9812 94C77.9812 93.3467 77.6812 92.84 77.0812 92.48C76.4945 92.12 75.7412 91.94 74.8212 91.94C74.1945 91.94 73.5478 92.0333 72.8812 92.22C72.2145 92.3933 71.5878 92.6533 71.0012 93L70.1812 90.9C70.9012 90.5133 71.6612 90.2267 72.4612 90.04C73.2745 89.84 74.0812 89.74 74.8812 89.74C75.9212 89.74 76.8745 89.9 77.7412 90.22C78.6212 90.54 79.3212 91 79.8412 91.6C80.3612 92.1867 80.6212 92.88 80.6212 93.68C80.6212 94.3733 80.4345 94.98 80.0612 95.5C79.6878 96.02 79.1745 96.42 78.5212 96.7ZM87.8495 93.2C89.4228 93.2 90.6228 93.58 91.4495 94.34C92.2895 95.0867 92.7095 96.22 92.7095 97.74V104H90.3495V102.7C90.0428 103.167 89.6028 103.527 89.0295 103.78C88.4695 104.02 87.7895 104.14 86.9895 104.14C86.1895 104.14 85.4895 104.007 84.8895 103.74C84.2895 103.46 83.8228 103.08 83.4895 102.6C83.1695 102.107 83.0095 101.553 83.0095 100.94C83.0095 99.98 83.3628 99.2133 84.0695 98.64C84.7895 98.0533 85.9161 97.76 87.4495 97.76H90.2095V97.6C90.2095 96.8533 89.9828 96.28 89.5295 95.88C89.0895 95.48 88.4295 95.28 87.5495 95.28C86.9495 95.28 86.3561 95.3733 85.7695 95.56C85.1961 95.7467 84.7095 96.0067 84.3095 96.34L83.3295 94.52C83.8895 94.0933 84.5628 93.7667 85.3495 93.54C86.1361 93.3133 86.9695 93.2 87.8495 93.2ZM87.5095 102.32C88.1361 102.32 88.6895 102.18 89.1695 101.9C89.6628 101.607 90.0095 101.193 90.2095 100.66V99.42H87.6295C86.1895 99.42 85.4695 99.8933 85.4695 100.84C85.4695 101.293 85.6495 101.653 86.0095 101.92C86.3695 102.187 86.8695 102.32 87.5095 102.32ZM103.543 98.44C104.863 98.84 105.523 99.6933 105.523 101C105.523 101.96 105.163 102.7 104.443 103.22C103.723 103.74 102.656 104 101.243 104H95.803V93.32H101.023C102.33 93.32 103.35 93.56 104.083 94.04C104.816 94.52 105.183 95.2 105.183 96.08C105.183 96.6267 105.036 97.1 104.743 97.5C104.463 97.9 104.063 98.2133 103.543 98.44ZM98.183 97.78H100.803C102.096 97.78 102.743 97.3333 102.743 96.44C102.743 95.5733 102.096 95.14 100.803 95.14H98.183V97.78ZM101.043 102.18C102.416 102.18 103.103 101.733 103.103 100.84C103.103 100.373 102.943 100.027 102.623 99.8C102.303 99.56 101.803 99.44 101.123 99.44H98.183V102.18H101.043ZM118.186 98.72C118.186 98.8933 118.173 99.14 118.146 99.46H109.766C109.913 100.247 110.293 100.873 110.906 101.34C111.533 101.793 112.306 102.02 113.226 102.02C114.399 102.02 115.366 101.633 116.126 100.86L117.466 102.4C116.986 102.973 116.379 103.407 115.646 103.7C114.913 103.993 114.086 104.14 113.166 104.14C111.993 104.14 110.959 103.907 110.066 103.44C109.173 102.973 108.479 102.327 107.986 101.5C107.506 100.66 107.266 99.7133 107.266 98.66C107.266 97.62 107.499 96.6867 107.966 95.86C108.446 95.02 109.106 94.3667 109.946 93.9C110.786 93.4333 111.733 93.2 112.786 93.2C113.826 93.2 114.753 93.4333 115.566 93.9C116.393 94.3533 117.033 95 117.486 95.84C117.953 96.6667 118.186 97.6267 118.186 98.72ZM112.786 95.2C111.986 95.2 111.306 95.44 110.746 95.92C110.199 96.3867 109.866 97.0133 109.746 97.8H115.806C115.699 97.0267 115.373 96.4 114.826 95.92C114.279 95.44 113.599 95.2 112.786 95.2ZM126.84 93.2C127.88 93.2 128.807 93.4267 129.62 93.88C130.447 94.3333 131.094 94.9733 131.56 95.8C132.027 96.6267 132.26 97.58 132.26 98.66C132.26 99.74 132.027 100.7 131.56 101.54C131.094 102.367 130.447 103.007 129.62 103.46C128.807 103.913 127.88 104.14 126.84 104.14C125.4 104.14 124.26 103.66 123.42 102.7V107.88H120.92V93.32H123.3V94.72C123.714 94.2133 124.22 93.8333 124.82 93.58C125.434 93.3267 126.107 93.2 126.84 93.2ZM126.56 102C127.48 102 128.234 101.693 128.82 101.08C129.42 100.467 129.72 99.66 129.72 98.66C129.72 97.66 129.42 96.8533 128.82 96.24C128.234 95.6267 127.48 95.32 126.56 95.32C125.96 95.32 125.42 95.46 124.94 95.74C124.46 96.0067 124.08 96.3933 123.8 96.9C123.52 97.4067 123.38 97.9933 123.38 98.66C123.38 99.3267 123.52 99.9133 123.8 100.42C124.08 100.927 124.46 101.32 124.94 101.6C125.42 101.867 125.96 102 126.56 102ZM150.488 93.32V104H134.748V93.32H137.248V101.88H141.388V93.32H143.888V101.88H147.988V93.32H150.488ZM163.85 98.72C163.85 98.8933 163.837 99.14 163.81 99.46H155.43C155.577 100.247 155.957 100.873 156.57 101.34C157.197 101.793 157.97 102.02 158.89 102.02C160.063 102.02 161.03 101.633 161.79 100.86L163.13 102.4C162.65 102.973 162.043 103.407 161.31 103.7C160.577 103.993 159.75 104.14 158.83 104.14C157.657 104.14 156.623 103.907 155.73 103.44C154.837 102.973 154.143 102.327 153.65 101.5C153.17 100.66 152.93 99.7133 152.93 98.66C152.93 97.62 153.163 96.6867 153.63 95.86C154.11 95.02 154.77 94.3667 155.61 93.9C156.45 93.4333 157.397 93.2 158.45 93.2C159.49 93.2 160.417 93.4333 161.23 93.9C162.057 94.3533 162.697 95 163.15 95.84C163.617 96.6667 163.85 97.6267 163.85 98.72ZM158.45 95.2C157.65 95.2 156.97 95.44 156.41 95.92C155.863 96.3867 155.53 97.0133 155.41 97.8H161.47C161.363 97.0267 161.037 96.4 160.49 95.92C159.943 95.44 159.263 95.2 158.45 95.2ZM166.584 93.32H169.084V97.66H174.464V93.32H176.964V104H174.464V99.78H169.084V104H166.584V93.32ZM180.315 93.32H182.815V100.36L188.715 93.32H190.995V104H188.495V96.96L182.615 104H180.315V93.32ZM204.358 98.72C204.358 98.8933 204.344 99.14 204.318 99.46H195.938C196.084 100.247 196.464 100.873 197.078 101.34C197.704 101.793 198.478 102.02 199.398 102.02C200.571 102.02 201.538 101.633 202.298 100.86L203.638 102.4C203.158 102.973 202.551 103.407 201.818 103.7C201.084 103.993 200.258 104.14 199.338 104.14C198.164 104.14 197.131 103.907 196.238 103.44C195.344 102.973 194.651 102.327 194.158 101.5C193.678 100.66 193.438 99.7133 193.438 98.66C193.438 97.62 193.671 96.6867 194.138 95.86C194.618 95.02 195.278 94.3667 196.118 93.9C196.958 93.4333 197.904 93.2 198.958 93.2C199.998 93.2 200.924 93.4333 201.738 93.9C202.564 94.3533 203.204 95 203.658 95.84C204.124 96.6667 204.358 97.6267 204.358 98.72ZM198.958 95.2C198.158 95.2 197.478 95.44 196.918 95.92C196.371 96.3867 196.038 97.0133 195.918 97.8H201.978C201.871 97.0267 201.544 96.4 200.998 95.92C200.451 95.44 199.771 95.2 198.958 95.2ZM224.339 101.88V106.46H221.999V104H212.619V93.32H215.119V101.88H220.219V93.32H222.719V101.88H224.339ZM226.565 93.32H229.065V100.36L234.965 93.32H237.245V104H234.745V96.96L228.865 104H226.565V93.32ZM245.048 99.72H243.108V104H240.608V93.32H243.108V97.64H245.108L248.268 93.32H250.948L247.068 98.46L251.208 104H248.268L245.048 99.72ZM262.651 93.32V104H260.151V95.44H256.151L256.051 97.56C255.984 98.9733 255.851 100.16 255.651 101.12C255.464 102.067 255.138 102.82 254.671 103.38C254.218 103.927 253.591 104.2 252.791 104.2C252.418 104.2 251.958 104.127 251.411 103.98L251.531 101.88C251.718 101.92 251.878 101.94 252.011 101.94C252.518 101.94 252.898 101.74 253.151 101.34C253.404 100.927 253.564 100.44 253.631 99.88C253.711 99.3067 253.778 98.4933 253.831 97.44L254.011 93.32H262.651ZM269.998 93.2C271.571 93.2 272.771 93.58 273.598 94.34C274.438 95.0867 274.858 96.22 274.858 97.74V104H272.498V102.7C272.191 103.167 271.751 103.527 271.178 103.78C270.618 104.02 269.938 104.14 269.138 104.14C268.338 104.14 267.638 104.007 267.038 103.74C266.438 103.46 265.971 103.08 265.638 102.6C265.318 102.107 265.158 101.553 265.158 100.94C265.158 99.98 265.511 99.2133 266.218 98.64C266.938 98.0533 268.065 97.76 269.598 97.76H272.358V97.6C272.358 96.8533 272.131 96.28 271.678 95.88C271.238 95.48 270.578 95.28 269.698 95.28C269.098 95.28 268.505 95.3733 267.918 95.56C267.345 95.7467 266.858 96.0067 266.458 96.34L265.478 94.52C266.038 94.0933 266.711 93.7667 267.498 93.54C268.285 93.3133 269.118 93.2 269.998 93.2ZM269.658 102.32C270.285 102.32 270.838 102.18 271.318 101.9C271.811 101.607 272.158 101.193 272.358 100.66V99.42H269.778C268.338 99.42 267.618 99.8933 267.618 100.84C267.618 101.293 267.798 101.653 268.158 101.92C268.518 102.187 269.018 102.32 269.658 102.32ZM103.118 117.32H105.618V124.36L111.518 117.32H113.798V128H111.298V120.96L105.418 128H103.118V117.32ZM123.404 122.44C124.07 122.627 124.584 122.933 124.944 123.36C125.317 123.773 125.504 124.273 125.504 124.86C125.504 125.513 125.284 126.093 124.844 126.6C124.404 127.093 123.797 127.48 123.024 127.76C122.25 128.04 121.37 128.18 120.384 128.18C119.557 128.18 118.75 128.087 117.964 127.9C117.177 127.7 116.464 127.42 115.824 127.06L116.544 125.2C117.064 125.493 117.65 125.72 118.304 125.88C118.957 126.04 119.61 126.12 120.264 126.12C121.104 126.12 121.757 125.993 122.224 125.74C122.704 125.473 122.944 125.113 122.944 124.66C122.944 124.247 122.757 123.927 122.384 123.7C122.024 123.473 121.51 123.36 120.844 123.36H118.764V121.68H120.644C121.27 121.68 121.757 121.573 122.104 121.36C122.464 121.147 122.644 120.847 122.644 120.46C122.644 120.073 122.43 119.767 122.004 119.54C121.577 119.313 120.99 119.2 120.244 119.2C119.177 119.2 118.05 119.46 116.864 119.98L116.224 118.14C117.624 117.487 119.037 117.16 120.464 117.16C121.37 117.16 122.184 117.287 122.904 117.54C123.624 117.78 124.184 118.127 124.584 118.58C124.997 119.02 125.204 119.527 125.204 120.1C125.204 120.62 125.044 121.087 124.724 121.5C124.404 121.9 123.964 122.213 123.404 122.44ZM136.298 119.44H130.598V128H128.098V117.32H136.298V119.44ZM142.409 128.14C141.329 128.14 140.355 127.907 139.489 127.44C138.622 126.973 137.942 126.327 137.449 125.5C136.969 124.66 136.729 123.713 136.729 122.66C136.729 121.607 136.969 120.667 137.449 119.84C137.942 119.013 138.622 118.367 139.489 117.9C140.355 117.433 141.329 117.2 142.409 117.2C143.502 117.2 144.482 117.433 145.349 117.9C146.215 118.367 146.889 119.013 147.369 119.84C147.862 120.667 148.109 121.607 148.109 122.66C148.109 123.713 147.862 124.66 147.369 125.5C146.889 126.327 146.215 126.973 145.349 127.44C144.482 127.907 143.502 128.14 142.409 128.14ZM142.409 126C143.329 126 144.089 125.693 144.689 125.08C145.289 124.467 145.589 123.66 145.589 122.66C145.589 121.66 145.289 120.853 144.689 120.24C144.089 119.627 143.329 119.32 142.409 119.32C141.489 119.32 140.729 119.627 140.129 120.24C139.542 120.853 139.249 121.66 139.249 122.66C139.249 123.66 139.542 124.467 140.129 125.08C140.729 125.693 141.489 126 142.409 126ZM158.648 119.44H154.908V128H152.408V119.44H148.648V117.32H158.648V119.44ZM164.753 128.14C163.673 128.14 162.699 127.907 161.833 127.44C160.966 126.973 160.286 126.327 159.793 125.5C159.313 124.66 159.073 123.713 159.073 122.66C159.073 121.607 159.313 120.667 159.793 119.84C160.286 119.013 160.966 118.367 161.833 117.9C162.699 117.433 163.673 117.2 164.753 117.2C165.846 117.2 166.826 117.433 167.693 117.9C168.559 118.367 169.233 119.013 169.713 119.84C170.206 120.667 170.453 121.607 170.453 122.66C170.453 123.713 170.206 124.66 169.713 125.5C169.233 126.327 168.559 126.973 167.693 127.44C166.826 127.907 165.846 128.14 164.753 128.14ZM164.753 126C165.673 126 166.433 125.693 167.033 125.08C167.633 124.467 167.933 123.66 167.933 122.66C167.933 121.66 167.633 120.853 167.033 120.24C166.433 119.627 165.673 119.32 164.753 119.32C163.833 119.32 163.073 119.627 162.473 120.24C161.886 120.853 161.593 121.66 161.593 122.66C161.593 123.66 161.886 124.467 162.473 125.08C163.073 125.693 163.833 126 164.753 126ZM180.662 122.44C181.982 122.84 182.642 123.693 182.642 125C182.642 125.96 182.282 126.7 181.562 127.22C180.842 127.74 179.776 128 178.362 128H172.922V117.32H178.142C179.449 117.32 180.469 117.56 181.202 118.04C181.936 118.52 182.302 119.2 182.302 120.08C182.302 120.627 182.156 121.1 181.862 121.5C181.582 121.9 181.182 122.213 180.662 122.44ZM175.302 121.78H177.922C179.216 121.78 179.862 121.333 179.862 120.44C179.862 119.573 179.216 119.14 177.922 119.14H175.302V121.78ZM178.162 126.18C179.536 126.18 180.222 125.733 180.222 124.84C180.222 124.373 180.062 124.027 179.742 123.8C179.422 123.56 178.922 123.44 178.242 123.44H175.302V126.18H178.162ZM194.985 117.32V128H192.485V119.44H188.485L188.385 121.56C188.318 122.973 188.185 124.16 187.985 125.12C187.798 126.067 187.472 126.82 187.005 127.38C186.552 127.927 185.925 128.2 185.125 128.2C184.752 128.2 184.292 128.127 183.745 127.98L183.865 125.88C184.052 125.92 184.212 125.94 184.345 125.94C184.852 125.94 185.232 125.74 185.485 125.34C185.738 124.927 185.898 124.44 185.965 123.88C186.045 123.307 186.112 122.493 186.165 121.44L186.345 117.32H194.985ZM208.352 122.72C208.352 122.893 208.339 123.14 208.312 123.46H199.932C200.079 124.247 200.459 124.873 201.072 125.34C201.699 125.793 202.472 126.02 203.392 126.02C204.565 126.02 205.532 125.633 206.292 124.86L207.632 126.4C207.152 126.973 206.545 127.407 205.812 127.7C205.079 127.993 204.252 128.14 203.332 128.14C202.159 128.14 201.125 127.907 200.232 127.44C199.339 126.973 198.645 126.327 198.152 125.5C197.672 124.66 197.432 123.713 197.432 122.66C197.432 121.62 197.665 120.687 198.132 119.86C198.612 119.02 199.272 118.367 200.112 117.9C200.952 117.433 201.899 117.2 202.952 117.2C203.992 117.2 204.919 117.433 205.732 117.9C206.559 118.353 207.199 119 207.652 119.84C208.119 120.667 208.352 121.627 208.352 122.72ZM202.952 119.2C202.152 119.2 201.472 119.44 200.912 119.92C200.365 120.387 200.032 121.013 199.912 121.8H205.972C205.865 121.027 205.539 120.4 204.992 119.92C204.445 119.44 203.765 119.2 202.952 119.2ZM211.086 117.32H213.586V121.66H218.966V117.32H221.466V128H218.966V123.78H213.586V128H211.086V117.32ZM224.817 117.32H227.317V124.36L233.217 117.32H235.497V128H232.997V120.96L227.117 128H224.817V117.32ZM247.88 117.32V128H245.64V124.78H242.82L240.64 128H237.96L240.48 124.44C239.706 124.173 239.113 123.767 238.7 123.22C238.3 122.66 238.1 121.973 238.1 121.16C238.1 119.933 238.533 118.987 239.4 118.32C240.266 117.653 241.46 117.32 242.98 117.32H247.88ZM243.06 119.42C241.446 119.42 240.64 120.027 240.64 121.24C240.64 122.44 241.42 123.04 242.98 123.04H245.64V119.42H243.06ZM146.743 152V144.92L143.143 150.88H142.063L138.523 144.9V152H136.243V141.32H138.863L142.663 148L146.643 141.32H148.983L149.003 152H146.743ZM162.356 146.72C162.356 146.893 162.342 147.14 162.316 147.46H153.936C154.082 148.247 154.462 148.873 155.076 149.34C155.702 149.793 156.476 150.02 157.396 150.02C158.569 150.02 159.536 149.633 160.296 148.86L161.636 150.4C161.156 150.973 160.549 151.407 159.816 151.7C159.082 151.993 158.256 152.14 157.336 152.14C156.162 152.14 155.129 151.907 154.236 151.44C153.342 150.973 152.649 150.327 152.156 149.5C151.676 148.66 151.436 147.713 151.436 146.66C151.436 145.62 151.669 144.687 152.136 143.86C152.616 143.02 153.276 142.367 154.116 141.9C154.956 141.433 155.902 141.2 156.956 141.2C157.996 141.2 158.922 141.433 159.736 141.9C160.562 142.353 161.202 143 161.656 143.84C162.122 144.667 162.356 145.627 162.356 146.72ZM156.956 143.2C156.156 143.2 155.476 143.44 154.916 143.92C154.369 144.387 154.036 145.013 153.916 145.8H159.976C159.869 145.027 159.542 144.4 158.996 143.92C158.449 143.44 157.769 143.2 156.956 143.2ZM170.87 141.84C171.883 141.84 172.777 142.06 173.55 142.5C174.323 142.927 174.923 143.527 175.35 144.3C175.79 145.073 176.01 145.96 176.01 146.96C176.01 147.987 175.77 148.9 175.29 149.7C174.81 150.487 174.137 151.1 173.27 151.54C172.403 151.98 171.417 152.2 170.31 152.2C168.457 152.2 167.023 151.587 166.01 150.36C164.997 149.133 164.49 147.367 164.49 145.06C164.49 142.913 164.95 141.213 165.87 139.96C166.79 138.707 168.197 137.88 170.09 137.48L175.05 136.42L175.41 138.66L170.91 139.58C169.617 139.847 168.65 140.3 168.01 140.94C167.37 141.58 166.997 142.48 166.89 143.64C167.37 143.067 167.95 142.627 168.63 142.32C169.31 142 170.057 141.84 170.87 141.84ZM170.37 150.18C171.29 150.18 172.03 149.887 172.59 149.3C173.163 148.7 173.45 147.94 173.45 147.02C173.45 146.1 173.163 145.36 172.59 144.8C172.03 144.24 171.29 143.96 170.37 143.96C169.437 143.96 168.683 144.24 168.11 144.8C167.537 145.36 167.25 146.1 167.25 147.02C167.25 147.953 167.537 148.713 168.11 149.3C168.697 149.887 169.45 150.18 170.37 150.18ZM188.43 146.72C188.43 146.893 188.417 147.14 188.39 147.46H180.01C180.157 148.247 180.537 148.873 181.15 149.34C181.777 149.793 182.55 150.02 183.47 150.02C184.643 150.02 185.61 149.633 186.37 148.86L187.71 150.4C187.23 150.973 186.623 151.407 185.89 151.7C185.157 151.993 184.33 152.14 183.41 152.14C182.237 152.14 181.203 151.907 180.31 151.44C179.417 150.973 178.723 150.327 178.23 149.5C177.75 148.66 177.51 147.713 177.51 146.66C177.51 145.62 177.743 144.687 178.21 143.86C178.69 143.02 179.35 142.367 180.19 141.9C181.03 141.433 181.977 141.2 183.03 141.2C184.07 141.2 184.997 141.433 185.81 141.9C186.637 142.353 187.277 143 187.73 143.84C188.197 144.667 188.43 145.627 188.43 146.72ZM183.03 143.2C182.23 143.2 181.55 143.44 180.99 143.92C180.443 144.387 180.11 145.013 179.99 145.8H186.05C185.943 145.027 185.617 144.4 185.07 143.92C184.523 143.44 183.843 143.2 183.03 143.2ZM200.708 141.32V152H198.208V143.44H194.208L194.108 145.56C194.041 146.973 193.908 148.16 193.708 149.12C193.521 150.067 193.194 150.82 192.728 151.38C192.274 151.927 191.648 152.2 190.848 152.2C190.474 152.2 190.014 152.127 189.468 151.98L189.588 149.88C189.774 149.92 189.934 149.94 190.068 149.94C190.574 149.94 190.954 149.74 191.208 149.34C191.461 148.927 191.621 148.44 191.688 147.88C191.768 147.307 191.834 146.493 191.888 145.44L192.068 141.32H200.708ZM204.075 141.32H206.575V148.36L212.475 141.32H214.755V152H212.255V144.96L206.375 152H204.075V141.32Z" fill="#2D2D2D"/>
</svg>
