<svg width="223" height="172" viewBox="0 0 223 172" fill="none" xmlns="http://www.w3.org/2000/svg">
<path d="M3.51562 80.0039H23.2422C23.2422 83.6823 23.291 86.0098 23.3887 86.9863C23.4863 87.9303 23.877 88.7279 24.5605 89.3789C25.2767 90.0299 26.237 90.3555 27.4414 90.3555C28.4505 90.3555 29.2806 90.0462 29.9316 89.4277C30.5827 88.8092 30.9408 88.0117 31.0059 87.0352C31.1035 86.0586 31.1523 84.0892 31.1523 81.127V68.5293C30.1758 70.6452 28.7109 72.2402 26.7578 73.3145C24.8047 74.3561 22.3796 74.877 19.4824 74.877C15.8691 74.877 12.679 73.9004 9.91211 71.9473C7.14518 69.9941 5.38737 67.6504 4.63867 64.916C3.88997 62.1816 3.51562 58.487 3.51562 53.832V47.5332C3.51562 41.9993 3.72721 37.8815 4.15039 35.1797C4.60612 32.4779 5.74544 29.9876 7.56836 27.709C9.39128 25.3978 11.9141 23.6074 15.1367 22.3379C18.3594 21.0684 22.1029 20.4336 26.3672 20.4336C31.6406 20.4336 35.9701 21.166 39.3555 22.6309C42.7409 24.0957 45.3613 26.2116 47.2168 28.9785C49.0723 31.7129 50.1465 34.5938 50.4395 37.6211C50.7324 40.6484 50.8789 46.5078 50.8789 55.1992V66.1855C50.8789 75.5931 50.7487 81.8919 50.4883 85.082C50.2279 88.2396 49.0885 91.2344 47.0703 94.0664C45.0846 96.8984 42.3828 99.0306 38.9648 100.463C35.5469 101.863 31.5918 102.562 27.0996 102.562C21.5332 102.562 16.9759 101.667 13.4277 99.877C9.91211 98.0866 7.37305 95.5638 5.81055 92.3086C4.2806 89.0534 3.51562 84.9518 3.51562 80.0039ZM23.2422 55.3457C23.2422 58.666 23.6654 60.7168 24.5117 61.498C25.3906 62.2793 26.2858 62.6699 27.1973 62.6699C28.5645 62.6699 29.5573 62.1816 30.1758 61.2051C30.8268 60.196 31.1523 58.2428 31.1523 55.3457V41.0391C31.1523 37.556 30.8431 35.2773 30.2246 34.2031C29.6387 33.1289 28.6458 32.5918 27.2461 32.5918C26.3997 32.5918 25.5208 33.015 24.6094 33.8613C23.6979 34.6751 23.2422 36.9049 23.2422 40.5508V55.3457Z" fill="#E9E9E9"/>
<path d="M83.9162 111.8V116.98H81.5162V114H70.7762V116.98H68.3562L68.3762 111.8H68.9762C69.8562 111.76 70.4695 111.113 70.8162 109.86C71.1762 108.593 71.3962 106.787 71.4762 104.44L71.6362 100H81.8962V111.8H83.9162ZM73.7562 104.68C73.6895 106.493 73.5428 108.007 73.3162 109.22C73.0895 110.42 72.7295 111.28 72.2362 111.8H79.3362V102.2H73.8562L73.7562 104.68ZM90.649 114.14C89.569 114.14 88.5957 113.907 87.729 113.44C86.8623 112.973 86.1823 112.327 85.689 111.5C85.209 110.66 84.969 109.713 84.969 108.66C84.969 107.607 85.209 106.667 85.689 105.84C86.1823 105.013 86.8623 104.367 87.729 103.9C88.5957 103.433 89.569 103.2 90.649 103.2C91.7423 103.2 92.7223 103.433 93.589 103.9C94.4557 104.367 95.129 105.013 95.609 105.84C96.1023 106.667 96.349 107.607 96.349 108.66C96.349 109.713 96.1023 110.66 95.609 111.5C95.129 112.327 94.4557 112.973 93.589 113.44C92.7223 113.907 91.7423 114.14 90.649 114.14ZM90.649 112C91.569 112 92.329 111.693 92.929 111.08C93.529 110.467 93.829 109.66 93.829 108.66C93.829 107.66 93.529 106.853 92.929 106.24C92.329 105.627 91.569 105.32 90.649 105.32C89.729 105.32 88.969 105.627 88.369 106.24C87.7823 106.853 87.489 107.66 87.489 108.66C87.489 109.66 87.7823 110.467 88.369 111.08C88.969 111.693 89.729 112 90.649 112ZM103.679 114.14C102.572 114.14 101.579 113.907 100.699 113.44C99.8187 112.973 99.132 112.327 98.6387 111.5C98.1453 110.66 97.8987 109.713 97.8987 108.66C97.8987 107.607 98.1453 106.667 98.6387 105.84C99.132 105.013 99.812 104.367 100.679 103.9C101.559 103.433 102.559 103.2 103.679 103.2C104.732 103.2 105.652 103.413 106.439 103.84C107.239 104.267 107.839 104.88 108.239 105.68L106.319 106.8C106.012 106.307 105.625 105.94 105.159 105.7C104.705 105.447 104.205 105.32 103.659 105.32C102.725 105.32 101.952 105.627 101.339 106.24C100.725 106.84 100.419 107.647 100.419 108.66C100.419 109.673 100.719 110.487 101.319 111.1C101.932 111.7 102.712 112 103.659 112C104.205 112 104.705 111.88 105.159 111.64C105.625 111.387 106.012 111.013 106.319 110.52L108.239 111.64C107.825 112.44 107.219 113.06 106.419 113.5C105.632 113.927 104.719 114.14 103.679 114.14ZM118.802 105.44H115.062V114H112.562V105.44H108.802V103.32H118.802V105.44ZM124.596 103.2C126.169 103.2 127.369 103.58 128.196 104.34C129.036 105.087 129.456 106.22 129.456 107.74V114H127.096V112.7C126.789 113.167 126.349 113.527 125.776 113.78C125.216 114.02 124.536 114.14 123.736 114.14C122.936 114.14 122.236 114.007 121.636 113.74C121.036 113.46 120.569 113.08 120.236 112.6C119.916 112.107 119.756 111.553 119.756 110.94C119.756 109.98 120.109 109.213 120.816 108.64C121.536 108.053 122.662 107.76 124.196 107.76H126.956V107.6C126.956 106.853 126.729 106.28 126.276 105.88C125.836 105.48 125.176 105.28 124.296 105.28C123.696 105.28 123.102 105.373 122.516 105.56C121.942 105.747 121.456 106.007 121.056 106.34L120.076 104.52C120.636 104.093 121.309 103.767 122.096 103.54C122.882 103.313 123.716 103.2 124.596 103.2ZM124.256 112.32C124.882 112.32 125.436 112.18 125.916 111.9C126.409 111.607 126.756 111.193 126.956 110.66V109.42H124.376C122.936 109.42 122.216 109.893 122.216 110.84C122.216 111.293 122.396 111.653 122.756 111.92C123.116 112.187 123.616 112.32 124.256 112.32ZM140.289 108.44C141.609 108.84 142.269 109.693 142.269 111C142.269 111.96 141.909 112.7 141.189 113.22C140.469 113.74 139.402 114 137.989 114H132.549V103.32H137.769C139.076 103.32 140.096 103.56 140.829 104.04C141.562 104.52 141.929 105.2 141.929 106.08C141.929 106.627 141.782 107.1 141.489 107.5C141.209 107.9 140.809 108.213 140.289 108.44ZM134.929 107.78H137.549C138.842 107.78 139.489 107.333 139.489 106.44C139.489 105.573 138.842 105.14 137.549 105.14H134.929V107.78ZM137.789 112.18C139.162 112.18 139.849 111.733 139.849 110.84C139.849 110.373 139.689 110.027 139.369 109.8C139.049 109.56 138.549 109.44 137.869 109.44H134.929V112.18H137.789ZM149.372 109.72H147.432V114H144.932V103.32H147.432V107.64H149.432L152.592 103.32H155.272L151.392 108.46L155.532 114H152.592L149.372 109.72ZM161.08 103.2C162.653 103.2 163.853 103.58 164.68 104.34C165.52 105.087 165.94 106.22 165.94 107.74V114H163.58V112.7C163.273 113.167 162.833 113.527 162.26 113.78C161.7 114.02 161.02 114.14 160.22 114.14C159.42 114.14 158.72 114.007 158.12 113.74C157.52 113.46 157.053 113.08 156.72 112.6C156.4 112.107 156.24 111.553 156.24 110.94C156.24 109.98 156.593 109.213 157.3 108.64C158.02 108.053 159.147 107.76 160.68 107.76H163.44V107.6C163.44 106.853 163.213 106.28 162.76 105.88C162.32 105.48 161.66 105.28 160.78 105.28C160.18 105.28 159.587 105.373 159 105.56C158.427 105.747 157.94 106.007 157.54 106.34L156.56 104.52C157.12 104.093 157.793 103.767 158.58 103.54C159.367 103.313 160.2 103.2 161.08 103.2ZM160.74 112.32C161.367 112.32 161.92 112.18 162.4 111.9C162.893 111.607 163.24 111.193 163.44 110.66V109.42H160.86C159.42 109.42 158.7 109.893 158.7 110.84C158.7 111.293 158.88 111.653 159.24 111.92C159.6 112.187 160.1 112.32 160.74 112.32ZM174.561 103.32H177.061V110.36L182.961 103.32H185.241V114H182.741V106.96L176.861 114H174.561V103.32ZM85.0608 127.32L80.0608 138.86C79.5941 140.02 79.0274 140.833 78.3608 141.3C77.6941 141.78 76.8874 142.02 75.9408 142.02C75.4074 142.02 74.8808 141.933 74.3608 141.76C73.8408 141.587 73.4141 141.347 73.0808 141.04L74.0808 139.2C74.3208 139.427 74.6008 139.607 74.9208 139.74C75.2541 139.873 75.5874 139.94 75.9208 139.94C76.3608 139.94 76.7208 139.827 77.0008 139.6C77.2941 139.373 77.5608 138.993 77.8008 138.46L77.9808 138.04L73.3208 127.32H75.9208L79.2808 135.22L82.6608 127.32H85.0608ZM91.3642 138.14C90.2576 138.14 89.2642 137.907 88.3842 137.44C87.5042 136.973 86.8176 136.327 86.3242 135.5C85.8309 134.66 85.5842 133.713 85.5842 132.66C85.5842 131.607 85.8309 130.667 86.3242 129.84C86.8176 129.013 87.4976 128.367 88.3642 127.9C89.2442 127.433 90.2442 127.2 91.3642 127.2C92.4176 127.2 93.3376 127.413 94.1242 127.84C94.9242 128.267 95.5242 128.88 95.9242 129.68L94.0042 130.8C93.6976 130.307 93.3109 129.94 92.8442 129.7C92.3909 129.447 91.8909 129.32 91.3442 129.32C90.4109 129.32 89.6376 129.627 89.0242 130.24C88.4109 130.84 88.1042 131.647 88.1042 132.66C88.1042 133.673 88.4042 134.487 89.0042 135.1C89.6176 135.7 90.3976 136 91.3442 136C91.8909 136 92.3909 135.88 92.8442 135.64C93.3109 135.387 93.6976 135.013 94.0042 134.52L95.9242 135.64C95.5109 136.44 94.9042 137.06 94.1042 137.5C93.3176 137.927 92.4042 138.14 91.3642 138.14ZM106.488 129.44H102.748V138H100.248V129.44H96.4877V127.32H106.488V129.44ZM112.281 127.2C113.854 127.2 115.054 127.58 115.881 128.34C116.721 129.087 117.141 130.22 117.141 131.74V138H114.781V136.7C114.474 137.167 114.034 137.527 113.461 137.78C112.901 138.02 112.221 138.14 111.421 138.14C110.621 138.14 109.921 138.007 109.321 137.74C108.721 137.46 108.254 137.08 107.921 136.6C107.601 136.107 107.441 135.553 107.441 134.94C107.441 133.98 107.794 133.213 108.501 132.64C109.221 132.053 110.348 131.76 111.881 131.76H114.641V131.6C114.641 130.853 114.414 130.28 113.961 129.88C113.521 129.48 112.861 129.28 111.981 129.28C111.381 129.28 110.788 129.373 110.201 129.56C109.628 129.747 109.141 130.007 108.741 130.34L107.761 128.52C108.321 128.093 108.994 127.767 109.781 127.54C110.568 127.313 111.401 127.2 112.281 127.2ZM111.941 136.32C112.568 136.32 113.121 136.18 113.601 135.9C114.094 135.607 114.441 135.193 114.641 134.66V133.42H112.061C110.621 133.42 109.901 133.893 109.901 134.84C109.901 135.293 110.081 135.653 110.441 135.92C110.801 136.187 111.301 136.32 111.941 136.32ZM120.235 127.32H122.735V131.66H128.115V127.32H130.615V138H128.115V133.78H122.735V138H120.235V127.32ZM138.725 138.14C137.645 138.14 136.672 137.907 135.805 137.44C134.938 136.973 134.258 136.327 133.765 135.5C133.285 134.66 133.045 133.713 133.045 132.66C133.045 131.607 133.285 130.667 133.765 129.84C134.258 129.013 134.938 128.367 135.805 127.9C136.672 127.433 137.645 127.2 138.725 127.2C139.818 127.2 140.798 127.433 141.665 127.9C142.532 128.367 143.205 129.013 143.685 129.84C144.178 130.667 144.425 131.607 144.425 132.66C144.425 133.713 144.178 134.66 143.685 135.5C143.205 136.327 142.532 136.973 141.665 137.44C140.798 137.907 139.818 138.14 138.725 138.14ZM138.725 136C139.645 136 140.405 135.693 141.005 135.08C141.605 134.467 141.905 133.66 141.905 132.66C141.905 131.66 141.605 130.853 141.005 130.24C140.405 129.627 139.645 129.32 138.725 129.32C137.805 129.32 137.045 129.627 136.445 130.24C135.858 130.853 135.565 131.66 135.565 132.66C135.565 133.66 135.858 134.467 136.445 135.08C137.045 135.693 137.805 136 138.725 136ZM154.635 132.44C155.955 132.84 156.615 133.693 156.615 135C156.615 135.96 156.255 136.7 155.535 137.22C154.815 137.74 153.748 138 152.335 138H146.895V127.32H152.115C153.422 127.32 154.442 127.56 155.175 128.04C155.908 128.52 156.275 129.2 156.275 130.08C156.275 130.627 156.128 131.1 155.835 131.5C155.555 131.9 155.155 132.213 154.635 132.44ZM149.275 131.78H151.895C153.188 131.78 153.835 131.333 153.835 130.44C153.835 129.573 153.188 129.14 151.895 129.14H149.275V131.78ZM152.135 136.18C153.508 136.18 154.195 135.733 154.195 134.84C154.195 134.373 154.035 134.027 153.715 133.8C153.395 133.56 152.895 133.44 152.215 133.44H149.275V136.18H152.135ZM163.718 133.72H161.778V138H159.278V127.32H161.778V131.64H163.778L166.938 127.32H169.618L165.738 132.46L169.878 138H166.938L163.718 133.72ZM175.426 127.2C176.999 127.2 178.199 127.58 179.026 128.34C179.866 129.087 180.286 130.22 180.286 131.74V138H177.926V136.7C177.619 137.167 177.179 137.527 176.606 137.78C176.046 138.02 175.366 138.14 174.566 138.14C173.766 138.14 173.066 138.007 172.466 137.74C171.866 137.46 171.399 137.08 171.066 136.6C170.746 136.107 170.586 135.553 170.586 134.94C170.586 133.98 170.939 133.213 171.646 132.64C172.366 132.053 173.492 131.76 175.026 131.76H177.786V131.6C177.786 130.853 177.559 130.28 177.106 129.88C176.666 129.48 176.006 129.28 175.126 129.28C174.526 129.28 173.932 129.373 173.346 129.56C172.772 129.747 172.286 130.007 171.886 130.34L170.906 128.52C171.466 128.093 172.139 127.767 172.926 127.54C173.712 127.313 174.546 127.2 175.426 127.2ZM175.086 136.32C175.712 136.32 176.266 136.18 176.746 135.9C177.239 135.607 177.586 135.193 177.786 134.66V133.42H175.206C173.766 133.42 173.046 133.893 173.046 134.84C173.046 135.293 173.226 135.653 173.586 135.92C173.946 136.187 174.446 136.32 175.086 136.32ZM98.7425 162V154.92L95.1425 160.88H94.0625L90.5225 154.9V162H88.2425V151.32H90.8625L94.6625 158L98.6425 151.32H100.983L101.003 162H98.7425ZM114.356 156.72C114.356 156.893 114.342 157.14 114.316 157.46H105.936C106.082 158.247 106.462 158.873 107.076 159.34C107.702 159.793 108.476 160.02 109.396 160.02C110.569 160.02 111.536 159.633 112.296 158.86L113.636 160.4C113.156 160.973 112.549 161.407 111.816 161.7C111.082 161.993 110.256 162.14 109.336 162.14C108.162 162.14 107.129 161.907 106.236 161.44C105.342 160.973 104.649 160.327 104.156 159.5C103.676 158.66 103.436 157.713 103.436 156.66C103.436 155.62 103.669 154.687 104.136 153.86C104.616 153.02 105.276 152.367 106.116 151.9C106.956 151.433 107.902 151.2 108.956 151.2C109.996 151.2 110.922 151.433 111.736 151.9C112.562 152.353 113.202 153 113.656 153.84C114.122 154.667 114.356 155.627 114.356 156.72ZM108.956 153.2C108.156 153.2 107.476 153.44 106.916 153.92C106.369 154.387 106.036 155.013 105.916 155.8H111.976C111.869 155.027 111.542 154.4 110.996 153.92C110.449 153.44 109.769 153.2 108.956 153.2ZM122.87 151.84C123.883 151.84 124.777 152.06 125.55 152.5C126.323 152.927 126.923 153.527 127.35 154.3C127.79 155.073 128.01 155.96 128.01 156.96C128.01 157.987 127.77 158.9 127.29 159.7C126.81 160.487 126.137 161.1 125.27 161.54C124.403 161.98 123.417 162.2 122.31 162.2C120.457 162.2 119.023 161.587 118.01 160.36C116.997 159.133 116.49 157.367 116.49 155.06C116.49 152.913 116.95 151.213 117.87 149.96C118.79 148.707 120.197 147.88 122.09 147.48L127.05 146.42L127.41 148.66L122.91 149.58C121.617 149.847 120.65 150.3 120.01 150.94C119.37 151.58 118.997 152.48 118.89 153.64C119.37 153.067 119.95 152.627 120.63 152.32C121.31 152 122.057 151.84 122.87 151.84ZM122.37 160.18C123.29 160.18 124.03 159.887 124.59 159.3C125.163 158.7 125.45 157.94 125.45 157.02C125.45 156.1 125.163 155.36 124.59 154.8C124.03 154.24 123.29 153.96 122.37 153.96C121.437 153.96 120.683 154.24 120.11 154.8C119.537 155.36 119.25 156.1 119.25 157.02C119.25 157.953 119.537 158.713 120.11 159.3C120.697 159.887 121.45 160.18 122.37 160.18ZM140.43 156.72C140.43 156.893 140.417 157.14 140.39 157.46H132.01C132.157 158.247 132.537 158.873 133.15 159.34C133.777 159.793 134.55 160.02 135.47 160.02C136.643 160.02 137.61 159.633 138.37 158.86L139.71 160.4C139.23 160.973 138.623 161.407 137.89 161.7C137.157 161.993 136.33 162.14 135.41 162.14C134.237 162.14 133.203 161.907 132.31 161.44C131.417 160.973 130.723 160.327 130.23 159.5C129.75 158.66 129.51 157.713 129.51 156.66C129.51 155.62 129.743 154.687 130.21 153.86C130.69 153.02 131.35 152.367 132.19 151.9C133.03 151.433 133.977 151.2 135.03 151.2C136.07 151.2 136.997 151.433 137.81 151.9C138.637 152.353 139.277 153 139.73 153.84C140.197 154.667 140.43 155.627 140.43 156.72ZM135.03 153.2C134.23 153.2 133.55 153.44 132.99 153.92C132.443 154.387 132.11 155.013 131.99 155.8H138.05C137.943 155.027 137.617 154.4 137.07 153.92C136.523 153.44 135.843 153.2 135.03 153.2ZM152.708 151.32V162H150.208V153.44H146.208L146.108 155.56C146.041 156.973 145.908 158.16 145.708 159.12C145.521 160.067 145.194 160.82 144.728 161.38C144.274 161.927 143.648 162.2 142.848 162.2C142.474 162.2 142.014 162.127 141.468 161.98L141.588 159.88C141.774 159.92 141.934 159.94 142.068 159.94C142.574 159.94 142.954 159.74 143.208 159.34C143.461 158.927 143.621 158.44 143.688 157.88C143.768 157.307 143.834 156.493 143.888 155.44L144.068 151.32H152.708ZM156.075 151.32H158.575V158.36L164.475 151.32H166.755V162H164.255V154.96L158.375 162H156.075V151.32Z" fill="#2D2D2D"/>
<circle cx="129" cy="54" r="25" fill="#EC7F00"/>
<path fill-rule="evenodd" clip-rule="evenodd" d="M117.533 45.152C117.351 45.1861 117.139 45.3007 117.007 45.4372C116.826 45.624 116.734 45.8238 116.702 46.099L116.687 46.2198H115.445C114.047 46.2198 114.061 46.2185 113.889 46.3675C113.786 46.4564 113.694 46.6178 113.67 46.7485C113.639 46.9239 113.768 47.1616 113.945 47.255L114.034 47.3017L118.195 47.3065C121.189 47.3099 122.381 47.3179 122.444 47.3349C122.705 47.4042 122.855 47.7086 122.763 47.9809C122.717 48.1155 122.571 48.2786 122.436 48.3444L122.335 48.394L117.107 48.4045L111.879 48.415L111.793 48.4605C111.622 48.552 111.488 48.7364 111.452 48.9332C111.428 49.0594 111.491 49.2321 111.6 49.3396C111.774 49.5107 111.367 49.4973 116.378 49.4967L120.837 49.4961L120.929 49.5404C121.103 49.623 121.214 49.8008 121.214 49.9945C121.214 50.2041 121.055 50.4362 120.847 50.5286L120.734 50.5788L116.861 50.5893C113.98 50.5971 112.975 50.606 112.935 50.6242C112.767 50.7012 112.637 50.8535 112.583 51.0374C112.511 51.2825 112.621 51.5083 112.871 51.6259L112.967 51.6711L117.924 51.6765C122.754 51.6816 122.883 51.6828 122.96 51.7219C123.208 51.8478 123.309 52.1376 123.191 52.3867C123.123 52.5307 123.025 52.6353 122.905 52.6938L122.804 52.7425L116.861 52.753L110.918 52.7635L110.807 52.8131C110.681 52.869 110.543 53.0044 110.489 53.1244C110.467 53.1734 110.453 53.2629 110.452 53.3542C110.45 53.4854 110.458 53.5165 110.514 53.6058C110.554 53.6686 110.618 53.7321 110.683 53.7713L110.787 53.8348L115.067 53.8453L119.347 53.8558L119.451 53.9059C119.632 53.994 119.734 54.1812 119.715 54.3908C119.696 54.5972 119.585 54.7625 119.397 54.8651L119.283 54.9272L117.606 54.9329L115.929 54.9387L115.903 55.227C115.889 55.3856 115.869 55.6146 115.858 55.7359C115.847 55.8573 115.833 56.018 115.827 56.0931C115.816 56.2261 115.797 56.4408 115.752 56.9333C115.739 57.0662 115.725 57.2316 115.72 57.301C115.714 57.3703 115.705 57.4837 115.698 57.553C115.692 57.6224 115.683 57.7264 115.678 57.7841C115.658 58.0228 115.64 58.2291 115.633 58.2883C115.608 58.4942 115.592 58.7803 115.592 58.9815C115.592 59.1709 115.601 59.2336 115.64 59.3291C115.709 59.4986 115.873 59.6696 116.046 59.7531L116.189 59.8218H117.479H118.77L118.795 59.6432C118.899 58.8907 119.266 58.1682 119.838 57.587C120.275 57.1433 120.691 56.8652 121.236 56.6528C121.833 56.42 122.459 56.3442 123.071 56.4308C123.808 56.5351 124.397 56.8289 124.907 57.3458C125.346 57.7907 125.607 58.2757 125.742 58.8953C125.779 59.0641 125.789 59.1818 125.79 59.4699L125.792 59.8321L131.407 59.8322L137.022 59.8323L137.037 59.6905C137.059 59.4831 137.181 59.0338 137.282 58.7925C137.474 58.3304 137.744 57.9313 138.115 57.5615C138.476 57.2007 138.755 56.9965 139.158 56.7979C139.725 56.5182 140.209 56.4043 140.835 56.4031C141.221 56.4024 141.43 56.4289 141.764 56.5209C143.161 56.9063 144.093 58.1734 144.058 59.6397L144.053 59.8357L144.408 59.8288L144.762 59.8218L144.928 59.7435C145.152 59.6386 145.322 59.4711 145.427 59.2546C145.51 59.083 145.522 59.0057 145.583 58.2778C145.597 58.1103 145.612 57.9448 145.616 57.9102C145.62 57.8755 145.63 57.7668 145.637 57.6686C145.645 57.5704 145.655 57.4619 145.659 57.4276C145.663 57.3933 145.672 57.2798 145.679 57.1755C145.686 57.0712 145.695 56.9717 145.7 56.9543C145.705 56.937 145.714 56.833 145.722 56.7233C145.729 56.6135 145.743 56.4386 145.754 56.3346C145.765 56.2307 145.779 56.07 145.786 55.9775C145.792 55.8851 145.802 55.7717 145.808 55.7254C145.813 55.6792 145.823 55.5705 145.829 55.4839C145.835 55.3972 145.849 55.2365 145.86 55.1267C145.872 55.017 145.886 54.8516 145.893 54.7591C145.9 54.6667 145.914 54.5154 145.924 54.423C145.959 54.112 145.915 53.7901 145.792 53.4462C145.656 53.0682 145.571 52.9389 145.179 52.5142C144.586 51.8727 144.339 51.6077 144.006 51.251C143.636 50.8559 143.184 50.3709 143.078 50.2545C142.187 49.28 142.061 49.1735 141.578 48.9819C141.14 48.8079 141.277 48.8172 139.037 48.8093C137.942 48.8054 137.05 48.7955 137.055 48.7872C137.06 48.7789 137.071 48.6682 137.079 48.5411C137.086 48.414 137.097 48.2911 137.102 48.268C137.106 48.2449 137.116 48.1409 137.122 48.0369C137.129 47.9329 137.143 47.7675 137.154 47.6693C137.165 47.5711 137.179 47.4057 137.186 47.3017C137.193 47.1977 137.203 47.089 137.208 47.0601C137.213 47.0312 137.222 46.9178 137.229 46.808C137.235 46.6983 137.245 46.5848 137.25 46.5559C137.284 46.3737 137.302 45.9233 137.281 45.8101C137.218 45.4756 136.95 45.2121 136.611 45.1503C136.448 45.1207 117.693 45.1223 117.533 45.152ZM140.96 49.7607C141.121 49.801 141.451 49.9561 141.546 50.0363C141.584 50.0689 142.209 50.7337 142.934 51.5136L144.251 52.9315L140.945 52.9368C139.126 52.9398 137.635 52.9391 137.631 52.9353C137.627 52.9315 137.634 52.8292 137.646 52.708C137.657 52.5867 137.691 52.2117 137.72 51.8745C137.77 51.2985 137.864 50.2198 137.894 49.8803L137.908 49.728H139.368C140.622 49.728 140.848 49.7326 140.96 49.7607ZM122.249 57.0964C121.946 57.1245 121.503 57.2525 121.214 57.395C120.335 57.829 119.739 58.5758 119.528 59.5079C119.469 59.7709 119.455 60.2628 119.5 60.515C119.66 61.4142 120.275 62.1445 121.124 62.4446C121.765 62.6713 122.513 62.645 123.177 62.3723C124.322 61.9015 125.093 60.7894 125.093 59.6073C125.094 58.2059 124.008 57.1157 122.591 57.0946C122.438 57.0923 122.285 57.0931 122.249 57.0964ZM140.494 57.0969C140.459 57.1003 140.337 57.1212 140.223 57.1435C139.288 57.3259 138.469 57.9411 138.04 58.7819C137.898 59.0599 137.779 59.4317 137.741 59.7168C137.715 59.9102 137.728 60.4039 137.763 60.5681C137.932 61.3622 138.382 61.9594 139.072 62.3087C139.491 62.5204 139.8 62.5915 140.302 62.5913C140.687 62.5913 140.866 62.5627 141.229 62.4439C142.464 62.0387 143.342 60.869 143.347 59.6222C143.352 58.3747 142.509 57.3639 141.27 57.1308C141.11 57.1008 140.661 57.0812 140.494 57.0969ZM122.727 58.5217C123.149 58.6143 123.523 58.9783 123.635 59.4047C123.677 59.5684 123.678 59.8899 123.636 60.0537C123.523 60.4929 123.165 60.9089 122.742 61.0903C122.439 61.2206 122.058 61.2428 121.759 61.1479C121.353 61.0192 121.034 60.6868 120.927 60.2828C120.885 60.1241 120.885 59.7933 120.927 59.6319C121.033 59.2234 121.34 58.8413 121.715 58.6522C122.059 58.4785 122.356 58.4401 122.727 58.5217ZM140.985 58.5214C141.396 58.6185 141.745 58.947 141.876 59.3596C141.93 59.5337 141.94 59.8593 141.895 60.0424C141.852 60.2141 141.695 60.5197 141.578 60.6562C141.371 60.8986 141.067 61.0885 140.761 61.1673C140.582 61.2132 140.259 61.2144 140.084 61.1697C139.672 61.0647 139.334 60.7533 139.202 60.3564C139.134 60.1542 139.128 59.7875 139.189 59.5919C139.433 58.8056 140.215 58.3396 140.985 58.5214Z" fill="white"/>
</svg>
